<svg width="16" height="16" viewBox="0 0 16 16" fill="none" xmlns="http://www.w3.org/2000/svg">
<g clip-path="url(#clip0_59_2539)">
<path d="M8.00017 2.60785C8.19147 2.60785 8.348 2.45132 8.348 2.26002V2.08611C8.348 1.8948 8.19147 1.73828 8.00017 1.73828C7.80887 1.73828 7.65234 1.8948 7.65234 2.08611V2.26002C7.65234 2.45132 7.80887 2.60785 8.00017 2.60785Z" fill="black"/>
<path d="M8.00017 13.3906C7.80887 13.3906 7.65234 13.5471 7.65234 13.7385V13.9124C7.65234 14.1037 7.80887 14.2602 8.00017 14.2602C8.19147 14.2602 8.348 14.1037 8.348 13.9124V13.7385C8.348 13.5471 8.19147 13.3906 8.00017 13.3906Z" fill="black"/>
<path d="M2.26002 7.65234H2.08611C1.8948 7.65234 1.73828 7.80887 1.73828 8.00017C1.73828 8.19147 1.8948 8.348 2.08611 8.348H2.26002C2.45132 8.348 2.60785 8.19147 2.60785 8.00017C2.60785 7.80887 2.45132 7.65234 2.26002 7.65234Z" fill="black"/>
<path d="M13.9124 7.65234H13.7385C13.5471 7.65234 13.3906 7.80887 13.3906 8.00017C13.3906 8.19147 13.5471 8.348 13.7385 8.348H13.9124C14.1037 8.348 14.2602 8.19147 14.2602 8.00017C14.2602 7.80887 14.1037 7.65234 13.9124 7.65234Z" fill="black"/>
<path d="M4.06787 3.58286C3.92874 3.44373 3.72004 3.44373 3.58091 3.58286C3.44178 3.72199 3.44178 3.93069 3.58091 4.06982L3.70265 4.19156C3.77221 4.26112 3.85917 4.29591 3.94613 4.29591C4.03308 4.29591 4.12004 4.26112 4.18961 4.19156C4.32874 4.05243 4.32874 3.84373 4.18961 3.7046L4.06787 3.58286Z" fill="black"/>
<path d="M3.70265 11.8094L3.58091 11.9312C3.44178 12.0703 3.44178 12.279 3.58091 12.4181C3.65048 12.4877 3.73743 12.5225 3.82439 12.5225C3.91135 12.5225 3.9983 12.4877 4.06787 12.4181L4.18961 12.2964C4.32874 12.1573 4.32874 11.9486 4.18961 11.8094C4.05048 11.6703 3.84178 11.6703 3.70265 11.8094Z" fill="black"/>
<path d="M11.9292 3.58286L11.8075 3.7046C11.6683 3.84373 11.6683 4.05243 11.8075 4.19156C11.877 4.26112 11.964 4.29591 12.051 4.29591C12.1379 4.29591 12.2249 4.26112 12.2944 4.19156L12.4162 4.06982C12.5553 3.93069 12.5553 3.72199 12.4162 3.58286C12.277 3.44373 12.0683 3.44373 11.9292 3.58286Z" fill="black"/>
<path d="M8.34783 7.86082V4.6956C8.34783 4.5043 8.19131 4.34778 8 4.34778C7.8087 4.34778 7.65218 4.5043 7.65218 4.6956V7.99995C7.65218 8.08691 7.68696 8.17387 7.75652 8.24343L11.5652 12.0521C11.6348 12.1217 11.7217 12.1565 11.8087 12.1565C11.8957 12.1565 11.9826 12.1217 12.0522 12.0521C12.1913 11.913 12.1913 11.7043 12.0522 11.5652L8.34783 7.86082Z" fill="black"/>
<path d="M8 0C3.58261 0 0 3.58261 0 8C0 12.4174 3.58261 16 8 16C12.4174 16 16 12.4174 16 8C16 3.58261 12.4174 0 8 0ZM8 15.3043C3.96522 15.3043 0.695652 12.0348 0.695652 8C0.695652 3.96522 3.96522 0.695652 8 0.695652C12.0348 0.695652 15.3043 3.96522 15.3043 8C15.3043 12.0348 12.0348 15.3043 8 15.3043Z" fill="black"/>
</g>
<defs>
<clipPath id="clip0_59_2539">
<rect width="16" height="16" fill="white"/>
</clipPath>
</defs>
</svg>
