<svg width="27" height="27" viewBox="0 0 27 27" fill="none" xmlns="http://www.w3.org/2000/svg">
<g clip-path="url(#clip0_177_2835)">
<mask id="mask0_177_2835" style="mask-type:luminance" maskUnits="userSpaceOnUse" x="0" y="0" width="27" height="27">
<path d="M13.7602 26.5576C20.931 26.5576 26.7441 20.7445 26.7441 13.5737C26.7441 6.40292 20.931 0.589844 13.7602 0.589844C6.58944 0.589844 0.776367 6.40292 0.776367 13.5737C0.776367 20.7445 6.58944 26.5576 13.7602 26.5576Z" fill="white"/>
</mask>
<g mask="url(#mask0_177_2835)">
<path d="M0.776367 0.589844H26.7441V26.5576H0.776367V0.589844Z" fill="#F8F7F7"/>
</g>
<mask id="mask1_177_2835" style="mask-type:luminance" maskUnits="userSpaceOnUse" x="0" y="0" width="27" height="27">
<path d="M13.7602 26.5576C20.931 26.5576 26.7441 20.7445 26.7441 13.5737C26.7441 6.40292 20.931 0.589844 13.7602 0.589844C6.58944 0.589844 0.776367 6.40292 0.776367 13.5737C0.776367 20.7445 6.58944 26.5576 13.7602 26.5576Z" fill="white"/>
</mask>
<g mask="url(#mask1_177_2835)">
<path d="M0.776367 0.589844H26.7441V2.58814H0.776367V0.589844Z" fill="#EA6568"/>
</g>
<mask id="mask2_177_2835" style="mask-type:luminance" maskUnits="userSpaceOnUse" x="0" y="0" width="27" height="27">
<path d="M13.7602 26.5576C20.931 26.5576 26.7441 20.7445 26.7441 13.5737C26.7441 6.40292 20.931 0.589844 13.7602 0.589844C6.58944 0.589844 0.776367 6.40292 0.776367 13.5737C0.776367 20.7445 6.58944 26.5576 13.7602 26.5576Z" fill="white"/>
</mask>
<g mask="url(#mask2_177_2835)">
<path d="M0.776428 2.58789H26.7442V4.58619H0.776428V2.58789Z" fill="#F8F7F7"/>
</g>
<mask id="mask3_177_2835" style="mask-type:luminance" maskUnits="userSpaceOnUse" x="0" y="0" width="27" height="27">
<path d="M13.7602 26.5576C20.931 26.5576 26.7441 20.7445 26.7441 13.5737C26.7441 6.40292 20.931 0.589844 13.7602 0.589844C6.58944 0.589844 0.776367 6.40292 0.776367 13.5737C0.776367 20.7445 6.58944 26.5576 13.7602 26.5576Z" fill="white"/>
</mask>
<g mask="url(#mask3_177_2835)">
<path d="M0.776428 4.58691H26.7442V6.58521H0.776428V4.58691Z" fill="#EA6568"/>
</g>
<mask id="mask4_177_2835" style="mask-type:luminance" maskUnits="userSpaceOnUse" x="0" y="0" width="27" height="27">
<path d="M13.7602 26.5576C20.931 26.5576 26.7441 20.7445 26.7441 13.5737C26.7441 6.40292 20.931 0.589844 13.7602 0.589844C6.58944 0.589844 0.776367 6.40292 0.776367 13.5737C0.776367 20.7445 6.58944 26.5576 13.7602 26.5576Z" fill="white"/>
</mask>
<g mask="url(#mask4_177_2835)">
<path d="M0.776428 6.58496H26.7442V8.58326H0.776428V6.58496Z" fill="#F8F7F7"/>
</g>
<mask id="mask5_177_2835" style="mask-type:luminance" maskUnits="userSpaceOnUse" x="0" y="0" width="27" height="27">
<path d="M13.7602 26.5576C20.931 26.5576 26.7441 20.7445 26.7441 13.5737C26.7441 6.40292 20.931 0.589844 13.7602 0.589844C6.58944 0.589844 0.776367 6.40292 0.776367 13.5737C0.776367 20.7445 6.58944 26.5576 13.7602 26.5576Z" fill="white"/>
</mask>
<g mask="url(#mask5_177_2835)">
<path d="M0.776428 8.57812H26.7442V10.5764H0.776428V8.57812Z" fill="#EA6568"/>
</g>
<mask id="mask6_177_2835" style="mask-type:luminance" maskUnits="userSpaceOnUse" x="0" y="0" width="27" height="27">
<path d="M13.7602 26.5576C20.931 26.5576 26.7441 20.7445 26.7441 13.5737C26.7441 6.40292 20.931 0.589844 13.7602 0.589844C6.58944 0.589844 0.776367 6.40292 0.776367 13.5737C0.776367 20.7445 6.58944 26.5576 13.7602 26.5576Z" fill="white"/>
</mask>
<g mask="url(#mask6_177_2835)">
<path d="M0.776428 10.5762H26.7442V12.5745H0.776428V10.5762Z" fill="#F8F7F7"/>
</g>
<mask id="mask7_177_2835" style="mask-type:luminance" maskUnits="userSpaceOnUse" x="0" y="0" width="27" height="27">
<path d="M13.7602 26.5576C20.931 26.5576 26.7441 20.7445 26.7441 13.5737C26.7441 6.40292 20.931 0.589844 13.7602 0.589844C6.58944 0.589844 0.776367 6.40292 0.776367 13.5737C0.776367 20.7445 6.58944 26.5576 13.7602 26.5576Z" fill="white"/>
</mask>
<g mask="url(#mask7_177_2835)">
<path d="M0.776428 12.5742H26.7442V14.5725H0.776428V12.5742Z" fill="#EA6568"/>
</g>
<mask id="mask8_177_2835" style="mask-type:luminance" maskUnits="userSpaceOnUse" x="0" y="0" width="27" height="27">
<path d="M13.7602 26.5576C20.931 26.5576 26.7441 20.7445 26.7441 13.5737C26.7441 6.40292 20.931 0.589844 13.7602 0.589844C6.58944 0.589844 0.776367 6.40292 0.776367 13.5737C0.776367 20.7445 6.58944 26.5576 13.7602 26.5576Z" fill="white"/>
</mask>
<g mask="url(#mask8_177_2835)">
<path d="M0.776428 14.5732H26.7442V16.5715H0.776428V14.5732Z" fill="#F8F7F7"/>
</g>
<mask id="mask9_177_2835" style="mask-type:luminance" maskUnits="userSpaceOnUse" x="0" y="0" width="27" height="27">
<path d="M13.7602 26.5576C20.931 26.5576 26.7441 20.7445 26.7441 13.5737C26.7441 6.40292 20.931 0.589844 13.7602 0.589844C6.58944 0.589844 0.776367 6.40292 0.776367 13.5737C0.776367 20.7445 6.58944 26.5576 13.7602 26.5576Z" fill="white"/>
</mask>
<g mask="url(#mask9_177_2835)">
<path d="M0.776428 16.5713H26.7442V18.5696H0.776428V16.5713Z" fill="#EA6568"/>
</g>
<mask id="mask10_177_2835" style="mask-type:luminance" maskUnits="userSpaceOnUse" x="0" y="0" width="27" height="27">
<path d="M13.7602 26.5576C20.931 26.5576 26.7441 20.7445 26.7441 13.5737C26.7441 6.40292 20.931 0.589844 13.7602 0.589844C6.58944 0.589844 0.776367 6.40292 0.776367 13.5737C0.776367 20.7445 6.58944 26.5576 13.7602 26.5576Z" fill="white"/>
</mask>
<g mask="url(#mask10_177_2835)">
<path d="M0.776428 18.5693H26.7442V20.5676H0.776428V18.5693Z" fill="#F8F7F7"/>
</g>
<mask id="mask11_177_2835" style="mask-type:luminance" maskUnits="userSpaceOnUse" x="0" y="0" width="27" height="27">
<path d="M13.7602 26.5576C20.931 26.5576 26.7441 20.7445 26.7441 13.5737C26.7441 6.40292 20.931 0.589844 13.7602 0.589844C6.58944 0.589844 0.776367 6.40292 0.776367 13.5737C0.776367 20.7445 6.58944 26.5576 13.7602 26.5576Z" fill="white"/>
</mask>
<g mask="url(#mask11_177_2835)">
<path d="M0.776428 20.5625H26.7442V22.5608H0.776428V20.5625Z" fill="#EA6568"/>
</g>
<mask id="mask12_177_2835" style="mask-type:luminance" maskUnits="userSpaceOnUse" x="0" y="0" width="27" height="27">
<path d="M13.7602 26.5576C20.931 26.5576 26.7441 20.7445 26.7441 13.5737C26.7441 6.40292 20.931 0.589844 13.7602 0.589844C6.58944 0.589844 0.776367 6.40292 0.776367 13.5737C0.776367 20.7445 6.58944 26.5576 13.7602 26.5576Z" fill="white"/>
</mask>
<g mask="url(#mask12_177_2835)">
<path d="M0.776428 22.5605H26.7442V24.5588H0.776428V22.5605Z" fill="#F8F7F7"/>
</g>
<mask id="mask13_177_2835" style="mask-type:luminance" maskUnits="userSpaceOnUse" x="0" y="0" width="27" height="27">
<path d="M13.7602 26.5576C20.931 26.5576 26.7441 20.7445 26.7441 13.5737C26.7441 6.40292 20.931 0.589844 13.7602 0.589844C6.58944 0.589844 0.776367 6.40292 0.776367 13.5737C0.776367 20.7445 6.58944 26.5576 13.7602 26.5576Z" fill="white"/>
</mask>
<g mask="url(#mask13_177_2835)">
<path d="M0.776428 24.5596H26.7442V26.5579H0.776428V24.5596Z" fill="#EA6568"/>
</g>
<mask id="mask14_177_2835" style="mask-type:luminance" maskUnits="userSpaceOnUse" x="0" y="0" width="27" height="27">
<path d="M13.7602 26.5576C20.931 26.5576 26.7441 20.7445 26.7441 13.5737C26.7441 6.40292 20.931 0.589844 13.7602 0.589844C6.58944 0.589844 0.776367 6.40292 0.776367 13.5737C0.776367 20.7445 6.58944 26.5576 13.7602 26.5576Z" fill="white"/>
</mask>
<g mask="url(#mask14_177_2835)">
<path d="M-4.35626 0.589844H14.8254V14.5729H-4.35626V0.589844Z" fill="#455BA4"/>
</g>
<mask id="mask15_177_2835" style="mask-type:luminance" maskUnits="userSpaceOnUse" x="0" y="0" width="27" height="27">
<path d="M13.7602 26.5576C20.931 26.5576 26.7441 20.7445 26.7441 13.5737C26.7441 6.40292 20.931 0.589844 13.7602 0.589844C6.58944 0.589844 0.776367 6.40292 0.776367 13.5737C0.776367 20.7445 6.58944 26.5576 13.7602 26.5576Z" fill="white"/>
</mask>
<g mask="url(#mask15_177_2835)">
<path d="M2.33348 3.59785L2.6733 3.34933C2.70373 3.32905 2.68851 3.2834 2.65301 3.2834H2.23205L2.19655 3.26311L2.06468 2.86244C2.05453 2.82694 2.00889 2.82694 1.99367 2.86244L1.8618 3.26311L1.8263 3.28847H1.40534C1.36984 3.28847 1.35462 3.33412 1.38505 3.35441L1.72487 3.60293L1.74008 3.6435L1.61836 4.0391C1.60821 4.0746 1.64372 4.09996 1.67415 4.07968L2.01396 3.83116H2.05453L2.39435 4.07968C2.42478 4.09996 2.46028 4.0746 2.45014 4.0391L2.31827 3.63843L2.33348 3.59785ZM5.51859 3.59785L5.8584 3.34933C5.88883 3.32905 5.87362 3.2834 5.83812 3.2834H5.41715L5.38165 3.25804L5.24978 2.85737C5.23964 2.82186 5.19399 2.82186 5.17878 2.85737L5.04691 3.25804L5.01141 3.2834H4.59045C4.55494 3.2834 4.53973 3.32905 4.57016 3.34933L4.90997 3.59785L4.92519 3.63843L4.80346 4.0391C4.79332 4.0746 4.82882 4.09996 4.85925 4.07968L5.19907 3.83116H5.23964L5.57945 4.07968C5.60988 4.09996 5.64539 4.0746 5.63524 4.0391L5.50338 3.63843L5.51859 3.59785ZM8.7037 3.59785L9.04351 3.34933C9.07394 3.32905 9.05872 3.2834 9.02322 3.2834H8.60226L8.56676 3.25804L8.43489 2.85737C8.42475 2.82186 8.3791 2.82186 8.36388 2.85737L8.23202 3.25804L8.19651 3.2834H7.77555C7.74005 3.2834 7.72483 3.32905 7.75527 3.34933L8.09508 3.59785L8.11029 3.63843L7.97843 4.0391C7.96828 4.0746 8.00378 4.09996 8.03422 4.07968L8.37403 3.83116H8.4146L8.75441 4.07968C8.78485 4.09996 8.82035 4.0746 8.8102 4.0391L8.67834 3.63843L8.7037 3.59785ZM0.740931 2.24368L1.08074 1.99516C1.11117 1.97487 1.09596 1.92922 1.06046 1.92922H0.639495L0.603992 1.90386L0.472125 1.50319C0.461981 1.46769 0.416335 1.46769 0.401119 1.50319L0.269252 1.90386L0.233749 1.92922H-0.187212C-0.222715 1.92922 -0.237931 1.97487 -0.2075 1.99516L0.132313 2.24368L0.147528 2.28425L0.0156606 2.68492C0.00551692 2.72043 0.0410197 2.74579 0.0714507 2.7255L0.411263 2.47698H0.451837L0.801793 2.72043C0.832224 2.74071 0.867727 2.71536 0.857584 2.67985L0.725716 2.27918L0.740931 2.24368ZM3.93618 2.24368L4.27599 1.99516C4.30642 1.97487 4.29121 1.92922 4.25571 1.92922H3.83474L3.79924 1.90386L3.66737 1.50319C3.65723 1.46769 3.61158 1.46769 3.59637 1.50319L3.4645 1.90386L3.429 1.92922H3.00804C2.97253 1.92922 2.95732 1.97487 2.98775 1.99516L3.32756 2.24368L3.34278 2.28425L3.21091 2.68492C3.20077 2.72043 3.23627 2.74579 3.2667 2.7255L3.60651 2.47698H3.64709L3.9869 2.7255C4.01733 2.74579 4.05283 2.72043 4.04269 2.68492L3.92097 2.28425L3.93618 2.24368ZM7.13143 2.24368L7.47124 1.99516C7.50167 1.97487 7.48646 1.92922 7.45096 1.92922H7.02999L6.99449 1.90386L6.86262 1.50319C6.85248 1.46769 6.80683 1.46769 6.79162 1.50319L6.65975 1.90386L6.62425 1.92922H6.20329C6.16778 1.92922 6.15257 1.97487 6.183 1.99516L6.52281 2.24368L6.53803 2.28425L6.40616 2.68492C6.39602 2.72043 6.43152 2.74579 6.46195 2.7255L6.80176 2.47698H6.84234L7.18215 2.7255C7.21258 2.74579 7.24808 2.72043 7.23794 2.68492L7.10607 2.28425L7.13143 2.24368ZM10.3216 2.24368L10.6614 1.99516C10.6919 1.97487 10.6766 1.92922 10.6411 1.92922H10.2202L10.1847 1.90386L10.0528 1.50319C10.0427 1.46769 9.99701 1.46769 9.9818 1.50319L9.84993 1.90386L9.81443 1.92922H9.39346C9.35796 1.92922 9.34275 1.97487 9.37318 1.99516L9.71299 2.24368L9.7282 2.28425L9.59634 2.68492C9.58619 2.72043 9.6217 2.74579 9.65213 2.7255L9.99194 2.47698H10.0325L10.3723 2.7255C10.4028 2.74579 10.4383 2.72043 10.4281 2.68492L10.2962 2.28425L10.3216 2.24368ZM2.33348 6.33664L2.6733 6.08812C2.70373 6.06783 2.68851 6.02219 2.65301 6.02219H2.23205L2.19655 5.99683L2.06468 5.59615C2.05453 5.56065 2.00889 5.56065 1.99367 5.59615L1.8618 5.99683L1.8263 6.02219H1.40534C1.36984 6.02219 1.35462 6.06783 1.38505 6.08812L1.72487 6.33664L1.74008 6.37721L1.60821 6.77789C1.59807 6.81339 1.63357 6.83875 1.664 6.81846L2.00382 6.56994H2.04439L2.3842 6.81846C2.41463 6.83875 2.45014 6.81339 2.43999 6.77789L2.30813 6.37721L2.33348 6.33664ZM5.51859 6.33664L5.8584 6.08812C5.88883 6.06783 5.87362 6.02219 5.83812 6.02219H5.41715L5.38165 5.99683L5.24978 5.59615C5.23964 5.56065 5.19399 5.56065 5.17878 5.59615L5.04691 5.99683L5.01141 6.02219H4.59045C4.55494 6.02219 4.53973 6.06783 4.57016 6.08812L4.90997 6.33664L4.92519 6.37721L4.79332 6.77789C4.78318 6.81339 4.81868 6.83875 4.84911 6.81846L5.18892 6.56994H5.23964L5.57945 6.81846C5.60988 6.83875 5.64539 6.81339 5.63524 6.77789L5.50338 6.37721L5.51859 6.33664ZM8.7037 6.33664L9.04351 6.08812C9.07394 6.06783 9.05872 6.02219 9.02322 6.02219H8.60226L8.56676 5.99683L8.43489 5.59615C8.42475 5.56065 8.3791 5.56065 8.36388 5.59615L8.23202 5.99683L8.19651 6.02219H7.77555C7.74005 6.02219 7.72483 6.06783 7.75527 6.08812L8.09508 6.33664L8.11029 6.37721L7.97843 6.77789C7.96828 6.81339 8.00378 6.83875 8.03422 6.81846L8.37403 6.56994H8.4146L8.75441 6.81846C8.78485 6.83875 8.82035 6.81339 8.8102 6.77789L8.67834 6.37721L8.7037 6.33664ZM0.740931 4.98246L1.08074 4.73394C1.11117 4.71365 1.09596 4.66801 1.06046 4.66801H0.639495L0.603992 4.64265L0.472125 4.24198C0.461981 4.20647 0.416335 4.20647 0.401119 4.24198L0.269252 4.64265L0.233749 4.66801H-0.187212C-0.222715 4.66801 -0.237931 4.71365 -0.2075 4.73394L0.132313 4.98246L0.147528 5.02304L0.0156606 5.42371C0.00551692 5.45921 0.0410197 5.48457 0.0714507 5.46428L0.411263 5.21577H0.451837L0.801793 5.45921C0.832224 5.4795 0.867727 5.45414 0.857584 5.41864L0.725716 5.01796L0.740931 4.98246ZM3.93618 4.98246L4.27599 4.73394C4.30642 4.71365 4.29121 4.66801 4.25571 4.66801H3.83474L3.79924 4.64265L3.66737 4.24198C3.65723 4.20647 3.61158 4.20647 3.59637 4.24198L3.4645 4.64265L3.429 4.66801H3.00804C2.97253 4.66801 2.95732 4.71365 2.98775 4.73394L3.32756 4.98246L3.34278 5.02304L3.21091 5.42371C3.20077 5.45921 3.23627 5.48457 3.2667 5.46428L3.60651 5.21577H3.64709L3.9869 5.46428C4.01733 5.48457 4.05283 5.45921 4.04269 5.42371L3.92097 5.02304L3.93618 4.98246ZM7.13143 4.98246L7.47124 4.73394C7.50167 4.71365 7.48646 4.66801 7.45096 4.66801H7.02999L6.99449 4.64265L6.86262 4.24198C6.85248 4.20647 6.80683 4.20647 6.79162 4.24198L6.65975 4.64265L6.62425 4.66801H6.20329C6.16778 4.66801 6.15257 4.71365 6.183 4.73394L6.52281 4.98246L6.53803 5.02304L6.40616 5.42371C6.39602 5.45921 6.43152 5.48457 6.46195 5.46428L6.80176 5.21577H6.84234L7.18215 5.46428C7.21258 5.48457 7.24808 5.45921 7.23794 5.42371L7.10607 5.02304L7.13143 4.98246ZM10.3216 4.98246L10.6614 4.73394C10.6919 4.71365 10.6766 4.66801 10.6411 4.66801H10.2202L10.1847 4.64265L10.0528 4.24198C10.0427 4.20647 9.99701 4.20647 9.9818 4.24198L9.84993 4.64265L9.81443 4.66801H9.39346C9.35796 4.66801 9.34275 4.71365 9.37318 4.73394L9.71299 4.98246L9.7282 5.02304L9.59634 5.42371C9.58619 5.45921 9.6217 5.48457 9.65213 5.46428L9.99194 5.21577H10.0325L10.3723 5.46428C10.4028 5.48457 10.4383 5.45921 10.4281 5.42371L10.2962 5.02304L10.3216 4.98246ZM2.33348 9.07542L2.6733 8.8269C2.70373 8.80662 2.68851 8.76097 2.65301 8.76097H2.23205L2.19655 8.73561L2.06468 8.33494C2.05453 8.29943 2.00889 8.29943 1.99367 8.33494L1.8618 8.73561L1.8263 8.76097H1.40534C1.36984 8.76097 1.35462 8.80662 1.38505 8.8269L1.72487 9.07542L1.74008 9.116L1.60821 9.51667C1.59807 9.55218 1.63357 9.57753 1.664 9.55725L2.00382 9.30873H2.04439L2.3842 9.55725C2.41463 9.57753 2.45014 9.55218 2.43999 9.51667L2.30813 9.116L2.33348 9.07542ZM5.51859 9.07542L5.8584 8.8269C5.88883 8.80662 5.87362 8.76097 5.83812 8.76097H5.41715L5.38165 8.73561L5.24978 8.33494C5.23964 8.29943 5.19399 8.29943 5.17878 8.33494L5.04691 8.73561L5.01141 8.76097H4.59045C4.55494 8.76097 4.53973 8.80662 4.57016 8.8269L4.90997 9.07542L4.92519 9.116L4.79332 9.51667C4.78318 9.55218 4.81868 9.57753 4.84911 9.55725L5.18892 9.30873H5.23964L5.57945 9.55725C5.60988 9.57753 5.64539 9.55218 5.63524 9.51667L5.50338 9.116L5.51859 9.07542ZM8.7037 9.07542L9.04351 8.8269C9.07394 8.80662 9.05872 8.76097 9.02322 8.76097H8.60226L8.56676 8.73561L8.43489 8.33494C8.42475 8.29943 8.3791 8.29943 8.36388 8.33494L8.23202 8.73561L8.19651 8.76097H7.77555C7.74005 8.76097 7.72483 8.80662 7.75527 8.8269L8.09508 9.07542L8.11029 9.116L7.97843 9.51667C7.96828 9.55218 8.00378 9.57753 8.03422 9.55725L8.37403 9.30873H8.4146L8.75441 9.55725C8.78485 9.57753 8.82035 9.55218 8.8102 9.51667L8.67834 9.116L8.7037 9.07542ZM0.740931 7.71618L1.08074 7.46766C1.11117 7.44737 1.09596 7.40172 1.06046 7.40172H0.639495L0.603992 7.37636L0.472125 6.97569C0.461981 6.94019 0.416335 6.94019 0.401119 6.97569L0.269252 7.37636L0.233749 7.40172H-0.187212C-0.222715 7.40172 -0.237931 7.44737 -0.2075 7.46766L0.132313 7.71618L0.147528 7.75675L0.0156606 8.15742C0.00551692 8.19293 0.0410197 8.21829 0.0714507 8.198L0.411263 7.94948H0.451837L0.79165 8.198C0.822081 8.21829 0.857583 8.19293 0.84744 8.15742L0.715572 7.75675L0.740931 7.71618ZM3.93618 7.71618L4.27599 7.46766C4.30642 7.44737 4.29121 7.40172 4.25571 7.40172H3.83474L3.79924 7.37636L3.66737 6.97569C3.65723 6.94019 3.61158 6.94019 3.59637 6.97569L3.4645 7.37636L3.429 7.40172H3.00804C2.97253 7.40172 2.95732 7.44737 2.98775 7.46766L3.32756 7.71618L3.34278 7.75675L3.21091 8.15742C3.20077 8.19293 3.23627 8.21829 3.2667 8.198L3.60651 7.94948H3.64709L3.9869 8.198C4.01733 8.21829 4.05283 8.19293 4.04269 8.15742L3.91082 7.75675L3.93618 7.71618ZM7.13143 7.71618L7.47124 7.46766C7.50167 7.44737 7.48646 7.40172 7.45096 7.40172H7.02999L6.99449 7.37636L6.86262 6.97569C6.85248 6.94019 6.80683 6.94019 6.79162 6.97569L6.65975 7.37636L6.62425 7.40172H6.20329C6.16778 7.40172 6.15257 7.44737 6.183 7.46766L6.52281 7.71618L6.53803 7.75675L6.40616 8.15742C6.39602 8.19293 6.43152 8.21829 6.46195 8.198L6.80176 7.94948H6.84234L7.18215 8.198C7.21258 8.21829 7.24808 8.19293 7.23794 8.15742L7.10607 7.75675L7.13143 7.71618ZM10.3216 7.71618L10.6614 7.46766C10.6919 7.44737 10.6766 7.40172 10.6411 7.40172H10.2202L10.1847 7.37636L10.0528 6.97569C10.0427 6.94019 9.99701 6.94019 9.9818 6.97569L9.84993 7.37636L9.81443 7.40172H9.39346C9.35796 7.40172 9.34275 7.44737 9.37318 7.46766L9.71299 7.71618L9.7282 7.75675L9.59634 8.15742C9.58619 8.19293 9.6217 8.21829 9.65213 8.198L9.99194 7.94948H10.0325L10.3723 8.198C10.4028 8.21829 10.4383 8.19293 10.4281 8.15742L10.2962 7.75675L10.3216 7.71618ZM2.33348 11.8142L2.6733 11.5657C2.70373 11.5454 2.68851 11.4998 2.65301 11.4998H2.23205L2.19655 11.4744L2.06468 11.0737C2.05453 11.0382 2.00889 11.0382 1.99367 11.0737L1.8618 11.4744L1.8263 11.4998H1.40534C1.36984 11.4998 1.35462 11.5454 1.38505 11.5657L1.72487 11.8142L1.74008 11.8548L1.60821 12.2555C1.59807 12.291 1.63357 12.3163 1.664 12.296L2.00382 12.0475H2.04439L2.3842 12.296C2.41463 12.3163 2.45014 12.291 2.43999 12.2555L2.30813 11.8548L2.33348 11.8142ZM5.51859 11.8142L5.8584 11.5657C5.88883 11.5454 5.87362 11.4998 5.83812 11.4998H5.41715L5.38165 11.4744L5.24978 11.0737C5.23964 11.0382 5.19399 11.0382 5.17878 11.0737L5.04691 11.4744L5.01141 11.4998H4.59045C4.55494 11.4998 4.53973 11.5454 4.57016 11.5657L4.90997 11.8142L4.92519 11.8548L4.79332 12.2555C4.78318 12.291 4.81868 12.3163 4.84911 12.296L5.18892 12.0475H5.23964L5.57945 12.296C5.60988 12.3163 5.64539 12.291 5.63524 12.2555L5.50338 11.8548L5.51859 11.8142ZM8.7037 11.8142L9.04351 11.5657C9.07394 11.5454 9.05872 11.4998 9.02322 11.4998H8.60226L8.56676 11.4744L8.43489 11.0737C8.42475 11.0382 8.3791 11.0382 8.36388 11.0737L8.23202 11.4744L8.19651 11.4998H7.77555C7.74005 11.4998 7.72483 11.5454 7.75527 11.5657L8.09508 11.8142L8.11029 11.8548L7.97843 12.2555C7.96828 12.291 8.00378 12.3163 8.03422 12.296L8.37403 12.0475H8.4146L8.75441 12.296C8.78485 12.3163 8.82035 12.291 8.8102 12.2555L8.67834 11.8548L8.7037 11.8142ZM0.740931 10.455L1.08074 10.2064C1.11117 10.1862 1.09596 10.1405 1.06046 10.1405H0.639495L0.603992 10.1151L0.472125 9.71447C0.461981 9.67897 0.416335 9.67897 0.401119 9.71447L0.269252 10.1151L0.233749 10.1405H-0.187212C-0.222715 10.1405 -0.237931 10.1862 -0.2075 10.2064L0.132313 10.455L0.147528 10.4955L0.0156606 10.8962C0.00551692 10.9317 0.0410197 10.9571 0.0714507 10.9368L0.411263 10.6883H0.451837L0.79165 10.9368C0.822081 10.9571 0.857583 10.9317 0.84744 10.8962L0.715572 10.4955L0.740931 10.455ZM3.93618 10.455L4.27599 10.2064C4.30642 10.1862 4.29121 10.1405 4.25571 10.1405H3.83474L3.79924 10.1151L3.66737 9.71447C3.65723 9.67897 3.61158 9.67897 3.59637 9.71447L3.4645 10.1151L3.429 10.1405H3.00804C2.97253 10.1405 2.95732 10.1862 2.98775 10.2064L3.32756 10.455L3.34278 10.4955L3.21091 10.8962C3.20077 10.9317 3.23627 10.9571 3.2667 10.9368L3.60651 10.6883H3.64709L3.9869 10.9368C4.01733 10.9571 4.05283 10.9317 4.04269 10.8962L3.91082 10.4955L3.93618 10.455ZM7.13143 10.455L7.47124 10.2064C7.50167 10.1862 7.48646 10.1405 7.45096 10.1405H7.02999L6.99449 10.1151L6.86262 9.71955C6.85248 9.68404 6.80683 9.68404 6.79162 9.71955L6.65975 10.1202L6.62425 10.1456H6.20329C6.16778 10.1456 6.15257 10.1912 6.183 10.2115L6.52281 10.46L6.53803 10.5006L6.40616 10.9013C6.39602 10.9368 6.43152 10.9621 6.46195 10.9419L6.80176 10.6933H6.84234L7.18215 10.9419C7.21258 10.9621 7.24808 10.9368 7.23794 10.9013L7.10607 10.5006L7.13143 10.455ZM10.3216 10.455L10.6614 10.2064C10.6919 10.1862 10.6766 10.1405 10.6411 10.1405H10.2202L10.1847 10.1151L10.0579 9.71955C10.0477 9.68404 10.0021 9.68404 9.98687 9.71955L9.855 10.1202L9.8195 10.1456H9.39854C9.36303 10.1456 9.34782 10.1912 9.37825 10.2115L9.71806 10.46L9.73328 10.5006L9.60141 10.9013C9.59127 10.9368 9.62677 10.9621 9.6572 10.9419L9.99701 10.6933H10.0376L10.3774 10.9419C10.4078 10.9621 10.4433 10.9368 10.4332 10.9013L10.3013 10.5006L10.3216 10.455ZM0.740931 13.1937L1.08074 12.9452C1.11117 12.9249 1.09596 12.8793 1.06046 12.8793H0.639495L0.603992 12.8539L0.472125 12.4533C0.461981 12.4178 0.416335 12.4178 0.401119 12.4533L0.269252 12.8539L0.233749 12.8793H-0.187212C-0.222715 12.8793 -0.237931 12.9249 -0.2075 12.9452L0.132313 13.1937L0.147528 13.2343L0.0156606 13.635C0.00551692 13.6705 0.0410197 13.6959 0.0714507 13.6756L0.411263 13.427H0.451837L0.79165 13.6756C0.822081 13.6959 0.857583 13.6705 0.84744 13.635L0.715572 13.2343L0.740931 13.1937ZM3.93618 13.1937L4.27599 12.9452C4.30642 12.9249 4.29121 12.8793 4.25571 12.8793H3.83474L3.79924 12.8539L3.66737 12.4533C3.65723 12.4178 3.61158 12.4178 3.59637 12.4533L3.4645 12.8539L3.429 12.8793H3.00804C2.97253 12.8793 2.95732 12.9249 2.98775 12.9452L3.32756 13.1937L3.34278 13.2343L3.21091 13.635C3.20077 13.6705 3.23627 13.6959 3.2667 13.6756L3.60651 13.427H3.64709L3.9869 13.6756C4.01733 13.6959 4.05283 13.6705 4.04269 13.635L3.91082 13.2343L3.93618 13.1937ZM7.13143 13.1937L7.47124 12.9452C7.50167 12.9249 7.48646 12.8793 7.45096 12.8793H7.02999L6.99449 12.8539L6.86262 12.4583C6.85248 12.4228 6.80683 12.4228 6.79162 12.4583L6.65975 12.859L6.62425 12.8844H6.20329C6.16778 12.8844 6.15257 12.93 6.183 12.9503L6.52281 13.1988L6.53803 13.2394L6.40616 13.6401C6.39602 13.6756 6.43152 13.7009 6.46195 13.6806L6.80176 13.4321H6.84234L7.18215 13.6806C7.21258 13.7009 7.24808 13.6756 7.23794 13.6401L7.10607 13.2394L7.13143 13.1937ZM10.3216 13.1937L10.6614 12.9452C10.6919 12.9249 10.6766 12.8793 10.6411 12.8793H10.2202L10.1847 12.8539L10.0579 12.4583C10.0477 12.4228 10.0021 12.4228 9.98687 12.4583L9.855 12.859L9.8195 12.8844H9.39854C9.36303 12.8844 9.34782 12.93 9.37825 12.9503L9.71806 13.1988L9.73328 13.2394L9.60141 13.6401C9.59127 13.6756 9.62677 13.7009 9.6572 13.6806L9.99701 13.4321H10.0376L10.3774 13.6806C10.4078 13.7009 10.4433 13.6756 10.4332 13.6401L10.3013 13.2394L10.3216 13.1937ZM11.8939 3.59785L12.2337 3.34933C12.2641 3.32905 12.2489 3.2834 12.2134 3.2834H11.7924L11.7569 3.25804L11.6251 2.85737C11.6149 2.82186 11.5693 2.82186 11.5541 2.85737L11.4222 3.25804L11.3867 3.2834H10.9657C10.9302 3.2834 10.915 3.32905 10.9454 3.34933L11.2853 3.59785L11.3005 3.63843L11.1686 4.0391C11.1585 4.0746 11.194 4.09996 11.2244 4.07968L11.5642 3.83116H11.6048L11.9446 4.07968C11.975 4.09996 12.0105 4.0746 12.0004 4.0391L11.8685 3.63843L11.8939 3.59785ZM13.5169 2.24368L13.8567 1.99516C13.8871 1.97487 13.8719 1.92922 13.8364 1.92922H13.4154L13.3799 1.90386L13.2481 1.50319C13.2379 1.46769 13.1923 1.46769 13.177 1.50319L13.0452 1.90386L13.0097 1.92922H12.5887C12.5532 1.92922 12.538 1.97487 12.5684 1.99516L12.9082 2.24368L12.9235 2.28425L12.7916 2.68492C12.7814 2.72043 12.8169 2.74579 12.8474 2.7255L13.1872 2.47698H13.2278L13.5676 2.7255C13.598 2.74579 13.6335 2.72043 13.6234 2.68492L13.4915 2.28425L13.5169 2.24368ZM11.8939 6.33664L12.2337 6.08812C12.2641 6.06783 12.2489 6.02219 12.2134 6.02219H11.7924L11.7569 5.99683L11.6251 5.59615C11.6149 5.56065 11.5693 5.56065 11.5541 5.59615L11.4222 5.99683L11.3867 6.02219H10.9657C10.9302 6.02219 10.915 6.06783 10.9454 6.08812L11.2853 6.33664L11.3005 6.37721L11.1686 6.77789C11.1585 6.81339 11.194 6.83875 11.2244 6.81846L11.5642 6.56994H11.6048L11.9446 6.81846C11.975 6.83875 12.0105 6.81339 12.0004 6.77789L11.8685 6.37721L11.8939 6.33664ZM13.5169 4.98246L13.8567 4.73394C13.8871 4.71365 13.8719 4.66801 13.8364 4.66801H13.4154L13.3799 4.64265L13.2481 4.24198C13.2379 4.20647 13.1923 4.20647 13.177 4.24198L13.0452 4.64265L13.0097 4.66801H12.5887C12.5532 4.66801 12.538 4.71365 12.5684 4.73394L12.9082 4.98246L12.9235 5.02304L12.7916 5.42371C12.7814 5.45921 12.8169 5.48457 12.8474 5.46428L13.1872 5.21577H13.2278L13.5676 5.46428C13.598 5.48457 13.6335 5.45921 13.6234 5.42371L13.4915 5.02304L13.5169 4.98246ZM11.8939 9.07542L12.2337 8.8269C12.2641 8.80662 12.2489 8.76097 12.2134 8.76097H11.7924L11.7569 8.73561L11.6251 8.33494C11.6149 8.29943 11.5693 8.29943 11.5541 8.33494L11.4222 8.73561L11.3867 8.76097H10.9657C10.9302 8.76097 10.915 8.80662 10.9454 8.8269L11.2853 9.07542L11.3005 9.116L11.1686 9.51667C11.1585 9.55218 11.194 9.57753 11.2244 9.55725L11.5642 9.30873H11.6048L11.9446 9.55725C11.975 9.57753 12.0105 9.55218 12.0004 9.51667L11.8685 9.116L11.8939 9.07542ZM13.5169 7.71618L13.8567 7.46766C13.8871 7.44737 13.8719 7.40172 13.8364 7.40172H13.4154L13.3799 7.37636L13.2481 6.97569C13.2379 6.94019 13.1923 6.94019 13.177 6.97569L13.0452 7.37636L13.0097 7.40172H12.5887C12.5532 7.40172 12.538 7.44737 12.5684 7.46766L12.9082 7.71618L12.9235 7.75675L12.7916 8.15742C12.7814 8.19293 12.8169 8.21829 12.8474 8.198L13.1872 7.94948H13.2278L13.5676 8.198C13.598 8.21829 13.6335 8.19293 13.6234 8.15742L13.4915 7.75675L13.5169 7.71618ZM11.8939 11.8142L12.2337 11.5657C12.2641 11.5454 12.2489 11.4998 12.2134 11.4998H11.7924L11.7569 11.4744L11.6251 11.0737C11.6149 11.0382 11.5693 11.0382 11.5541 11.0737L11.4222 11.4744L11.3867 11.4998H10.9657C10.9302 11.4998 10.915 11.5454 10.9454 11.5657L11.2853 11.8142L11.3005 11.8548L11.1686 12.2555C11.1585 12.291 11.194 12.3163 11.2244 12.296L11.5642 12.0475H11.6048L11.9446 12.296C11.975 12.3163 12.0105 12.291 12.0004 12.2555L11.8685 11.8548L11.8939 11.8142ZM13.5169 10.455L13.8567 10.2064C13.8871 10.1862 13.8719 10.1405 13.8364 10.1405H13.4154L13.3799 10.1151L13.2481 9.71447C13.2379 9.67897 13.1923 9.67897 13.177 9.71447L13.0452 10.1151L13.0097 10.1405H12.5887C12.5532 10.1405 12.538 10.1862 12.5684 10.2064L12.9082 10.455L12.9235 10.4955L12.7916 10.8962C12.7814 10.9317 12.8169 10.9571 12.8474 10.9368L13.1872 10.6883H13.2278L13.5676 10.9368C13.598 10.9571 13.6335 10.9317 13.6234 10.8962L13.4915 10.4955L13.5169 10.455ZM13.5169 13.1937L13.8567 12.9452C13.8871 12.9249 13.8719 12.8793 13.8364 12.8793H13.4154L13.3799 12.8539L13.2481 12.4533C13.2379 12.4178 13.1923 12.4178 13.177 12.4533L13.0452 12.8539L13.0097 12.8793H12.5887C12.5532 12.8793 12.538 12.9249 12.5684 12.9452L12.9082 13.1937L12.9235 13.2343L12.7916 13.635C12.7814 13.6705 12.8169 13.6959 12.8474 13.6756L13.1872 13.427H13.2278L13.5676 13.6756C13.598 13.6959 13.6335 13.6705 13.6234 13.635L13.4915 13.2343L13.5169 13.1937Z" fill="#F8F7F7"/>
</g>
</g>
<defs>
<clipPath id="clip0_177_2835">
<rect width="25.9677" height="25.9677" fill="white" transform="translate(0.776367 0.589844)"/>
</clipPath>
</defs>
</svg>
