<svg width="53" height="54" viewBox="0 0 53 54" fill="none" xmlns="http://www.w3.org/2000/svg">
<path d="M52.673 11.4022C52.2556 10.4555 51.4958 9.72936 50.5312 9.35437L29.6114 1.23073C27.6193 0.454877 25.3708 1.44669 24.597 3.4369L23.1209 7.2323C22.7459 8.19629 22.769 9.24891 23.1865 10.1957C23.5687 11.0622 24.2484 11.732 25.099 12.1288L20.0078 25.2232C19.1021 27.5519 16.4693 28.7106 14.1387 27.8043L13.8571 27.6944C8.88437 25.7638 3.26838 28.2337 1.33652 33.2031L0.66212 34.9362C-0.27405 37.3431 -0.215693 39.9705 0.825804 42.3337C1.8673 44.6968 3.76733 46.5147 6.17549 47.4502L20.8061 53.1324C22.3292 53.724 23.8967 54.003 25.4396 54.003C30.5799 54.003 35.4421 50.8945 37.4124 45.8258L47.224 20.5924C47.3651 20.6077 47.5062 20.6315 47.6467 20.6315C49.1989 20.6315 50.667 19.6927 51.262 18.1617L52.7386 14.3656C53.1136 13.4016 53.0904 12.3488 52.673 11.4022ZM46.2315 9.10658L42.9343 17.6615L40.6871 16.7883L43.9837 8.2342L46.2315 9.10658ZM42.7487 7.75441L39.4521 16.3085L37.2056 15.436L40.5015 6.8819L42.7487 7.75441ZM39.2667 6.40224L35.9708 14.9572L33.7242 14.0846L37.0202 5.52973L39.2667 6.40224ZM35.7846 5.04942L32.4886 13.6043L30.2421 12.7318L33.5387 4.17769L35.7846 5.04942ZM30.0565 2.82538L32.3031 3.69789L29.0065 12.252L26.76 11.3795L30.0565 2.82538ZM24.3989 9.66181C24.1246 9.03968 24.1087 8.34742 24.3558 7.71339L25.8318 3.91799C26.224 2.91027 27.1899 2.29357 28.2115 2.29357C28.4103 2.29357 28.6109 2.3267 28.8103 2.37509L25.5356 10.8729C25.0328 10.6045 24.6314 10.1897 24.3989 9.66181ZM36.1787 45.3473C33.8805 51.2561 27.2025 54.1969 21.2864 51.8981L20.2224 51.4847C22.893 45.1128 30.1003 41.9262 36.6127 44.231L36.1787 45.3473ZM37.0964 42.9862C29.8996 40.4171 21.9139 43.9462 18.9789 51.0018L6.6558 46.2159C4.57682 45.409 2.93713 43.8409 2.03823 41.8009C1.13984 39.761 1.08886 37.4941 1.89641 35.4171L2.57082 33.684C4.23897 29.3963 9.08454 27.2644 13.3775 28.9299L13.659 29.0399C16.6708 30.2086 20.0727 28.712 21.2427 25.7036L26.3255 12.6318L45.9374 20.2499L37.0964 42.9862ZM46.4158 19.0129L44.1686 18.1404L47.4658 9.58547L49.7123 10.458L46.4158 19.0129ZM51.5043 13.8872L50.0277 17.6834C49.6448 18.6665 48.7165 19.2767 47.7228 19.3058L50.8796 11.1134C51.1234 11.3439 51.3215 11.6215 51.4612 11.9375C51.7356 12.5609 51.7508 13.2532 51.5043 13.8872Z" fill="black"/>
<path d="M28.4593 15.6724C28.1168 15.5452 27.7346 15.7181 27.6074 16.0612L26.5852 18.8027C26.4567 19.1452 26.6302 19.5268 26.9733 19.6546C27.0496 19.6831 27.1277 19.6964 27.2052 19.6964C27.4736 19.6964 27.7265 19.5321 27.8259 19.2658L28.8481 16.5243C28.9761 16.1812 28.8026 15.7996 28.4593 15.6724Z" fill="black"/>
<path d="M31.2288 16.7064C30.8869 16.5818 30.504 16.7527 30.3762 17.096L29.3546 19.8374C29.2261 20.1805 29.4003 20.5621 29.7434 20.69C29.8196 20.7178 29.8978 20.731 29.9753 20.731C30.2437 20.731 30.4966 20.5666 30.5968 20.3003L31.6184 17.5589C31.7456 17.2158 31.5719 16.8343 31.2288 16.7064Z" fill="black"/>
<path d="M33.9983 17.7405C33.6564 17.6139 33.2736 17.7862 33.1464 18.1293L32.1241 20.8708C31.9957 21.2133 32.1698 21.5949 32.5123 21.7227C32.5885 21.7512 32.6667 21.7645 32.7442 21.7645C33.0126 21.7645 33.2655 21.6002 33.3649 21.3339L34.3871 18.5924C34.515 18.2493 34.3414 17.8677 33.9983 17.7405Z" fill="black"/>
<path d="M36.7679 18.772C36.4247 18.6448 36.0432 18.8177 35.916 19.1608L34.8938 21.9023C34.7653 22.2455 34.9388 22.627 35.2819 22.7542C35.3581 22.7827 35.4363 22.796 35.5138 22.796C35.7822 22.796 36.0351 22.6317 36.1345 22.3654L37.1567 19.6239C37.2847 19.2808 37.1111 18.8992 36.7679 18.772Z" fill="black"/>
<path d="M39.5377 19.8015C39.1952 19.6737 38.813 19.8472 38.6858 20.1904L37.6635 22.9319C37.5344 23.2744 37.7086 23.6566 38.0517 23.7838C38.1279 23.8123 38.2061 23.8256 38.2836 23.8256C38.552 23.8256 38.8049 23.6613 38.9043 23.395L39.9265 20.6535C40.0544 20.3103 39.8808 19.9287 39.5377 19.8015Z" fill="black"/>
<path d="M42.3026 20.8353C41.9595 20.7107 41.5779 20.8816 41.4501 21.2249L40.4285 23.9664C40.3006 24.3089 40.4748 24.6905 40.8173 24.819C40.8935 24.8468 40.9717 24.86 41.0492 24.86C41.3176 24.86 41.5705 24.6957 41.6707 24.4294L42.6922 21.6879C42.8194 21.3447 42.6459 20.9632 42.3026 20.8353Z" fill="black"/>
<circle cx="11.4369" cy="34.4447" r="1.60716" transform="rotate(25.3307 11.4369 34.4447)" fill="black"/>
<circle cx="15.7963" cy="36.5072" r="1.60716" transform="rotate(25.3307 15.7963 36.5072)" fill="black"/>
<circle cx="20.1517" cy="38.5697" r="1.60716" transform="rotate(25.3307 20.1517 38.5697)" fill="black"/>
<circle cx="9.3744" cy="38.8002" r="1.60716" transform="rotate(25.3307 9.3744 38.8002)" fill="black"/>
<circle cx="13.7338" cy="40.8627" r="1.60716" transform="rotate(25.3307 13.7338 40.8627)" fill="black"/>
<circle cx="18.0892" cy="42.9252" r="1.60716" transform="rotate(25.3307 18.0892 42.9252)" fill="black"/>
</svg>
