<svg width="220" height="48" viewBox="0 0 220 48" fill="none" xmlns="http://www.w3.org/2000/svg">
<path d="M10.6572 29.3537V32.4127C10.6572 36.1776 8.89024 38.2312 5.29644 38.2312H3.59795V47.0745H-0.00012207V23.5352H5.29644C8.89024 23.5352 10.6572 25.5888 10.6572 29.3537ZM3.59795 26.8979V34.8684H5.29644C6.43876 34.8684 7.05911 34.3294 7.05911 32.648V29.1184C7.05911 27.437 6.43876 26.8979 5.29644 26.8979H3.59795Z" fill="black"/>
<path d="M18.371 33.4523H23.3082V36.8151H18.371V43.7117H24.5831V47.0745H14.7772V23.5352H24.5831V26.8979H18.371V33.4523Z" fill="black"/>
<path d="M32.5237 30.0254H32.4595V47.0745H29.2251V23.5352H33.7345L37.3625 37.6237H37.4266V23.5352H40.6311V47.0745H36.9389L32.5237 30.0254Z" fill="black"/>
<path d="M51.0574 34.0643H56.093V41.3203C56.093 44.9826 54.2619 47.0704 50.7323 47.0704C47.2026 47.0704 45.3715 44.9783 45.3715 41.3203V29.4223C45.3715 25.7601 47.2026 23.668 50.7323 23.668C54.2619 23.668 56.093 25.7601 56.093 29.4223V31.6428H52.6917V29.1913C52.6917 27.557 51.973 26.9366 50.8264 26.9366C49.6798 26.9366 48.9653 27.557 48.9653 29.1913V41.5471C48.9653 43.1814 49.6841 43.7675 50.8264 43.7675C51.9687 43.7675 52.6917 43.1814 52.6917 41.5471V37.3287H51.0574V34.06V34.0643Z" fill="black"/>
<path d="M64.2988 23.5352V41.4613C64.2988 43.1213 65.0176 43.7203 66.1599 43.7203C67.3022 43.7203 68.021 43.1213 68.021 41.4613V23.5352H71.418V41.2303C71.418 44.9482 69.5868 47.0745 66.0572 47.0745C62.5276 47.0745 60.6965 44.9482 60.6965 41.2303V23.5352H64.2945H64.2988Z" fill="black"/>
<path d="M79.9275 23.5352H76.3295V47.0745H79.9275V23.5352Z" fill="black"/>
<path d="M88.2617 30.0254H88.1933V47.0745H84.9589V23.5352H89.4682L93.0962 37.6237H93.1604V23.5352H96.3649V47.0745H92.6727L88.2617 30.0254Z" fill="black"/>
<path d="M112.169 23.5648H105.94V47.0699H112.169C115.938 47.0699 118.099 44.7682 118.099 40.7509V29.8796C118.099 25.8623 115.938 23.5605 112.169 23.5605M112.802 29.7256V40.9049C112.802 41.9873 112.511 41.9873 112.109 41.9873H111.232V28.6432H112.109C112.511 28.6432 112.802 28.6432 112.802 29.7256Z" fill="black"/>
<path d="M126.232 23.5352C122.407 23.5352 120.212 25.8283 120.212 29.8243V40.7811C120.212 44.777 122.407 47.0702 126.232 47.0702C130.057 47.0702 132.251 44.777 132.251 40.7811V29.8243C132.251 25.8283 130.057 23.5352 126.232 23.5352ZM126.955 29.6147V40.995C126.955 42.0817 126.617 42.0817 126.232 42.0817C125.847 42.0817 125.509 42.0817 125.509 40.995V29.6147C125.509 28.528 125.843 28.528 126.232 28.528C126.621 28.528 126.955 28.528 126.955 29.6147Z" fill="black"/>
<path d="M136.8 40.9137C136.8 41.9191 136.504 41.9662 135.893 41.9662C135.555 41.9662 135.165 41.9662 134.832 41.9405L133.758 41.8507V46.9076L134.639 47.006C135.234 47.0745 135.726 47.0745 136.346 47.0745C140.051 47.0745 142.096 44.8027 142.096 40.6741V23.5352H136.8V40.918V40.9137Z" fill="black"/>
<path d="M150.379 23.5352C146.554 23.5352 144.359 25.8283 144.359 29.8243V40.7811C144.359 44.777 146.554 47.0702 150.379 47.0702C154.204 47.0702 156.398 44.777 156.398 40.7811V29.8243C156.398 25.8283 154.204 23.5352 150.379 23.5352ZM151.102 29.6147V40.995C151.102 42.0817 150.764 42.0817 150.379 42.0817C149.994 42.0817 149.656 42.0817 149.656 40.995V29.6147C149.656 28.528 149.994 28.528 150.379 28.528C150.764 28.528 151.102 28.528 151.102 29.6147Z" fill="black"/>
<path d="M162.029 25.8415C162.029 25.2939 161.652 24.9688 161.015 24.9688H160.073V27.4587H160.557V26.7485H161.015C161.045 26.7485 161.074 26.7485 161.104 26.7485L161.601 27.463H162.191L161.588 26.6245C161.866 26.4747 162.024 26.2009 162.024 25.8458M160.553 25.4522H161.01C161.541 25.4522 161.541 25.7474 161.541 25.8458C161.541 26.2009 161.254 26.2736 161.01 26.2736H160.553V25.4522Z" fill="black"/>
<path d="M160.976 23.5352C159.474 23.5352 158.251 24.763 158.251 26.2733C158.251 27.7835 159.466 28.9986 160.959 28.9986C162.452 28.9986 163.693 27.7707 163.693 26.2604C163.693 24.7502 162.474 23.5352 160.976 23.5352ZM160.959 28.4552C159.74 28.4552 158.786 27.4969 158.786 26.2733C158.786 25.0497 159.748 24.0785 160.976 24.0785C162.204 24.0785 163.167 25.0368 163.167 26.2604C163.167 27.484 162.2 28.4552 160.963 28.4552" fill="black"/>
<path d="M182.021 25.0239C185.525 25.0239 188.464 22.3286 189.282 18.6877C190.141 18.6877 191.006 18.7091 191.866 18.7605C196.743 19.0557 201.252 21.182 204.636 26.4101C205.09 20.66 203.468 16.647 200.093 13.3612C194.09 7.51702 186.342 6.00677 178.47 5.55754C167.047 4.90296 155.598 4.74894 144.363 0C144.813 7.35016 148.603 10.944 154.315 14.5848C160.411 18.4738 167.74 18.5423 174.817 18.9016C175.698 22.4355 178.59 25.0239 182.025 25.0239" fill="black"/>
<path d="M185.303 28.0613C175.356 31.3641 167.71 38.3892 163.363 47.0699C168.814 41.8289 175.39 37.5891 182.924 34.7654C195.314 30.1234 208.282 30.0678 220 33.7215C210.391 26.5339 197.556 23.9883 185.298 28.057" fill="black"/>
</svg>
