<svg width="1422" height="131" viewBox="0 0 1422 131" fill="none" xmlns="http://www.w3.org/2000/svg">
<path d="M292.897 91.6157V101.938H291.091V91.6157H284.255V89.9556H294.392V91.6157H292.897ZM298.444 89.9556V96.2544H296.647V89.9556H298.444ZM309.226 94.9165V101.938H307.419V94.897C307.419 93.7121 307.178 92.869 306.696 92.3677C306.221 91.8664 305.384 91.6157 304.187 91.6157H300.524V89.9556H304.206C305.404 89.9556 306.371 90.1248 307.106 90.4634C307.842 90.7954 308.379 91.326 308.718 92.0552C309.056 92.7778 309.226 93.7316 309.226 94.9165ZM314.323 89.9556V96.2544H312.526V89.9556H314.323ZM287.741 118.917V125.938H285.935V118.897C285.935 117.712 285.694 116.869 285.212 116.368C284.737 115.866 283.9 115.616 282.702 115.616H279.04V113.956H282.722C283.92 113.956 284.886 114.125 285.622 114.463C286.358 114.795 286.895 115.326 287.233 116.055C287.572 116.778 287.741 117.732 287.741 118.917ZM292.839 113.956V120.254H291.042V113.956H292.839ZM304.294 118.897C304.294 117.712 304.053 116.869 303.571 116.368C303.096 115.866 302.259 115.616 301.062 115.616H298.034V125.938H296.237V113.956H301.081C302.878 113.956 304.164 114.34 304.938 115.108C305.713 115.876 306.101 117.146 306.101 118.917V125.938H304.294V118.897ZM315.3 113.76C316.875 113.76 318.024 114.242 318.747 115.206C319.476 116.163 319.841 117.686 319.841 119.776V125.938H313.962V124.278H318.024V120C318.024 118.405 317.819 117.247 317.409 116.524C316.999 115.801 316.302 115.44 315.319 115.44C314.44 115.44 313.718 115.837 313.151 116.631C312.578 117.439 312.054 118.842 311.579 120.84L310.358 125.938H308.425L309.763 120.694C309.912 120.082 310.065 119.528 310.222 119.034C310.378 118.539 310.531 118.099 310.681 117.715L308.239 113.956H310.358L311.579 115.938C312.087 115.17 312.631 114.616 313.21 114.278C313.789 113.933 314.486 113.76 315.3 113.76Z" fill="black"/>
<path d="M278.469 54.5093C278.469 55.0595 278.915 55.5054 279.465 55.5054C280.015 55.5054 280.461 55.0595 280.461 54.5093V52.5171C280.461 51.9668 280.015 51.521 279.465 51.521C278.915 51.521 278.469 51.9668 278.469 52.5171V54.5093Z" fill="black" stroke="white" stroke-width="0.5"/>
<path d="M279.465 49.2632C280.015 49.2632 280.461 48.8173 280.461 48.2671V46.2749C280.461 45.7247 280.015 45.2788 279.465 45.2788C278.915 45.2788 278.469 45.7247 278.469 46.2749V48.2671C278.469 48.8173 278.915 49.2632 279.465 49.2632Z" fill="black" stroke="white" stroke-width="0.5"/>
<path d="M310.485 66.9849C311.299 66.9849 311.961 66.3231 311.961 65.5094V64.8599C311.961 64.3096 311.515 63.8638 310.965 63.8638C310.415 63.8638 309.969 64.3096 309.969 64.8599V64.9927H309.896C309.346 64.9927 308.9 65.4385 308.9 65.9888C308.9 66.539 309.346 66.9849 309.896 66.9849H310.485Z" fill="black" stroke="white" stroke-width="0.5"/>
<path d="M305.646 66.9849C306.196 66.9849 306.642 66.539 306.642 65.9888C306.642 65.4385 306.196 64.9927 305.646 64.9927H303.653C303.103 64.9927 302.657 65.4385 302.657 65.9888C302.657 66.539 303.103 66.9849 303.653 66.9849H305.646Z" fill="black" stroke="white" stroke-width="0.5"/>
<path d="M299.403 66.9849C299.953 66.9849 300.399 66.539 300.399 65.9888C300.399 65.4385 299.953 64.9927 299.403 64.9927H297.411C296.86 64.9927 296.415 65.4385 296.415 65.9888C296.415 66.539 296.861 66.9849 297.411 66.9849H299.403Z" fill="black" stroke="white" stroke-width="0.5"/>
<path d="M286.918 66.9849C287.468 66.9849 287.914 66.539 287.914 65.9888C287.914 65.4385 287.468 64.9927 286.918 64.9927H284.926C284.376 64.9927 283.93 65.4385 283.93 65.9888C283.93 66.539 284.376 66.9849 284.926 66.9849H286.918Z" fill="black" stroke="white" stroke-width="0.5"/>
<path d="M278.469 60.7515C278.469 61.3017 278.915 61.7476 279.465 61.7476C280.015 61.7476 280.461 61.3017 280.461 60.7515V58.7593C280.461 58.209 280.015 57.7632 279.465 57.7632C278.915 57.7632 278.469 58.209 278.469 58.7593V60.7515Z" fill="black" stroke="white" stroke-width="0.5"/>
<path d="M293.161 66.9849C293.711 66.9849 294.157 66.539 294.157 65.9888C294.157 65.4385 293.711 64.9927 293.161 64.9927H291.168C290.618 64.9927 290.172 65.4385 290.172 65.9888C290.172 66.539 290.618 66.9849 291.168 66.9849H293.161Z" fill="black" stroke="white" stroke-width="0.5"/>
<path d="M278.469 65.5095C278.469 66.3231 279.131 66.985 279.945 66.985H280.676C281.226 66.985 281.672 66.5392 281.672 65.9889C281.672 65.4387 281.226 64.9928 280.676 64.9928H280.461C280.457 64.4467 280.013 64.0054 279.465 64.0054C278.915 64.0054 278.469 64.4512 278.469 65.0015L278.469 65.5095Z" fill="black" stroke="white" stroke-width="0.5"/>
<path d="M329.676 33.2804L327.328 30.9326C326.939 30.5437 326.308 30.5437 325.919 30.9326C325.53 31.3217 325.53 31.9523 325.919 32.3413L328.267 34.689C329.619 36.0412 329.619 38.2412 328.267 39.5933L306.672 61.1878C305.32 62.5401 303.12 62.5401 301.767 61.1878L273.054 32.4755C272.387 31.8089 272.017 30.886 272.039 29.9435L272.526 8.83576C272.569 6.97931 274.056 5.49168 275.913 5.44891L278.05 5.39964C278.6 5.38689 279.035 4.93081 279.023 4.38083C279.01 3.83869 278.567 3.40771 278.027 3.40771C278.019 3.40771 278.012 3.40785 278.004 3.40798L275.867 3.45725C272.944 3.52472 270.602 5.867 270.534 8.78994L270.047 29.8977C270.013 31.3816 270.595 32.8346 271.645 33.8843L274.485 36.7239V57.1175C274.485 57.6677 274.931 58.1136 275.481 58.1136C276.031 58.1136 276.477 57.6677 276.477 57.1175V38.7161L278.469 40.7081V42.0247C278.469 42.5749 278.915 43.0208 279.465 43.0208C279.822 43.0208 280.136 42.8327 280.311 42.5504L300.358 62.5967C301.39 63.6278 302.761 64.1957 304.219 64.1957C305.678 64.1957 307.049 63.6278 308.08 62.5967L309.973 60.7041C310.021 61.21 310.446 61.6059 310.965 61.6059C311.515 61.6059 311.961 61.16 311.961 60.6098V58.7164L313.953 56.7244V65.5092C313.953 67.4215 312.397 68.977 310.485 68.977H279.945C278.033 68.977 276.477 67.4213 276.477 65.5092V61.313C276.477 60.7628 276.031 60.3169 275.481 60.3169C274.931 60.3169 274.485 60.7628 274.485 61.313V65.5092C274.485 68.5198 276.934 70.9692 279.945 70.9692H310.485C313.496 70.9692 315.945 68.5198 315.945 65.5092V54.7322L329.676 41.002C331.805 38.8732 331.805 35.4093 329.676 33.2804Z" fill="black" stroke="white" stroke-width="0.5"/>
<path d="M282.276 5.30189C282.284 5.30189 282.292 5.30175 282.3 5.30162L297.021 4.96202C297.967 4.93997 298.887 5.31039 299.554 5.97697L322.916 29.3387C323.111 29.5331 323.366 29.6303 323.621 29.6303C323.876 29.6303 324.131 29.5331 324.325 29.3387C324.714 28.9496 324.714 28.319 324.325 27.9299L300.962 4.56823C299.913 3.51875 298.456 2.93849 296.976 2.9705L282.254 3.30996C281.704 3.32271 281.268 3.77879 281.281 4.32877C281.293 4.87091 281.737 5.30189 282.276 5.30189Z" fill="black" stroke="white" stroke-width="0.5"/>
<path d="M307.677 19.3227C307.932 19.3227 308.187 19.2255 308.382 19.031C308.771 18.6419 308.771 18.0113 308.382 17.6223L306.973 16.2135C306.584 15.8247 305.953 15.8247 305.564 16.2135C305.175 16.6027 305.175 17.2333 305.564 17.6223L306.973 19.0309C307.168 19.2253 307.423 19.3227 307.677 19.3227Z" fill="black" stroke="white" stroke-width="0.5"/>
<path d="M326.038 35.2779L324.629 33.8693C324.24 33.4804 323.61 33.4804 323.221 33.8693C322.832 34.2584 322.832 34.889 323.221 35.278L324.629 36.6866C324.824 36.8811 325.079 36.9783 325.334 36.9783C325.589 36.9783 325.844 36.8811 326.038 36.6866C326.427 36.2976 326.427 35.667 326.038 35.2779Z" fill="black" stroke="white" stroke-width="0.5"/>
<path d="M317.21 26.4498L315.801 25.0412C315.412 24.6523 314.782 24.6523 314.392 25.0412C314.003 25.4303 314.003 26.0609 314.392 26.4499L315.801 27.8585C315.996 28.053 316.251 28.1502 316.506 28.1502C316.761 28.1502 317.016 28.053 317.21 27.8585C317.599 27.4695 317.599 26.8389 317.21 26.4498Z" fill="black" stroke="white" stroke-width="0.5"/>
<path d="M312.091 23.7366C312.346 23.7366 312.601 23.6394 312.796 23.4449C313.185 23.0558 313.185 22.4252 312.796 22.0362L311.387 20.6276C310.998 20.2389 310.368 20.2386 309.978 20.6276C309.589 21.0167 309.589 21.6473 309.978 22.0363L311.387 23.4449C311.582 23.6394 311.836 23.7366 312.091 23.7366Z" fill="black" stroke="white" stroke-width="0.5"/>
<path d="M321.624 30.8638L320.215 29.4552C319.826 29.0664 319.196 29.0664 318.806 29.4552C318.417 29.8444 318.417 30.475 318.806 30.864L320.215 32.2726C320.41 32.467 320.665 32.5642 320.92 32.5642C321.174 32.5642 321.429 32.467 321.624 32.2726C322.013 31.8836 322.013 31.253 321.624 30.8638Z" fill="black" stroke="white" stroke-width="0.5"/>
<path d="M323.797 38.4289L322.388 39.8375C321.999 40.2266 321.999 40.8572 322.388 41.2462C322.583 41.4406 322.838 41.5379 323.092 41.5379C323.347 41.5379 323.602 41.4406 323.797 41.2462L325.206 39.8376C325.595 39.4485 325.595 38.8179 325.206 38.4289C324.817 38.04 324.186 38.04 323.797 38.4289Z" fill="black" stroke="white" stroke-width="0.5"/>
<path d="M319.383 42.8424L317.974 44.251C317.585 44.6402 317.585 45.2708 317.974 45.6598C318.169 45.8542 318.424 45.9514 318.678 45.9514C318.933 45.9514 319.188 45.8542 319.383 45.6598L320.792 44.2512C321.181 43.862 321.181 43.2314 320.792 42.8424C320.402 42.4536 319.772 42.4536 319.383 42.8424Z" fill="black" stroke="white" stroke-width="0.5"/>
<path d="M310.555 51.6701L309.146 53.0788C308.757 53.468 308.757 54.0985 309.146 54.4876C309.34 54.682 309.595 54.7792 309.85 54.7792C310.105 54.7792 310.36 54.682 310.555 54.4876L311.964 53.0788C312.353 52.6897 312.353 52.0591 311.964 51.6701C311.574 51.2813 310.944 51.2811 310.555 51.6701Z" fill="black" stroke="white" stroke-width="0.5"/>
<path d="M304.732 58.9015C304.926 59.0959 305.181 59.1931 305.436 59.1931C305.691 59.1931 305.946 59.0959 306.141 58.9015L307.549 57.4929C307.938 57.1037 307.938 56.4731 307.549 56.0841C307.16 55.6953 306.53 55.6953 306.14 56.0841L304.732 57.4927C304.343 57.8819 304.343 58.5125 304.732 58.9015Z" fill="black" stroke="white" stroke-width="0.5"/>
<path d="M314.264 50.3655C314.519 50.3655 314.774 50.2683 314.969 50.0738L316.378 48.6652C316.767 48.2761 316.767 47.6455 316.378 47.2565C315.989 46.8678 315.358 46.8675 314.969 47.2565L313.56 48.6651C313.171 49.0542 313.171 49.6848 313.56 50.0738C313.755 50.2682 314.01 50.3655 314.264 50.3655Z" fill="black" stroke="white" stroke-width="0.5"/>
<path d="M286.931 42.1262C286.542 42.5154 286.542 43.146 286.931 43.535L288.339 44.9436C288.534 45.138 288.789 45.2352 289.044 45.2352C289.299 45.2352 289.554 45.138 289.748 44.9436C290.137 44.5544 290.137 43.9238 289.748 43.5348L288.34 42.1262C287.95 41.7371 287.32 41.7374 286.931 42.1262Z" fill="black" stroke="white" stroke-width="0.5"/>
<path d="M282.517 37.7121C282.128 38.1012 282.128 38.7318 282.517 39.1208L283.925 40.5294C284.12 40.7239 284.375 40.8211 284.63 40.8211C284.885 40.8211 285.14 40.7239 285.334 40.5294C285.723 40.1403 285.723 39.5097 285.334 39.1207L283.926 37.7121C283.536 37.3232 282.906 37.3232 282.517 37.7121Z" fill="black" stroke="white" stroke-width="0.5"/>
<path d="M274.462 29.6583C274.073 30.0474 274.073 30.678 274.462 31.067L275.097 31.7018C275.292 31.8962 275.547 31.9934 275.802 31.9934C276.056 31.9934 276.311 31.8962 276.506 31.7018C276.895 31.3126 276.895 30.682 276.506 30.293L275.871 29.6583C275.482 29.2694 274.851 29.2696 274.462 29.6583Z" fill="black" stroke="white" stroke-width="0.5"/>
<path d="M299.554 8.79412L298.145 7.38551C297.756 6.99637 297.125 6.99663 296.736 7.38551C296.347 7.77465 296.347 8.40524 296.736 8.79425L298.145 10.2029C298.339 10.3973 298.594 10.4945 298.849 10.4945C299.104 10.4945 299.359 10.3973 299.554 10.2029C299.943 9.81385 299.943 9.18326 299.554 8.79412Z" fill="black" stroke="white" stroke-width="0.5"/>
<path d="M278.103 33.2982C277.714 33.6872 277.714 34.3179 278.103 34.7068L279.512 36.1154C279.706 36.3098 279.961 36.407 280.216 36.407C280.471 36.407 280.726 36.3098 280.92 36.1153C281.309 35.7262 281.309 35.0955 280.92 34.7066L279.511 33.298C279.122 32.9092 278.492 32.909 278.103 33.2982Z" fill="black" stroke="white" stroke-width="0.5"/>
<path d="M303.968 13.2081L302.559 11.7995C302.17 11.4106 301.539 11.4106 301.15 11.7995C300.761 12.1886 300.761 12.8192 301.15 13.2082L302.559 14.6168C302.753 14.8113 303.008 14.9085 303.263 14.9085C303.518 14.9085 303.773 14.8113 303.968 14.6168C304.357 14.2277 304.357 13.5971 303.968 13.2081Z" fill="black" stroke="white" stroke-width="0.5"/>
<path d="M291.345 46.5398C290.956 46.9289 290.956 47.5595 291.345 47.9485L292.753 49.3571C292.948 49.5515 293.203 49.6488 293.458 49.6488C293.713 49.6488 293.968 49.5515 294.162 49.3571C294.551 48.968 294.551 48.3374 294.162 47.9484L292.754 46.5398C292.364 46.1507 291.734 46.1509 291.345 46.5398Z" fill="black" stroke="white" stroke-width="0.5"/>
<path d="M300.173 55.3678C299.784 55.757 299.784 56.3876 300.173 56.7766L301.582 58.1852C301.776 58.3796 302.031 58.4768 302.286 58.4768C302.541 58.4768 302.796 58.3796 302.991 58.1852C303.38 57.796 303.38 57.1654 302.991 56.7764L301.582 55.3678C301.193 54.9791 300.562 54.9788 300.173 55.3678Z" fill="black" stroke="white" stroke-width="0.5"/>
<path d="M297.168 53.7711C297.362 53.9656 297.617 54.0628 297.872 54.0628C298.127 54.0628 298.382 53.9656 298.577 53.7711C298.966 53.382 298.966 52.7514 298.577 52.3624L297.168 50.9538C296.779 50.5649 296.148 50.5649 295.759 50.9538C295.37 51.3429 295.37 51.9735 295.759 52.3625L297.168 53.7711Z" fill="black" stroke="white" stroke-width="0.5"/>
<path d="M297.363 37.78C298.078 37.0649 298.472 36.1145 298.472 35.1034C298.472 34.0924 298.078 33.1417 297.363 32.4269C296.648 31.712 295.698 31.3184 294.687 31.3184C293.675 31.3184 292.725 31.712 292.01 32.4269C291.295 33.1419 290.901 34.0924 290.901 35.1034C290.901 36.1145 291.295 37.065 292.01 37.7798C292.725 38.4949 293.676 38.8887 294.687 38.8887C295.698 38.8885 296.648 38.4949 297.363 37.78ZM292.894 35.1033C292.894 34.6245 293.08 34.1741 293.419 33.8354C293.757 33.4968 294.208 33.3104 294.686 33.3104C295.165 33.3104 295.616 33.4969 295.954 33.8356H295.954C296.293 34.1741 296.479 34.6243 296.479 35.1033C296.479 35.5822 296.293 36.0324 295.954 36.3711C295.616 36.7098 295.165 36.8964 294.686 36.8964C294.207 36.8964 293.757 36.7099 293.419 36.3711C293.08 36.0325 292.894 35.5823 292.894 35.1033Z" fill="black" stroke="white" stroke-width="0.5"/>
<path d="M314.626 35.1035C314.626 34.0925 314.232 33.1419 313.517 32.4271C312.041 30.9514 309.639 30.9514 308.164 32.4271C307.449 33.142 307.055 34.0925 307.055 35.1035C307.055 36.1146 307.449 37.0652 308.164 37.7801C308.902 38.518 309.871 38.8869 310.84 38.8869C311.81 38.8869 312.779 38.518 313.517 37.7801C314.232 37.0652 314.626 36.1147 314.626 35.1035ZM312.108 36.3713C311.409 37.0705 310.271 37.0705 309.572 36.3713C309.234 36.0327 309.047 35.5826 309.047 35.1035C309.047 34.6247 309.234 34.1744 309.572 33.8358C309.922 33.4863 310.381 33.3115 310.84 33.3115C311.299 33.3115 311.758 33.4863 312.108 33.8358H312.108C312.447 34.1744 312.633 34.6246 312.633 35.1035C312.633 35.5826 312.447 36.0328 312.108 36.3713Z" fill="black" stroke="white" stroke-width="0.5"/>
<path d="M303.76 45.0585V25.1489C303.76 24.5987 303.314 24.1528 302.763 24.1528C302.213 24.1528 301.767 24.5987 301.767 25.1489V45.0585C301.767 45.6087 302.213 46.0545 302.763 46.0545C303.314 46.0545 303.76 45.6086 303.76 45.0585Z" fill="black" stroke="white" stroke-width="0.5"/>
<path d="M282.996 11.0044C280.249 11.0044 278.015 13.2386 278.015 15.9849C278.015 18.7312 280.249 20.9653 282.996 20.9653C285.742 20.9653 287.976 18.7312 287.976 15.9849C287.976 13.2386 285.742 11.0044 282.996 11.0044ZM282.996 12.9966C283.435 12.9966 283.853 13.0919 284.229 13.2631L280.22 17.0917C280.083 16.7492 280.007 16.3757 280.007 15.9849C280.007 14.3372 281.348 12.9966 282.996 12.9966ZM282.996 18.9731C282.465 18.9731 281.967 18.8342 281.534 18.5909L285.666 14.6452C285.87 15.0484 285.984 15.5036 285.984 15.9849C285.984 17.6325 284.643 18.9731 282.996 18.9731Z" fill="black" stroke="white" stroke-width="0.5"/>
<path d="M1077.04 87.3925V101.938H1074.83V89.5942H1074.75L1071.27 91.867V89.7647L1074.9 87.3925H1077.04ZM1085.77 102.137C1084.88 102.137 1084.08 101.966 1083.37 101.625C1082.67 101.28 1082.1 100.806 1081.68 100.205C1081.26 99.6037 1081.04 98.9172 1081.01 98.1454H1083.14C1083.19 98.7704 1083.47 99.2841 1083.97 99.6866C1084.47 100.089 1085.07 100.29 1085.77 100.29C1086.33 100.29 1086.83 100.162 1087.26 99.9067C1087.69 99.6463 1088.03 99.2888 1088.28 98.8343C1088.53 98.3797 1088.66 97.8613 1088.66 97.2789C1088.66 96.687 1088.53 96.1591 1088.27 95.6951C1088.02 95.2311 1087.66 94.8665 1087.21 94.6013C1086.77 94.3362 1086.26 94.2012 1085.68 94.1965C1085.24 94.1965 1084.8 94.2723 1084.35 94.4238C1083.91 94.5753 1083.55 94.7742 1083.27 95.0204L1081.26 94.7221L1082.08 87.3925H1090.08V89.2746H1083.9L1083.44 93.3442H1083.53C1083.81 93.0696 1084.19 92.84 1084.66 92.6553C1085.13 92.4707 1085.64 92.3783 1086.18 92.3783C1087.06 92.3783 1087.85 92.589 1088.54 93.0104C1089.24 93.4318 1089.79 94.0071 1090.18 94.7363C1090.59 95.4607 1090.78 96.294 1090.78 97.2363C1090.78 98.1785 1090.57 99.019 1090.14 99.7576C1089.71 100.496 1089.12 101.079 1088.36 101.505C1087.61 101.926 1086.75 102.137 1085.77 102.137ZM1098.44 102.179C1097.32 102.175 1096.36 101.879 1095.56 101.292C1094.77 100.705 1094.16 99.8499 1093.74 98.7278C1093.31 97.6056 1093.1 96.2538 1093.1 94.6724C1093.1 93.0957 1093.31 91.7486 1093.74 90.6312C1094.16 89.5137 1094.77 88.6615 1095.57 88.0744C1096.37 87.4872 1097.32 87.1937 1098.44 87.1937C1099.55 87.1937 1100.5 87.4896 1101.3 88.0815C1102.1 88.6686 1102.7 89.5208 1103.12 90.6383C1103.55 91.751 1103.76 93.0957 1103.76 94.6724C1103.76 96.2585 1103.55 97.6127 1103.13 98.7349C1102.71 99.8523 1102.1 100.707 1101.31 101.299C1100.51 101.886 1099.55 102.179 1098.44 102.179ZM1098.44 100.283C1099.42 100.283 1100.19 99.8026 1100.75 98.8414C1101.3 97.8802 1101.58 96.4905 1101.58 94.6724C1101.58 93.465 1101.46 92.4446 1101.2 91.6113C1100.95 90.7732 1100.59 90.1387 1100.11 89.7079C1099.64 89.2723 1099.09 89.0545 1098.44 89.0545C1097.46 89.0545 1096.69 89.5374 1096.13 90.5033C1095.57 91.4692 1095.29 92.8589 1095.28 94.6724C1095.28 95.8845 1095.41 96.9096 1095.66 97.7476C1095.92 98.581 1096.28 99.2131 1096.75 99.644C1097.22 100.07 1097.78 100.283 1098.44 100.283ZM1108.55 99.9494L1108.44 100.723C1108.37 101.292 1108.25 101.884 1108.08 102.499C1107.91 103.119 1107.74 103.695 1107.56 104.225C1107.39 104.755 1107.24 105.177 1107.13 105.489H1105.62C1105.68 105.196 1105.77 104.798 1105.88 104.296C1105.99 103.799 1106.09 103.242 1106.2 102.627C1106.3 102.011 1106.38 101.384 1106.43 100.745L1106.5 99.9494H1108.55ZM1116.05 102.179C1114.93 102.175 1113.97 101.879 1113.18 101.292C1112.38 100.705 1111.77 99.8499 1111.35 98.7278C1110.93 97.6056 1110.72 96.2538 1110.72 94.6724C1110.72 93.0957 1110.93 91.7486 1111.35 90.6312C1111.78 89.5137 1112.39 88.6615 1113.19 88.0744C1113.99 87.4872 1114.94 87.1937 1116.05 87.1937C1117.17 87.1937 1118.12 87.4896 1118.92 88.0815C1119.71 88.6686 1120.32 89.5208 1120.74 90.6383C1121.17 91.751 1121.38 93.0957 1121.38 94.6724C1121.38 96.2585 1121.17 97.6127 1120.75 98.7349C1120.33 99.8523 1119.72 100.707 1118.92 101.299C1118.13 101.886 1117.17 102.179 1116.05 102.179ZM1116.05 100.283C1117.04 100.283 1117.81 99.8026 1118.36 98.8414C1118.92 97.8802 1119.2 96.4905 1119.2 94.6724C1119.2 93.465 1119.07 92.4446 1118.82 91.6113C1118.57 90.7732 1118.2 90.1387 1117.73 89.7079C1117.26 89.2723 1116.7 89.0545 1116.05 89.0545C1115.07 89.0545 1114.31 89.5374 1113.75 90.5033C1113.19 91.4692 1112.91 92.8589 1112.9 94.6724C1112.9 95.8845 1113.03 96.9096 1113.28 97.7476C1113.53 98.581 1113.9 99.2131 1114.36 99.644C1114.83 100.07 1115.4 100.283 1116.05 100.283ZM1128.96 102.179C1127.84 102.175 1126.88 101.879 1126.09 101.292C1125.29 100.705 1124.68 99.8499 1124.26 98.7278C1123.84 97.6056 1123.63 96.2538 1123.63 94.6724C1123.63 93.0957 1123.84 91.7486 1124.26 90.6312C1124.69 89.5137 1125.3 88.6615 1126.1 88.0744C1126.9 87.4872 1127.85 87.1937 1128.96 87.1937C1130.08 87.1937 1131.03 87.4896 1131.83 88.0815C1132.62 88.6686 1133.23 89.5208 1133.65 90.6383C1134.08 91.751 1134.29 93.0957 1134.29 94.6724C1134.29 96.2585 1134.08 97.6127 1133.66 98.7349C1133.24 99.8523 1132.63 100.707 1131.83 101.299C1131.04 101.886 1130.08 102.179 1128.96 102.179ZM1128.96 100.283C1129.95 100.283 1130.72 99.8026 1131.27 98.8414C1131.83 97.8802 1132.11 96.4905 1132.11 94.6724C1132.11 93.465 1131.98 92.4446 1131.73 91.6113C1131.48 90.7732 1131.11 90.1387 1130.64 89.7079C1130.17 89.2723 1129.61 89.0545 1128.96 89.0545C1127.98 89.0545 1127.22 89.5374 1126.66 90.5033C1126.1 91.4692 1125.82 92.8589 1125.81 94.6724C1125.81 95.8845 1125.94 96.9096 1126.19 97.7476C1126.44 98.581 1126.81 99.2131 1127.27 99.644C1127.74 100.07 1128.31 100.283 1128.96 100.283ZM1141.87 102.179C1140.75 102.175 1139.79 101.879 1139 101.292C1138.2 100.705 1137.59 99.8499 1137.17 98.7278C1136.75 97.6056 1136.54 96.2538 1136.54 94.6724C1136.54 93.0957 1136.75 91.7486 1137.17 90.6312C1137.6 89.5137 1138.21 88.6615 1139.01 88.0744C1139.81 87.4872 1140.76 87.1937 1141.87 87.1937C1142.99 87.1937 1143.94 87.4896 1144.74 88.0815C1145.53 88.6686 1146.14 89.5208 1146.56 90.6383C1146.99 91.751 1147.2 93.0957 1147.2 94.6724C1147.2 96.2585 1146.99 97.6127 1146.57 98.7349C1146.15 99.8523 1145.54 100.707 1144.74 101.299C1143.95 101.886 1142.99 102.179 1141.87 102.179ZM1141.87 100.283C1142.86 100.283 1143.63 99.8026 1144.18 98.8414C1144.74 97.8802 1145.02 96.4905 1145.02 94.6724C1145.02 93.465 1144.89 92.4446 1144.64 91.6113C1144.39 90.7732 1144.02 90.1387 1143.55 89.7079C1143.08 89.2723 1142.52 89.0545 1141.87 89.0545C1140.89 89.0545 1140.13 89.5374 1139.57 90.5033C1139.01 91.4692 1138.73 92.8589 1138.72 94.6724C1138.72 95.8845 1138.85 96.9096 1139.1 97.7476C1139.35 98.581 1139.72 99.2131 1140.18 99.644C1140.65 100.07 1141.22 100.283 1141.87 100.283ZM1154.03 99.4948V89.8925H1155.94V99.4948H1154.03ZM1150.18 95.6454V93.742H1159.79V95.6454H1150.18ZM1074.15 124.083C1073.93 124.74 1073.58 125.215 1073.1 125.508C1072.62 125.795 1071.86 125.938 1070.82 125.938H1070.71V124.278H1070.88C1071.33 124.278 1071.69 124.193 1071.95 124.024C1072.22 123.855 1072.4 123.597 1072.51 123.252C1072.62 122.901 1072.68 122.37 1072.68 121.661V115.616H1070.82V113.956H1077.3C1079.09 113.956 1080.38 114.34 1081.16 115.108C1081.95 115.87 1082.34 117.139 1082.34 118.917V125.938H1080.54V118.897C1080.54 117.699 1080.29 116.853 1079.81 116.358C1079.32 115.863 1078.48 115.616 1077.28 115.616H1074.47V121.299C1074.47 122.497 1074.37 123.425 1074.15 124.083ZM1087.44 113.956V125.938H1085.65V113.956H1087.44ZM1098.22 118.917V125.938H1096.42V118.897C1096.42 117.712 1096.18 116.869 1095.7 116.368C1095.22 115.866 1094.38 115.616 1093.19 115.616H1089.52V113.956H1093.2C1094.4 113.956 1095.37 114.125 1096.11 114.463C1096.84 114.795 1097.38 115.326 1097.72 116.055C1098.06 116.778 1098.22 117.732 1098.22 118.917ZM1103.32 113.956V125.938H1101.53V113.956H1103.32ZM1115.72 117.676C1115.72 118.9 1115.48 120.062 1114.98 121.163C1114.49 122.263 1113.79 123.249 1112.88 124.122C1111.98 124.987 1110.9 125.681 1109.66 126.202V124.141C1111.02 123.529 1112.07 122.68 1112.79 121.592C1113.53 120.499 1113.9 119.275 1113.9 117.92C1113.9 117.048 1113.71 116.446 1113.32 116.114C1112.94 115.782 1112.29 115.616 1111.36 115.616H1106.22V113.956H1111.28C1112.89 113.956 1114.03 114.245 1114.71 114.825C1115.39 115.398 1115.72 116.348 1115.72 117.676ZM1108.52 118.155V129.698H1106.72V118.155H1108.52ZM1120.31 113.956V120.254H1118.52V113.956H1120.31ZM1133.27 124.278V125.938H1122.81V124.278H1130.18V118.897C1130.18 117.699 1129.93 116.853 1129.45 116.358C1128.96 115.863 1128.13 115.616 1126.94 115.616H1123.27V113.956H1126.95C1128.75 113.956 1130.04 114.34 1130.81 115.108C1131.59 115.876 1131.97 117.146 1131.97 118.917V124.278H1133.27Z" fill="black"/>
<path d="M1153.12 12.163V46.6154C1153.12 47.2193 1152.63 47.7088 1152.03 47.7088C1151.42 47.7088 1150.93 47.2193 1150.93 46.6154V12.163C1150.93 10.505 1149.58 9.15609 1147.92 9.15609H1088.31C1086.66 9.15609 1085.31 10.505 1085.31 12.163V49.3396C1085.31 50.9976 1086.66 52.3465 1088.31 52.3465H1094.01C1094.6 52.3465 1095.09 52.8161 1095.11 53.4068L1095.43 64.0846L1097.46 61.7934C1097.86 61.341 1098.55 61.2985 1099 61.6991C1099.45 62.0992 1099.49 62.7902 1099.09 63.2425L1095.24 67.6003C1095.03 67.8394 1094.73 67.9692 1094.42 67.9692C1094.29 67.9692 1094.17 67.9481 1094.05 67.904C1093.62 67.7515 1093.34 67.3569 1093.33 66.9089L1092.95 54.5333H1088.31C1085.45 54.5333 1083.12 52.2034 1083.12 49.3396V12.163C1083.12 9.2992 1085.45 6.96924 1088.31 6.96924H1147.92C1150.79 6.96924 1153.12 9.2992 1153.12 12.163ZM1097.64 30.7513C1097.64 27.6382 1100.17 25.1055 1103.29 25.1055C1106.4 25.1055 1108.94 27.6382 1108.94 30.7513C1108.94 33.8643 1106.4 36.3971 1103.29 36.3971C1100.17 36.3971 1097.64 33.8644 1097.64 30.7513ZM1099.83 30.7513C1099.83 32.6585 1101.38 34.2102 1103.29 34.2102C1105.2 34.2102 1106.75 32.6585 1106.75 30.7513C1106.75 28.8439 1105.2 27.2924 1103.29 27.2924C1101.38 27.2924 1099.83 28.8441 1099.83 30.7513ZM1112.47 30.7513C1112.47 27.6382 1115 25.1055 1118.12 25.1055C1121.23 25.1055 1123.77 27.6382 1123.77 30.7513C1123.77 33.8643 1121.23 36.3971 1118.12 36.3971C1115 36.3971 1112.47 33.8644 1112.47 30.7513ZM1114.66 30.7513C1114.66 32.6585 1116.21 34.2102 1118.12 34.2102C1120.03 34.2102 1121.58 32.6585 1121.58 30.7513C1121.58 28.8439 1120.03 27.2924 1118.12 27.2924C1116.21 27.2924 1114.66 28.8441 1114.66 30.7513ZM1127.3 30.7513C1127.3 27.6382 1129.84 25.1055 1132.95 25.1055C1136.06 25.1055 1138.6 27.6382 1138.6 30.7513C1138.6 33.8643 1136.06 36.3971 1132.95 36.3971C1129.84 36.3971 1127.3 33.8644 1127.3 30.7513ZM1129.49 30.7513C1129.49 32.6585 1131.04 34.2102 1132.95 34.2102C1134.86 34.2102 1136.41 32.6585 1136.41 30.7513C1136.41 28.8439 1134.86 27.2924 1132.95 27.2924C1131.04 27.2924 1129.49 28.8441 1129.49 30.7513ZM1114.8 49.5723C1114.94 49.9871 1114.81 50.4424 1114.49 50.7308L1110.94 53.8564L1111.97 58.4701C1112.07 58.8957 1111.9 59.3373 1111.55 59.5936C1111.36 59.7323 1111.13 59.8024 1110.9 59.8024C1110.71 59.8024 1110.52 59.752 1110.35 59.65L1106.28 57.2419L1102.21 59.65C1101.83 59.8721 1101.36 59.85 1101.01 59.5936C1100.65 59.3373 1100.49 58.8958 1100.58 58.4701L1101.62 53.8564L1098.07 50.7308C1097.74 50.4426 1097.62 49.9873 1097.75 49.5723C1097.88 49.1576 1098.25 48.8627 1098.69 48.8217L1103.4 48.3784L1105.27 44.0386C1105.45 43.6383 1105.84 43.3791 1106.28 43.3791C1106.71 43.3791 1107.11 43.6383 1107.28 44.0386L1109.16 48.3784L1113.87 48.8217C1114.3 48.8625 1114.67 49.1576 1114.8 49.5723ZM1111.14 50.7617L1108.31 50.4949C1107.91 50.4574 1107.57 50.2065 1107.41 49.8402L1106.28 47.2279L1105.15 49.8402C1104.99 50.2065 1104.64 50.4574 1104.25 50.4949L1101.41 50.7617L1103.55 52.6432C1103.85 52.9071 1103.98 53.3131 1103.89 53.7026L1103.27 56.4799L1105.72 55.0303C1106.06 54.8272 1106.49 54.8272 1106.83 55.0303L1109.28 56.4799L1108.66 53.7026C1108.58 53.3131 1108.71 52.9071 1109.01 52.6432L1111.14 50.7617ZM1133.93 49.5723C1134.07 49.9871 1133.94 50.4424 1133.62 50.7308L1130.07 53.8564L1131.1 58.4701C1131.2 58.8957 1131.03 59.3373 1130.68 59.5936C1130.32 59.85 1129.85 59.8721 1129.48 59.65L1125.41 57.2419L1121.34 59.65C1121.17 59.752 1120.97 59.8024 1120.78 59.8024C1120.55 59.8024 1120.33 59.7323 1120.14 59.5936C1119.78 59.3373 1119.62 58.8958 1119.71 58.4701L1120.75 53.8564L1117.2 50.7308C1116.87 50.4426 1116.75 49.9873 1116.88 49.5723C1117.02 49.1576 1117.38 48.8627 1117.82 48.8217L1122.53 48.3784L1124.4 44.0386C1124.58 43.6383 1124.97 43.3791 1125.41 43.3791C1125.84 43.3791 1126.24 43.6383 1126.41 44.0386L1128.29 48.3784L1133 48.8217C1133.43 48.8625 1133.8 49.1576 1133.93 49.5723ZM1130.27 50.7617L1127.44 50.4949C1127.04 50.4574 1126.7 50.2065 1126.54 49.8402L1125.41 47.2279L1124.28 49.8402C1124.12 50.2065 1123.77 50.4574 1123.38 50.4949L1120.54 50.7617L1122.68 52.6432C1122.98 52.9071 1123.11 53.3131 1123.02 53.7026L1122.4 56.4799L1124.85 55.0303C1125.19 54.8272 1125.62 54.8272 1125.96 55.0303L1128.41 56.4799L1127.79 53.7026C1127.71 53.3131 1127.84 52.9071 1128.14 52.6432L1130.27 50.7617ZM1153.07 49.5723C1153.2 49.9871 1153.08 50.4424 1152.75 50.7308L1149.2 53.8564L1150.23 58.4701C1150.33 58.8957 1150.16 59.3373 1149.81 59.5936C1149.62 59.7323 1149.39 59.8024 1149.17 59.8024C1148.97 59.8024 1148.78 59.752 1148.61 59.65L1144.54 57.2419L1140.47 59.65C1140.09 59.8723 1139.62 59.8503 1139.27 59.5936C1138.92 59.3373 1138.75 58.8958 1138.84 58.4701L1139.88 53.8564L1136.33 50.7308C1136 50.4426 1135.88 49.9873 1136.01 49.5723C1136.15 49.1576 1136.51 48.8627 1136.95 48.8217L1141.66 48.3784L1143.53 44.0386C1143.71 43.6383 1144.1 43.3791 1144.54 43.3791C1144.97 43.3791 1145.37 43.6383 1145.54 44.0386L1147.42 48.3784L1152.13 48.8217C1152.56 48.8625 1152.93 49.1576 1153.07 49.5723ZM1149.4 50.7617L1146.57 50.4949C1146.17 50.4574 1145.83 50.2065 1145.67 49.8402L1144.54 47.2279L1143.41 49.8402C1143.25 50.2065 1142.9 50.4574 1142.51 50.4949L1139.67 50.7617L1141.81 52.6432C1142.11 52.9071 1142.24 53.3131 1142.15 53.7026L1141.53 56.4799L1143.98 55.0303C1144.15 54.9287 1144.35 54.8779 1144.54 54.8779C1144.73 54.8779 1144.92 54.9287 1145.1 55.0303L1147.55 56.4799L1146.92 53.7026C1146.84 53.3131 1146.97 52.9071 1147.27 52.6432L1149.4 50.7617Z" fill="black" stroke="white" stroke-width="0.5"/>
<path d="M17.1582 94.9165V101.938H6.89453V89.9556H12.1387C13.9355 89.9556 15.2214 90.3397 15.9961 91.1079C16.7708 91.8761 17.1582 93.1457 17.1582 94.9165ZM8.69141 100.278H15.3516V94.897C15.3516 93.7121 15.1107 92.869 14.6289 92.3677C14.1536 91.8664 13.3171 91.6157 12.1191 91.6157H8.69141V100.278ZM20.2441 100.356C21.4941 99.8937 22.5618 99.3078 23.4473 98.5981C24.3392 97.895 25.0163 97.1268 25.4785 96.2935C25.9473 95.4601 26.1816 94.6138 26.1816 93.7544C26.1816 92.3286 25.4199 91.6157 23.8965 91.6157H19.043V85.6782H20.8398V89.9556H24.082C26.6927 89.9556 27.998 91.1177 27.998 93.4419C27.998 94.6398 27.7116 95.7889 27.1387 96.8892C26.5658 97.9894 25.7585 98.979 24.7168 99.8579C23.4798 100.913 21.9889 101.752 20.2441 102.377V100.356ZM40.0586 100.727C39.6094 101.027 39.0495 101.271 38.3789 101.459C37.7148 101.648 36.8815 101.788 35.8789 101.879C34.8763 101.971 33.6361 102.023 32.1582 102.036L29.873 89.9556H31.7383L32.9395 96.1177L33.6523 95.981C34.043 95.8898 34.3652 95.7726 34.6191 95.6294C34.873 95.4797 35.0749 95.2713 35.2246 95.0044C35.3483 94.7961 35.4427 94.5389 35.5078 94.2329C35.5729 93.9269 35.6217 93.5623 35.6543 93.1392L35.8984 89.9556H37.7539L37.4512 93.1587C37.4056 93.6991 37.3503 94.1678 37.2852 94.5649C37.2201 94.9556 37.1419 95.2713 37.0508 95.5122C36.888 96.0005 36.6439 96.3781 36.3184 96.645C35.9928 96.9054 35.4525 97.1366 34.6973 97.3384L33.2324 97.6802L33.7109 100.2H33.9453C35.2539 100.2 36.3021 100.125 37.0898 99.9751C37.8776 99.8188 38.4993 99.578 38.9551 99.2524C39.2611 99.0311 39.5182 98.7576 39.7266 98.4321C39.9349 98.1066 40.1107 97.6769 40.2539 97.1431C40.3971 96.6092 40.5176 95.9224 40.6152 95.0825L41.2305 89.9556H43.1152L42.4902 95.0142C42.36 96.147 42.1908 97.0812 41.9824 97.8169C41.7741 98.5461 41.5137 99.1385 41.2012 99.5942C40.8952 100.043 40.5143 100.421 40.0586 100.727ZM47.4805 89.9556V101.938H45.6836V89.9556H47.4805ZM56.7773 89.7603C58.3529 89.7603 59.502 90.242 60.2246 91.2056C60.9538 92.1626 61.3184 93.686 61.3184 95.7759V101.938H55.4395V100.278H59.502V96.0005C59.502 94.4054 59.2969 93.2466 58.8867 92.5239C58.4766 91.8013 57.7799 91.4399 56.7969 91.4399C55.918 91.4399 55.1953 91.8371 54.6289 92.6313C54.056 93.4386 53.5319 94.8416 53.0566 96.8403L51.8359 101.938H49.9023L51.2402 96.6938C51.39 96.0819 51.543 95.5285 51.6992 95.0337C51.8555 94.5389 52.0085 94.0994 52.1582 93.7153L49.7168 89.9556H51.8359L53.0566 91.938C53.5645 91.1698 54.1081 90.6164 54.6875 90.2778C55.2669 89.9328 55.9635 89.7603 56.7773 89.7603ZM11.9629 118.917V125.938H1.69922V113.956H6.94336C8.74023 113.956 10.026 114.34 10.8008 115.108C11.5755 115.876 11.9629 117.146 11.9629 118.917ZM3.49609 124.278H10.1562V118.897C10.1562 117.712 9.91536 116.869 9.43359 116.368C8.95833 115.866 8.12174 115.616 6.92383 115.616H3.49609V124.278ZM16.6602 113.956V120.254H14.8633V113.956H16.6602ZM24.4336 128.575C24.4336 128.36 24.5117 128.174 24.668 128.018C24.8177 127.868 25 127.793 25.2148 127.793C25.4362 127.793 25.6217 127.872 25.7715 128.028C25.9212 128.184 25.9961 128.366 25.9961 128.575C25.9961 128.783 25.918 128.962 25.7617 129.112C25.6055 129.262 25.4232 129.336 25.2148 129.336C25.0065 129.336 24.8242 129.262 24.668 129.112C24.5117 128.962 24.4336 128.783 24.4336 128.575ZM22.0898 122.002L21.3086 125.938H19.4141L20.2344 122.042C20.4688 120.922 20.6836 120.134 20.8789 119.678C21.0742 119.216 21.3184 118.842 21.6113 118.555C21.9108 118.269 22.3112 118.025 22.8125 117.823L19.9902 113.956H22.207L26.6113 120.02C27.0996 119.564 27.487 119.014 27.7734 118.37C28.0664 117.719 28.2585 116.973 28.3496 116.133L28.5742 113.956H30.4297L30.2051 116.094C30.1335 116.81 30.0033 117.439 29.8145 117.979C29.6842 118.35 29.528 118.705 29.3457 119.043C29.1634 119.375 28.929 119.721 28.6426 120.079C28.3626 120.437 27.998 120.837 27.5488 121.28L31.0742 125.938H28.7891L23.6328 118.936C23.112 119.19 22.7409 119.629 22.5195 120.254C22.4544 120.417 22.3861 120.645 22.3145 120.938C22.2493 121.231 22.1745 121.586 22.0898 122.002ZM36.9922 126.895C36.9922 126.68 37.0703 126.495 37.2266 126.338C37.3763 126.189 37.5586 126.114 37.7734 126.114C37.9948 126.114 38.1803 126.192 38.3301 126.348C38.4798 126.504 38.5547 126.687 38.5547 126.895C38.5547 127.103 38.4766 127.282 38.3203 127.432C38.1641 127.582 37.9818 127.657 37.7734 127.657C37.5651 127.657 37.3828 127.582 37.2266 127.432C37.0703 127.282 36.9922 127.103 36.9922 126.895ZM36.9922 128.917C36.9922 128.695 37.0703 128.51 37.2266 128.36C37.3828 128.21 37.5651 128.135 37.7734 128.135C37.9818 128.135 38.1641 128.213 38.3203 128.37C38.4766 128.526 38.5547 128.708 38.5547 128.917C38.5547 129.125 38.4766 129.307 38.3203 129.463C38.1706 129.62 37.9883 129.698 37.7734 129.698C37.5521 129.698 37.3665 129.623 37.2168 129.473C37.0671 129.323 36.9922 129.138 36.9922 128.917ZM35.3613 124.083C35.14 124.74 34.7884 125.215 34.3066 125.508C33.8249 125.795 33.0664 125.938 32.0312 125.938H31.9238V124.278H32.0898C32.5391 124.278 32.8971 124.193 33.1641 124.024C33.4245 123.855 33.61 123.597 33.7207 123.252C33.8314 122.901 33.8867 122.37 33.8867 121.661V115.616H32.0312V113.956H38.5059C40.3027 113.956 41.5918 114.34 42.373 115.108C43.1543 115.87 43.5449 117.139 43.5449 118.917V125.938H41.748V118.897C41.748 117.699 41.5039 116.853 41.0156 116.358C40.5339 115.863 39.6908 115.616 38.4863 115.616H35.6836V121.299C35.6836 122.497 35.5762 123.425 35.3613 124.083ZM53.2031 127.159V128.194H50V127.159H53.2031ZM56.2402 118.917V125.938H54.4336V118.897C54.4336 117.699 54.1895 116.853 53.7012 116.358C53.2194 115.863 52.3828 115.616 51.1914 115.616H46.6406V113.956H51.2207C52.4186 113.956 53.3854 114.125 54.1211 114.463C54.8568 114.795 55.3939 115.326 55.7324 116.055C56.071 116.778 56.2402 117.732 56.2402 118.917ZM48.6328 118.155V125.938H46.8359V118.155H48.6328ZM60.7422 126.895C60.7422 126.68 60.8203 126.495 60.9766 126.338C61.1263 126.189 61.3086 126.114 61.5234 126.114C61.7448 126.114 61.9303 126.192 62.0801 126.348C62.2298 126.504 62.3047 126.687 62.3047 126.895C62.3047 127.103 62.2266 127.282 62.0703 127.432C61.9141 127.582 61.7318 127.657 61.5234 127.657C61.3151 127.657 61.1328 127.582 60.9766 127.432C60.8203 127.282 60.7422 127.103 60.7422 126.895ZM60.7422 128.917C60.7422 128.695 60.8203 128.51 60.9766 128.36C61.1328 128.21 61.3151 128.135 61.5234 128.135C61.7318 128.135 61.9141 128.213 62.0703 128.37C62.2266 128.526 62.3047 128.708 62.3047 128.917C62.3047 129.125 62.2266 129.307 62.0703 129.463C61.9206 129.62 61.7383 129.698 61.5234 129.698C61.3021 129.698 61.1165 129.623 60.9668 129.473C60.8171 129.323 60.7422 129.138 60.7422 128.917ZM59.3066 124.356C60.5566 123.894 61.6243 123.308 62.5098 122.598C63.4017 121.895 64.0788 121.127 64.541 120.293C65.0098 119.46 65.2441 118.614 65.2441 117.754C65.2441 116.329 64.4824 115.616 62.959 115.616H58.1055V109.678H59.9023V113.956H63.1445C65.7552 113.956 67.0605 115.118 67.0605 117.442C67.0605 118.64 66.7741 119.789 66.2012 120.889C65.6283 121.989 64.821 122.979 63.7793 123.858C62.5423 124.913 61.0514 125.752 59.3066 126.377V124.356Z" fill="black"/>
<mask id="path-39-inside-1_177_2703" fill="white">
<path d="M42.7321 50.7748C42.673 49.7958 42.2438 48.86 41.5236 48.1399L36.3267 42.9421C37.1662 42.6764 37.9238 42.2192 38.5409 41.6023L38.673 41.47C40.9633 39.1798 40.7795 35.2699 38.2635 32.7537C37.0664 31.5567 35.5178 30.8439 33.9031 30.7463C32.2251 30.6449 30.679 31.2126 29.5474 32.3444L29.4152 32.4765C28.7979 33.0937 28.3406 33.8516 28.0751 34.6914L22.8775 29.4937C21.346 27.9621 18.9464 27.8696 17.5281 29.2875L12.8175 33.9982C12.2411 34.5747 12.0014 35.4126 12.1763 36.2394C12.3664 37.1384 12.9935 37.8736 13.8537 38.2059C14.3967 38.4158 14.8891 38.7391 15.317 39.1669L15.4662 39.3162C16.19 40.04 16.6202 40.9599 16.6772 41.9067C16.7307 42.7912 16.446 43.5924 15.8758 44.1626C15.3055 44.7329 14.504 45.0183 13.6199 44.964C12.6731 44.9069 11.7529 44.4768 11.0293 43.753L10.88 43.6037C10.4522 43.1759 10.1289 42.6835 9.919 42.1406C9.58666 41.2802 8.85152 40.6532 7.95234 40.463C7.12553 40.2882 6.28765 40.5279 5.71108 41.1043L1.00583 45.8098C-0.412042 47.2278 -0.319688 49.6274 1.21202 51.1591L6.40955 56.3568C5.56975 56.6225 4.8119 57.0797 4.1947 57.6968L4.0624 57.8291C1.7723 60.1193 1.95605 64.0292 4.47204 66.5454C5.80782 67.881 7.53586 68.5595 9.2063 68.5592C10.6826 68.5592 12.1139 68.0292 13.1882 66.9547L13.3205 66.8226C13.9377 66.2054 14.3948 65.4477 14.6605 64.6076L19.858 69.8053C20.5783 70.5255 21.5141 70.9546 22.4931 71.0138C22.568 71.0183 22.6429 71.0206 22.7175 71.0206C23.6623 71.0206 24.5597 70.6593 25.2076 70.0115L29.688 65.531C30.0361 66.3774 30.5484 67.1419 31.2118 67.8056L31.3611 67.9549C33.8771 70.4708 37.7871 70.6545 40.0774 68.3644C42.3676 66.0742 42.1839 62.1641 39.6679 59.6481L39.5186 59.4988C38.855 58.8353 38.0905 58.3232 37.244 57.9751L41.7298 53.4893C42.4288 52.7901 42.7941 51.8009 42.7321 50.7748ZM39.795 51.5544L35.0844 56.265C34.5081 56.8414 34.2682 57.6791 34.4431 58.5059C34.6332 59.4051 35.2602 60.1403 36.1205 60.4727C36.6636 60.6826 37.156 61.0059 37.5838 61.4339L37.7331 61.5832C39.1822 63.0322 39.3659 65.2062 38.1426 66.4295C36.9194 67.6528 34.7451 67.4691 33.2963 66.02L33.147 65.8707C32.7192 65.4429 32.3957 64.9505 32.1858 64.4076C31.8535 63.5472 31.1182 62.9202 30.219 62.7301C29.3921 62.5553 28.5544 62.7951 27.9781 63.3714L23.2728 68.0768C23.0835 68.2662 22.8342 68.2938 22.6582 68.2826C22.3519 68.2641 22.0366 68.1139 21.7932 67.8706L19.7082 65.7856L24.2488 61.2451C24.783 60.7108 24.783 59.8445 24.2488 59.31C23.7145 58.7756 22.8481 58.7758 22.3137 59.31L17.7732 63.8506L16.3564 62.4338C15.8383 61.9156 15.1558 61.6353 14.468 61.6353C14.2302 61.6353 13.9916 61.669 13.759 61.7378C12.9178 61.9869 12.3064 62.649 12.1234 63.5089C12.0085 64.049 11.7602 64.5128 11.3853 64.8877L11.253 65.0198C10.0298 66.2431 7.85547 66.0594 6.40668 64.6103C4.95761 63.1613 4.77386 60.9873 5.99704 59.764L6.12934 59.6317C6.50423 59.2568 6.96805 59.0085 7.50808 58.8936C8.36814 58.7106 9.03021 58.099 9.27936 57.2577C9.54726 56.3529 9.28046 55.3578 8.58336 54.6607L3.14693 49.2239C2.90353 48.9806 2.75344 48.6653 2.73483 48.3589C2.72416 48.1831 2.75138 47.9338 2.94061 47.7443L7.42107 43.2639C7.76914 44.1102 8.28139 44.8748 8.94484 45.5385L9.09411 45.6878C11.6102 48.2038 15.5202 48.3874 17.8105 46.0973C20.1006 43.807 19.917 39.8971 17.4009 37.381L17.2516 37.2317C16.588 36.5681 15.8235 36.056 14.977 35.708L19.4628 31.2222C19.8081 30.8771 20.4856 30.9715 20.9423 31.4283L26.379 36.8649C27.0761 37.5621 28.0712 37.8288 28.9762 37.5609C29.8173 37.3119 30.4288 36.6497 30.6119 35.7896C30.7267 35.2497 30.975 34.7859 31.35 34.411L31.4823 34.2787C32.0526 33.7086 32.8535 33.424 33.7382 33.4774C34.685 33.5344 35.6051 33.9646 36.3288 34.6884C37.7778 36.1376 37.9616 38.3117 36.7383 39.5347L36.6061 39.667C36.2312 40.0419 35.7674 40.2902 35.2275 40.4051C34.3674 40.5881 33.7052 41.1995 33.4561 42.0408C33.1882 42.9456 33.4549 43.9409 34.1521 44.6381L39.5888 50.0748C39.8321 50.3181 39.9823 50.6333 40.0008 50.9396C40.0114 51.1156 39.9843 51.3649 39.795 51.5544Z"/>
</mask>
<path d="M42.7321 50.7748C42.673 49.7958 42.2438 48.86 41.5236 48.1399L36.3267 42.9421C37.1662 42.6764 37.9238 42.2192 38.5409 41.6023L38.673 41.47C40.9633 39.1798 40.7795 35.2699 38.2635 32.7537C37.0664 31.5567 35.5178 30.8439 33.9031 30.7463C32.2251 30.6449 30.679 31.2126 29.5474 32.3444L29.4152 32.4765C28.7979 33.0937 28.3406 33.8516 28.0751 34.6914L22.8775 29.4937C21.346 27.9621 18.9464 27.8696 17.5281 29.2875L12.8175 33.9982C12.2411 34.5747 12.0014 35.4126 12.1763 36.2394C12.3664 37.1384 12.9935 37.8736 13.8537 38.2059C14.3967 38.4158 14.8891 38.7391 15.317 39.1669L15.4662 39.3162C16.19 40.04 16.6202 40.9599 16.6772 41.9067C16.7307 42.7912 16.446 43.5924 15.8758 44.1626C15.3055 44.7329 14.504 45.0183 13.6199 44.964C12.6731 44.9069 11.7529 44.4768 11.0293 43.753L10.88 43.6037C10.4522 43.1759 10.1289 42.6835 9.919 42.1406C9.58666 41.2802 8.85152 40.6532 7.95234 40.463C7.12553 40.2882 6.28765 40.5279 5.71108 41.1043L1.00583 45.8098C-0.412042 47.2278 -0.319688 49.6274 1.21202 51.1591L6.40955 56.3568C5.56975 56.6225 4.8119 57.0797 4.1947 57.6968L4.0624 57.8291C1.7723 60.1193 1.95605 64.0292 4.47204 66.5454C5.80782 67.881 7.53586 68.5595 9.2063 68.5592C10.6826 68.5592 12.1139 68.0292 13.1882 66.9547L13.3205 66.8226C13.9377 66.2054 14.3948 65.4477 14.6605 64.6076L19.858 69.8053C20.5783 70.5255 21.5141 70.9546 22.4931 71.0138C22.568 71.0183 22.6429 71.0206 22.7175 71.0206C23.6623 71.0206 24.5597 70.6593 25.2076 70.0115L29.688 65.531C30.0361 66.3774 30.5484 67.1419 31.2118 67.8056L31.3611 67.9549C33.8771 70.4708 37.7871 70.6545 40.0774 68.3644C42.3676 66.0742 42.1839 62.1641 39.6679 59.6481L39.5186 59.4988C38.855 58.8353 38.0905 58.3232 37.244 57.9751L41.7298 53.4893C42.4288 52.7901 42.7941 51.8009 42.7321 50.7748ZM39.795 51.5544L35.0844 56.265C34.5081 56.8414 34.2682 57.6791 34.4431 58.5059C34.6332 59.4051 35.2602 60.1403 36.1205 60.4727C36.6636 60.6826 37.156 61.0059 37.5838 61.4339L37.7331 61.5832C39.1822 63.0322 39.3659 65.2062 38.1426 66.4295C36.9194 67.6528 34.7451 67.4691 33.2963 66.02L33.147 65.8707C32.7192 65.4429 32.3957 64.9505 32.1858 64.4076C31.8535 63.5472 31.1182 62.9202 30.219 62.7301C29.3921 62.5553 28.5544 62.7951 27.9781 63.3714L23.2728 68.0768C23.0835 68.2662 22.8342 68.2938 22.6582 68.2826C22.3519 68.2641 22.0366 68.1139 21.7932 67.8706L19.7082 65.7856L24.2488 61.2451C24.783 60.7108 24.783 59.8445 24.2488 59.31C23.7145 58.7756 22.8481 58.7758 22.3137 59.31L17.7732 63.8506L16.3564 62.4338C15.8383 61.9156 15.1558 61.6353 14.468 61.6353C14.2302 61.6353 13.9916 61.669 13.759 61.7378C12.9178 61.9869 12.3064 62.649 12.1234 63.5089C12.0085 64.049 11.7602 64.5128 11.3853 64.8877L11.253 65.0198C10.0298 66.2431 7.85547 66.0594 6.40668 64.6103C4.95761 63.1613 4.77386 60.9873 5.99704 59.764L6.12934 59.6317C6.50423 59.2568 6.96805 59.0085 7.50808 58.8936C8.36814 58.7106 9.03021 58.099 9.27936 57.2577C9.54726 56.3529 9.28046 55.3578 8.58336 54.6607L3.14693 49.2239C2.90353 48.9806 2.75344 48.6653 2.73483 48.3589C2.72416 48.1831 2.75138 47.9338 2.94061 47.7443L7.42107 43.2639C7.76914 44.1102 8.28139 44.8748 8.94484 45.5385L9.09411 45.6878C11.6102 48.2038 15.5202 48.3874 17.8105 46.0973C20.1006 43.807 19.917 39.8971 17.4009 37.381L17.2516 37.2317C16.588 36.5681 15.8235 36.056 14.977 35.708L19.4628 31.2222C19.8081 30.8771 20.4856 30.9715 20.9423 31.4283L26.379 36.8649C27.0761 37.5621 28.0712 37.8288 28.9762 37.5609C29.8173 37.3119 30.4288 36.6497 30.6119 35.7896C30.7267 35.2497 30.975 34.7859 31.35 34.411L31.4823 34.2787C32.0526 33.7086 32.8535 33.424 33.7382 33.4774C34.685 33.5344 35.6051 33.9646 36.3288 34.6884C37.7778 36.1376 37.9616 38.3117 36.7383 39.5347L36.6061 39.667C36.2312 40.0419 35.7674 40.2902 35.2275 40.4051C34.3674 40.5881 33.7052 41.1995 33.4561 42.0408C33.1882 42.9456 33.4549 43.9409 34.1521 44.6381L39.5888 50.0748C39.8321 50.3181 39.9823 50.6333 40.0008 50.9396C40.0114 51.1156 39.9843 51.3649 39.795 51.5544Z" fill="black" stroke="white" mask="url(#path-39-inside-1_177_2703)"/>
<path d="M26.7911 55.6499C27.0845 55.6499 27.3739 55.7699 27.5816 55.9776C27.7893 56.1852 27.9093 56.4747 27.9093 56.7681C27.9093 57.0615 27.7893 57.351 27.5816 57.5587C27.3739 57.7663 27.0845 57.8863 26.7911 57.8863C26.4964 57.8863 26.2083 57.7664 26.0005 57.5587C25.7928 57.351 25.6729 57.0616 25.6729 56.7681C25.6729 56.4747 25.7928 56.1852 26.0005 55.9776C26.2082 55.7699 26.4976 55.6499 26.7911 55.6499Z" fill="black" stroke="white" stroke-width="0.5"/>
<path d="M55.8457 18.1934C56.1392 18.1934 56.4286 18.3134 56.6363 18.521C56.844 18.7287 56.9639 19.0181 56.9639 19.3116C56.9639 19.605 56.844 19.8944 56.6363 20.1021C56.4286 20.3098 56.1392 20.4298 55.8457 20.4298C55.5523 20.4298 55.2629 20.3098 55.0552 20.1021C54.8475 19.8944 54.7275 19.605 54.7275 19.3116C54.7275 19.0181 54.8475 18.7287 55.0552 18.521C55.2629 18.3134 55.5523 18.1934 55.8457 18.1934Z" fill="black" stroke="white" stroke-width="0.5"/>
<mask id="path-42-inside-2_177_2703" fill="white">
<path d="M67.0593 32.4143C66.316 31.671 65.4167 31.1023 64.4499 30.763L69.0367 26.1763C69.7357 25.4774 70.101 24.4879 70.039 23.4617C69.9799 22.4828 69.5507 21.5469 68.8305 20.8267L63.7355 15.731C64.4539 15.4566 65.107 15.0358 65.6458 14.4969L65.7781 14.3645C68.0682 12.0743 67.8846 8.16439 65.3685 5.64826C62.8526 3.13241 58.9426 2.94866 56.6522 5.23876L56.5199 5.37106C55.981 5.91014 55.56 6.56345 55.2856 7.28204L50.1843 2.18082C48.6526 0.649115 46.253 0.556625 44.8349 1.97463L40.2481 6.5614C39.9088 5.59463 39.3402 4.69531 38.5968 3.95196L38.4476 3.80269C35.9316 1.2867 32.0215 1.10309 29.7313 3.39319C27.4412 5.68342 27.6248 9.59348 30.1406 12.1092L30.2902 12.2587C31.0334 13.002 31.9327 13.5706 32.8996 13.91L28.3127 18.4968C26.8947 19.9148 26.9872 22.3144 28.5193 23.8465L33.9608 29.2839C34.6582 29.9811 35.6537 30.2476 36.5581 29.9799C37.3992 29.7307 38.0107 29.0685 38.1938 28.2086C38.3086 27.6687 38.5569 27.2049 38.9319 26.83L39.0642 26.6977C39.6345 26.1274 40.4371 25.8424 41.3201 25.8962C42.2669 25.9534 43.1869 26.3835 43.9107 27.1073C44.6344 27.8311 45.0645 28.7511 45.1217 29.6979C45.1752 30.5824 44.8904 31.3836 44.3202 31.9539L44.188 32.0861C43.8131 32.461 43.3493 32.7093 42.8094 32.8242C41.9493 33.0072 41.2873 33.6186 41.0381 34.4598C40.7702 35.3644 41.0368 36.3594 41.7337 37.0566L47.1654 42.4925C47.97 43.2972 49.0141 43.7046 50.0297 43.7046C50.9473 43.7046 51.8417 43.3719 52.5149 42.6987L57.1017 38.1119C57.441 39.0786 58.0096 39.978 58.7528 40.7212L58.9022 40.8706C61.4184 43.3866 65.3283 43.5702 67.6185 41.2801C69.9086 38.9899 69.725 35.0798 67.209 32.5639L67.0593 32.4143ZM65.6831 39.3448C64.4599 40.5681 62.2857 40.3844 60.8367 38.9353L60.6875 38.786C60.2108 38.3095 59.8535 37.7333 59.6545 37.12C59.3651 36.229 58.6191 35.5396 57.7076 35.3207C56.8568 35.1164 55.9929 35.3501 55.3969 35.9461L50.5796 40.7634C50.3901 40.9527 50.1405 40.9801 49.965 40.9692C49.6586 40.9507 49.3434 40.8005 49.1004 40.5575L43.9075 35.3606C44.7475 35.0949 45.5053 34.6376 46.1225 34.0206L46.2547 33.8883C47.3865 32.7565 47.954 31.2095 47.8527 29.5326C47.7552 27.9177 47.0424 26.369 45.8453 25.1721C44.6483 23.9752 43.0997 23.2621 41.4848 23.1646C39.8072 23.0639 38.2608 23.6308 37.1292 24.7625L36.9969 24.8948C36.3797 25.5121 35.9224 26.27 35.6568 27.1098L30.4541 21.911C30.2107 21.6677 30.0606 21.3524 30.042 21.046C30.0313 20.8702 30.0586 20.6208 30.2478 20.4314L35.0652 15.6141C35.6612 15.0181 35.8949 14.1543 35.6906 13.3032C35.4716 12.3917 34.7821 11.6458 33.8913 11.3565C33.2781 11.1573 32.7019 10.8001 32.2255 10.3237L32.076 10.1741C30.6269 8.72508 30.4432 6.55114 31.6665 5.32783C32.8895 4.10452 35.0639 4.28813 36.5128 5.73733L36.6621 5.8866C37.1387 6.36315 37.496 6.9393 37.6952 7.55267C37.9846 8.44364 38.7305 9.13308 39.642 9.35186C40.4929 9.55613 41.3568 9.3223 41.9528 8.72645L46.7699 3.90914C47.1153 3.56421 47.7927 3.65848 48.2495 4.11533L53.5655 9.43149C54.2394 10.1053 55.2067 10.3802 56.0896 10.1482C56.909 9.93307 57.534 9.31833 57.7611 8.50384C57.8907 8.03975 58.1241 7.63667 58.455 7.30584L58.5873 7.17354C59.8103 5.95022 61.9847 6.13384 63.4336 7.58304C64.8826 9.03211 65.0664 11.206 63.8431 12.4294L63.7108 12.5617C63.38 12.8926 62.9769 13.126 62.5129 13.2555C61.6984 13.4827 61.0837 14.1076 60.8686 14.927C60.6368 15.8101 60.9114 16.7772 61.5853 17.4512L66.8954 22.7614C67.1388 23.0046 67.2889 23.32 67.3075 23.6263C67.3182 23.8021 67.291 24.0516 67.1016 24.2409L64.9059 26.4366L60.3717 21.9023C59.8373 21.368 58.971 21.368 58.4368 21.9023C57.9025 22.4365 57.9023 23.3029 58.4368 23.8372L62.971 28.3715L62.2842 29.0584C61.6883 29.6544 61.4545 30.5183 61.6587 31.3691C61.8777 32.2806 62.5671 33.0266 63.4579 33.316C64.0713 33.5152 64.6473 33.8724 65.124 34.3491L65.2733 34.4984C66.7228 35.9476 66.9064 38.1218 65.6831 39.3448Z"/>
</mask>
<path d="M67.0593 32.4143C66.316 31.671 65.4167 31.1023 64.4499 30.763L69.0367 26.1763C69.7357 25.4774 70.101 24.4879 70.039 23.4617C69.9799 22.4828 69.5507 21.5469 68.8305 20.8267L63.7355 15.731C64.4539 15.4566 65.107 15.0358 65.6458 14.4969L65.7781 14.3645C68.0682 12.0743 67.8846 8.16439 65.3685 5.64826C62.8526 3.13241 58.9426 2.94866 56.6522 5.23876L56.5199 5.37106C55.981 5.91014 55.56 6.56345 55.2856 7.28204L50.1843 2.18082C48.6526 0.649115 46.253 0.556625 44.8349 1.97463L40.2481 6.5614C39.9088 5.59463 39.3402 4.69531 38.5968 3.95196L38.4476 3.80269C35.9316 1.2867 32.0215 1.10309 29.7313 3.39319C27.4412 5.68342 27.6248 9.59348 30.1406 12.1092L30.2902 12.2587C31.0334 13.002 31.9327 13.5706 32.8996 13.91L28.3127 18.4968C26.8947 19.9148 26.9872 22.3144 28.5193 23.8465L33.9608 29.2839C34.6582 29.9811 35.6537 30.2476 36.5581 29.9799C37.3992 29.7307 38.0107 29.0685 38.1938 28.2086C38.3086 27.6687 38.5569 27.2049 38.9319 26.83L39.0642 26.6977C39.6345 26.1274 40.4371 25.8424 41.3201 25.8962C42.2669 25.9534 43.1869 26.3835 43.9107 27.1073C44.6344 27.8311 45.0645 28.7511 45.1217 29.6979C45.1752 30.5824 44.8904 31.3836 44.3202 31.9539L44.188 32.0861C43.8131 32.461 43.3493 32.7093 42.8094 32.8242C41.9493 33.0072 41.2873 33.6186 41.0381 34.4598C40.7702 35.3644 41.0368 36.3594 41.7337 37.0566L47.1654 42.4925C47.97 43.2972 49.0141 43.7046 50.0297 43.7046C50.9473 43.7046 51.8417 43.3719 52.5149 42.6987L57.1017 38.1119C57.441 39.0786 58.0096 39.978 58.7528 40.7212L58.9022 40.8706C61.4184 43.3866 65.3283 43.5702 67.6185 41.2801C69.9086 38.9899 69.725 35.0798 67.209 32.5639L67.0593 32.4143ZM65.6831 39.3448C64.4599 40.5681 62.2857 40.3844 60.8367 38.9353L60.6875 38.786C60.2108 38.3095 59.8535 37.7333 59.6545 37.12C59.3651 36.229 58.6191 35.5396 57.7076 35.3207C56.8568 35.1164 55.9929 35.3501 55.3969 35.9461L50.5796 40.7634C50.3901 40.9527 50.1405 40.9801 49.965 40.9692C49.6586 40.9507 49.3434 40.8005 49.1004 40.5575L43.9075 35.3606C44.7475 35.0949 45.5053 34.6376 46.1225 34.0206L46.2547 33.8883C47.3865 32.7565 47.954 31.2095 47.8527 29.5326C47.7552 27.9177 47.0424 26.369 45.8453 25.1721C44.6483 23.9752 43.0997 23.2621 41.4848 23.1646C39.8072 23.0639 38.2608 23.6308 37.1292 24.7625L36.9969 24.8948C36.3797 25.5121 35.9224 26.27 35.6568 27.1098L30.4541 21.911C30.2107 21.6677 30.0606 21.3524 30.042 21.046C30.0313 20.8702 30.0586 20.6208 30.2478 20.4314L35.0652 15.6141C35.6612 15.0181 35.8949 14.1543 35.6906 13.3032C35.4716 12.3917 34.7821 11.6458 33.8913 11.3565C33.2781 11.1573 32.7019 10.8001 32.2255 10.3237L32.076 10.1741C30.6269 8.72508 30.4432 6.55114 31.6665 5.32783C32.8895 4.10452 35.0639 4.28813 36.5128 5.73733L36.6621 5.8866C37.1387 6.36315 37.496 6.9393 37.6952 7.55267C37.9846 8.44364 38.7305 9.13308 39.642 9.35186C40.4929 9.55613 41.3568 9.3223 41.9528 8.72645L46.7699 3.90914C47.1153 3.56421 47.7927 3.65848 48.2495 4.11533L53.5655 9.43149C54.2394 10.1053 55.2067 10.3802 56.0896 10.1482C56.909 9.93307 57.534 9.31833 57.7611 8.50384C57.8907 8.03975 58.1241 7.63667 58.455 7.30584L58.5873 7.17354C59.8103 5.95022 61.9847 6.13384 63.4336 7.58304C64.8826 9.03211 65.0664 11.206 63.8431 12.4294L63.7108 12.5617C63.38 12.8926 62.9769 13.126 62.5129 13.2555C61.6984 13.4827 61.0837 14.1076 60.8686 14.927C60.6368 15.8101 60.9114 16.7772 61.5853 17.4512L66.8954 22.7614C67.1388 23.0046 67.2889 23.32 67.3075 23.6263C67.3182 23.8021 67.291 24.0516 67.1016 24.2409L64.9059 26.4366L60.3717 21.9023C59.8373 21.368 58.971 21.368 58.4368 21.9023C57.9025 22.4365 57.9023 23.3029 58.4368 23.8372L62.971 28.3715L62.2842 29.0584C61.6883 29.6544 61.4545 30.5183 61.6587 31.3691C61.8777 32.2806 62.5671 33.0266 63.4579 33.316C64.0713 33.5152 64.6473 33.8724 65.124 34.3491L65.2733 34.4984C66.7228 35.9476 66.9064 38.1218 65.6831 39.3448Z" fill="black" stroke="white" mask="url(#path-42-inside-2_177_2703)"/>
<path d="M550.356 94.9165V101.938H548.55V94.897C548.55 93.6991 548.306 92.8527 547.817 92.3579C547.336 91.8631 546.499 91.6157 545.308 91.6157H540.757V89.9556H545.337C546.535 89.9556 547.502 90.1248 548.237 90.4634C548.973 90.7954 549.51 91.326 549.849 92.0552C550.187 92.7778 550.356 93.7316 550.356 94.9165ZM542.749 94.1548V101.938H540.952V94.1548H542.749ZM554.731 104.194V105.336H553.657V104.194H552.573V103.159H555.776V104.194H554.731ZM555.034 89.9556V96.2544H553.237V89.9556H555.034ZM564.741 89.7603C566.317 89.7603 567.466 90.242 568.188 91.2056C568.918 92.1626 569.282 93.686 569.282 95.7759V101.938H563.403V100.278H567.466V96.0005C567.466 94.4054 567.261 93.2466 566.851 92.5239C566.44 91.8013 565.744 91.4399 564.761 91.4399C563.882 91.4399 563.159 91.8371 562.593 92.6313C562.02 93.4386 561.496 94.8416 561.021 96.8403L559.8 101.938H557.866L559.204 96.6938C559.354 96.0819 559.507 95.5285 559.663 95.0337C559.819 94.5389 559.972 94.0994 560.122 93.7153L557.681 89.9556H559.8L561.021 91.938C561.528 91.1698 562.072 90.6164 562.651 90.2778C563.231 89.9328 563.927 89.7603 564.741 89.7603ZM576.392 102.895C576.392 102.674 576.466 102.488 576.616 102.338C576.766 102.189 576.951 102.114 577.173 102.114C577.394 102.114 577.58 102.192 577.729 102.348C577.879 102.504 577.954 102.687 577.954 102.895C577.954 103.103 577.876 103.286 577.72 103.442C577.563 103.598 577.381 103.676 577.173 103.676C576.965 103.676 576.782 103.598 576.626 103.442C576.47 103.292 576.392 103.11 576.392 102.895ZM578.657 102.895C578.657 102.674 578.732 102.488 578.882 102.338C579.032 102.189 579.211 102.114 579.419 102.114C579.64 102.114 579.826 102.189 579.976 102.338C580.125 102.488 580.2 102.674 580.2 102.895C580.2 103.116 580.122 103.302 579.966 103.452C579.81 103.601 579.627 103.676 579.419 103.676C579.211 103.676 579.032 103.598 578.882 103.442C578.732 103.286 578.657 103.103 578.657 102.895ZM577.515 104.917C577.515 104.708 577.593 104.529 577.749 104.379C577.905 104.23 578.088 104.155 578.296 104.155C578.504 104.155 578.687 104.23 578.843 104.379C578.999 104.529 579.077 104.708 579.077 104.917C579.077 105.125 578.999 105.307 578.843 105.463C578.693 105.62 578.511 105.698 578.296 105.698C578.075 105.698 577.889 105.62 577.739 105.463C577.59 105.307 577.515 105.125 577.515 104.917ZM579.37 94.9165V101.938H577.563V94.897C577.563 93.7121 577.323 92.869 576.841 92.3677C576.366 91.8664 575.529 91.6157 574.331 91.6157H570.669V89.9556H574.351C575.549 89.9556 576.515 90.1248 577.251 90.4634C577.987 90.7954 578.524 91.326 578.862 92.0552C579.201 92.7778 579.37 93.7316 579.37 94.9165ZM590.854 95.2778C590.854 94.0474 590.584 93.1294 590.044 92.5239C589.504 91.9185 588.654 91.6157 587.495 91.6157H584.8V94.9946H587.173V96.6548H582.974V89.9556H587.515C589.259 89.9556 590.555 90.3918 591.401 91.2642C592.254 92.13 592.681 93.481 592.681 95.3169V96.1177C592.681 99.9979 590.845 101.938 587.173 101.938H583.081V100.278H587.222C588.459 100.278 589.373 99.936 589.966 99.2524C590.558 98.5623 590.854 97.5239 590.854 96.1372V95.2778ZM586.235 93.3247C586.235 93.0968 586.313 92.9113 586.47 92.7681C586.626 92.6183 586.808 92.5435 587.017 92.5435C587.225 92.5435 587.407 92.6183 587.563 92.7681C587.72 92.9113 587.798 93.0968 587.798 93.3247C587.798 93.533 587.72 93.7121 587.563 93.8618C587.407 94.005 587.225 94.0767 587.017 94.0767C586.808 94.0767 586.626 94.005 586.47 93.8618C586.313 93.7121 586.235 93.533 586.235 93.3247ZM543.306 124.083C543.084 124.74 542.733 125.215 542.251 125.508C541.769 125.795 541.011 125.938 539.976 125.938H539.868V124.278H540.034C540.483 124.278 540.841 124.193 541.108 124.024C541.369 123.855 541.554 123.597 541.665 123.252C541.776 122.901 541.831 122.37 541.831 121.661V115.616H539.976V113.956H546.45C548.247 113.956 549.536 114.34 550.317 115.108C551.099 115.87 551.489 117.139 551.489 118.917V125.938H549.692V118.897C549.692 117.699 549.448 116.853 548.96 116.358C548.478 115.863 547.635 115.616 546.431 115.616H543.628V121.299C543.628 122.497 543.521 123.425 543.306 124.083ZM556.597 113.956V125.938H554.8V113.956H556.597ZM567.7 120.118C567.7 123.998 565.864 125.938 562.192 125.938H559.077V124.278H562.231C563.475 124.278 564.393 123.933 564.985 123.243C565.578 122.553 565.874 121.517 565.874 120.137V119.756C565.874 118.37 565.575 117.334 564.976 116.651C564.383 115.961 563.468 115.616 562.231 115.616H559.077V113.956H562.192C565.864 113.956 567.7 115.896 567.7 119.776V120.118ZM571.89 113.956V120.254H570.093V113.956H571.89ZM577.319 122.002L576.538 125.938H574.644L575.464 122.042C575.698 120.922 575.913 120.134 576.108 119.678C576.304 119.216 576.548 118.842 576.841 118.555C577.14 118.269 577.541 118.025 578.042 117.823L575.22 113.956H577.437L581.841 120.02C582.329 119.564 582.716 119.014 583.003 118.37C583.296 117.719 583.488 116.973 583.579 116.133L583.804 113.956H585.659L585.435 116.094C585.363 116.81 585.233 117.439 585.044 117.979C584.914 118.35 584.757 118.705 584.575 119.043C584.393 119.375 584.159 119.721 583.872 120.079C583.592 120.437 583.228 120.837 582.778 121.28L586.304 125.938H584.019L578.862 118.936C578.341 119.19 577.97 119.629 577.749 120.254C577.684 120.417 577.616 120.645 577.544 120.938C577.479 121.231 577.404 121.586 577.319 122.002Z" fill="black"/>
<path d="M566.281 71.0094C564.591 71.0094 563.006 70.3453 561.813 69.1528L556.409 63.7488C555.67 63.0091 554.688 62.6016 553.647 62.6016H545.994C542.507 62.6016 539.669 59.7638 539.669 56.2768V48.6237C539.669 47.5822 539.261 46.601 538.522 45.8614L533.118 40.4574C530.657 37.997 530.657 33.9817 533.118 31.5213L538.522 26.1173C539.261 25.3776 539.669 24.3965 539.669 23.3549V15.7018C539.669 12.2149 542.507 9.37708 545.994 9.37708H553.647C554.688 9.37708 555.67 8.96952 556.409 8.22987L561.813 2.82591C563.006 1.63341 564.591 0.969238 566.281 0.969238C567.972 0.969238 569.557 1.63341 570.749 2.82591L576.153 8.22987C576.893 8.96952 577.874 9.37708 578.916 9.37708H586.569C590.056 9.37708 592.893 12.2149 592.893 15.7018V23.3549C592.893 24.3965 593.301 25.3776 594.041 26.1173L599.445 31.5213C601.905 33.9817 601.905 37.997 599.445 40.4574L594.041 45.8614C593.301 46.601 592.893 47.5822 592.893 48.6237V56.2768C592.893 59.7638 590.056 62.6016 586.569 62.6016H578.916C577.874 62.6016 576.893 63.0091 576.153 63.7488L570.749 69.1528C569.557 70.3453 567.972 71.0094 566.281 71.0094ZM545.994 11.7923C543.835 11.7923 542.084 13.5433 542.084 15.7018V23.3549C542.084 25.0456 541.42 26.6305 540.227 27.823L534.824 33.227C533.299 34.7516 533.299 37.2271 534.824 38.7517L540.227 44.1557C541.42 45.3482 542.084 46.9331 542.084 48.6237V56.2768C542.084 58.4354 543.835 60.1864 545.994 60.1864H553.647C555.337 60.1864 556.922 60.8506 558.115 62.0431L563.519 67.447C564.259 68.1867 565.24 68.5943 566.281 68.5943C567.323 68.5943 568.304 68.1867 569.044 67.447L574.448 62.0431C575.64 60.8506 577.225 60.1864 578.916 60.1864H586.569C588.727 60.1864 590.478 58.4354 590.478 56.2768V48.6237C590.478 46.9331 591.142 45.3482 592.335 44.1557L597.739 38.7517C599.264 37.2271 599.264 34.7516 597.739 33.227L592.335 27.823C591.142 26.6305 590.478 25.0456 590.478 23.3549V15.7018C590.478 13.5433 588.727 11.7923 586.569 11.7923H578.916C577.225 11.7923 575.64 11.1281 574.448 9.93559L569.044 4.53163C568.304 3.79198 567.323 3.38442 566.281 3.38442C565.24 3.38442 564.259 3.79198 563.519 4.53163L558.115 9.93559C556.922 11.1281 555.337 11.7923 553.647 11.7923H545.994Z" fill="black" stroke="white"/>
<path d="M566.281 58.0428C554.115 58.0428 544.228 48.1405 544.228 35.9892C544.228 23.8378 554.115 13.9355 566.281 13.9355C578.448 13.9355 588.335 23.8227 588.335 35.9892C588.335 48.1556 578.448 58.0428 566.281 58.0428ZM566.281 16.3507C555.443 16.3507 546.643 25.1661 546.643 35.9892C546.643 46.8122 555.443 55.6276 566.281 55.6276C577.119 55.6276 585.92 46.8122 585.92 35.9892C585.92 25.1661 577.119 16.3507 566.281 16.3507Z" fill="black" stroke="white"/>
<path d="M574.734 48.065H557.828C557.285 48.065 556.817 47.7028 556.666 47.1895L551.835 30.1776C551.7 29.6946 551.881 29.1663 552.288 28.8644C552.696 28.5625 553.254 28.5474 553.662 28.8342L559.866 32.9702L565.24 24.3661C565.466 24.0189 565.843 23.7925 566.266 23.7925C566.689 23.7925 567.066 24.0038 567.293 24.3661L572.666 32.9702L578.87 28.8342C579.293 28.5474 579.836 28.5625 580.244 28.8644C580.651 29.1663 580.833 29.6795 580.697 30.1776L575.866 47.1895C575.746 47.7028 575.278 48.065 574.734 48.065ZM558.734 45.6499H573.829L577.512 32.6683L572.998 35.6872C572.727 35.8684 572.395 35.9288 572.078 35.8684C571.761 35.7929 571.474 35.6118 571.308 35.325L566.281 27.2945L561.27 35.3099C561.104 35.5816 560.817 35.7778 560.5 35.8533C560.183 35.9288 559.851 35.8533 559.579 35.6721L555.066 32.6532L558.734 45.6499Z" fill="black" stroke="white"/>
<path d="M814.374 94.9165V101.938H812.567V94.897C812.567 93.6991 812.323 92.8527 811.835 92.3579C811.353 91.8631 810.517 91.6157 809.325 91.6157H804.774V89.9556H809.354C810.552 89.9556 811.519 90.1248 812.255 90.4634C812.991 90.7954 813.528 91.326 813.866 92.0552C814.205 92.7778 814.374 93.7316 814.374 94.9165ZM806.767 94.1548V101.938H804.97V94.1548H806.767ZM823.925 104.194V105.336H822.851V104.194H821.767V103.159H824.97V104.194H823.925ZM824.442 94.9165V101.938H822.636V94.897C822.636 93.7121 822.395 92.869 821.913 92.3677C821.438 91.8664 820.601 91.6157 819.403 91.6157H815.741V89.9556H819.423C820.621 89.9556 821.588 90.1248 822.323 90.4634C823.059 90.7954 823.596 91.326 823.935 92.0552C824.273 92.7778 824.442 93.7316 824.442 94.9165ZM833.085 102.133C831.425 102.133 830.204 101.717 829.423 100.883C828.642 100.043 828.251 98.7544 828.251 97.0161V89.9556H830.048V96.9575C830.048 98.1685 830.285 99.0539 830.761 99.6138C831.243 100.174 832.027 100.454 833.114 100.454C833.967 100.454 834.66 100.281 835.194 99.936C835.728 99.591 836.119 99.0474 836.366 98.3052C836.62 97.5565 836.747 96.5734 836.747 95.356C836.747 94.0018 836.604 93.0122 836.317 92.3872C836.031 91.7557 835.543 91.4399 834.853 91.4399C834.188 91.4399 833.547 91.6515 832.929 92.0747V90.356C833.43 89.9588 834.13 89.7603 835.028 89.7603C836.363 89.7603 837.297 90.1997 837.831 91.0786C838.365 91.951 838.632 93.3768 838.632 95.356C838.632 97.6932 838.186 99.4087 837.294 100.502C836.402 101.59 834.999 102.133 833.085 102.133ZM843.036 102.895C843.036 102.68 843.114 102.495 843.271 102.338C843.42 102.189 843.603 102.114 843.817 102.114C844.039 102.114 844.224 102.192 844.374 102.348C844.524 102.504 844.599 102.687 844.599 102.895C844.599 103.103 844.521 103.282 844.364 103.432C844.208 103.582 844.026 103.657 843.817 103.657C843.609 103.657 843.427 103.582 843.271 103.432C843.114 103.282 843.036 103.103 843.036 102.895ZM843.036 104.917C843.036 104.695 843.114 104.51 843.271 104.36C843.427 104.21 843.609 104.135 843.817 104.135C844.026 104.135 844.208 104.213 844.364 104.37C844.521 104.526 844.599 104.708 844.599 104.917C844.599 105.125 844.521 105.307 844.364 105.463C844.215 105.62 844.032 105.698 843.817 105.698C843.596 105.698 843.41 105.623 843.261 105.473C843.111 105.323 843.036 105.138 843.036 104.917ZM841.601 100.356C842.851 99.8937 843.918 99.3078 844.804 98.5981C845.696 97.895 846.373 97.1268 846.835 96.2935C847.304 95.4601 847.538 94.6138 847.538 93.7544C847.538 92.3286 846.776 91.6157 845.253 91.6157H840.399V85.6782H842.196V89.9556H845.438C848.049 89.9556 849.354 91.1177 849.354 93.4419C849.354 94.6398 849.068 95.7889 848.495 96.8892C847.922 97.9894 847.115 98.979 846.073 99.8579C844.836 100.913 843.345 101.752 841.601 102.377V100.356ZM853.817 89.9556V101.938H852.021V89.9556H853.817ZM849.638 95.0825C849.638 94.8547 849.716 94.6691 849.872 94.5259C850.028 94.3761 850.211 94.3013 850.419 94.3013C850.627 94.3013 850.81 94.3761 850.966 94.5259C851.122 94.6691 851.2 94.8547 851.2 95.0825C851.2 95.2909 851.122 95.4699 850.966 95.6196C850.81 95.7629 850.627 95.8345 850.419 95.8345C850.211 95.8345 850.028 95.7629 849.872 95.6196C849.716 95.4699 849.638 95.2909 849.638 95.0825ZM858.837 98.0024L858.056 101.938H856.161L856.981 98.0415C857.216 96.9217 857.431 96.134 857.626 95.6782C857.821 95.216 858.065 94.8416 858.358 94.5552C858.658 94.2687 859.058 94.0246 859.56 93.8228L856.737 89.9556H858.954L863.358 96.02C863.847 95.5643 864.234 95.0142 864.521 94.3696C864.813 93.7186 865.006 92.9731 865.097 92.1333L865.321 89.9556H867.177L866.952 92.0942C866.881 92.8104 866.75 93.4386 866.562 93.979C866.431 94.3501 866.275 94.7049 866.093 95.0435C865.91 95.3755 865.676 95.7205 865.39 96.0786C865.11 96.4367 864.745 96.8371 864.296 97.2798L867.821 101.938H865.536L860.38 94.936C859.859 95.1899 859.488 95.6294 859.267 96.2544C859.201 96.4172 859.133 96.645 859.062 96.938C858.996 97.231 858.922 97.5858 858.837 98.0024ZM812.372 118.917V129.698H810.565V118.897C810.565 117.712 810.325 116.869 809.843 116.368C809.368 115.866 808.531 115.616 807.333 115.616H803.671V113.956H807.353C808.55 113.956 809.517 114.125 810.253 114.463C810.989 114.795 811.526 115.326 811.864 116.055C812.203 116.778 812.372 117.732 812.372 118.917ZM822.978 127.159V128.194H819.774V127.159H822.978ZM822.45 118.917V125.938H820.644V118.897C820.644 117.712 820.403 116.869 819.921 116.368C819.446 115.866 818.609 115.616 817.411 115.616H813.749V113.956H817.431C818.629 113.956 819.595 114.125 820.331 114.463C821.067 114.795 821.604 115.326 821.942 116.055C822.281 116.778 822.45 117.732 822.45 118.917Z" fill="black"/>
<path d="M804.147 40.3058H803.897L803.897 40.5558L803.897 56.3122C803.897 58.6424 804.822 60.8773 806.47 62.5251C808.118 64.1729 810.353 65.0984 812.683 65.0984H812.756H812.829H812.903H812.976H813.05H813.124H813.198H813.273H813.347H813.422H813.497H813.572H813.647H813.723H813.799H813.875H813.951H814.027H814.103H814.18H814.257H814.334H814.411H814.489H814.566H814.644H814.722H814.8H814.878H814.957H815.035H815.114H815.193H815.272H815.351H815.431H815.511H815.59H815.67H815.751H815.831H815.911H815.992H816.073H816.154H816.235H816.316H816.398H816.48H816.561H816.643H816.726H816.808H816.89H816.973H817.056H817.139H817.222H817.305H817.388H817.472H817.556H817.64H817.724H817.808H817.892H817.976H818.061H818.146H818.231H818.316H818.401H818.486H818.572H818.657H818.743H818.829H818.915H819.001H819.087H819.174H819.26H819.347H819.434H819.521H819.608H819.695H819.783H819.87H819.958H820.046H820.133H820.221H820.31H820.398H820.486H820.575H820.663H820.752H820.841H820.93H821.019H821.109H821.198H821.287H821.377H821.467H821.557H821.647H821.737H821.827H821.917H822.008H822.098H822.189H822.279H822.37H822.461H822.552H822.643H822.735H822.826H822.918H823.009H823.101H823.193H823.285H823.377H823.469H823.561H823.653H823.746H823.838H823.931H824.023H824.116H824.209H824.302H824.395H824.488H824.582H824.675H824.768H824.862H824.955H825.049H825.143H825.237H825.331H825.425H825.519H825.613H825.707H825.802H825.896H825.99H826.085H826.18H826.274H826.369H826.464H826.559H826.654H826.749H826.844H826.94H827.035H827.13H827.226H827.321H827.417H827.513H827.608H827.704H827.8H827.896H827.992H828.088H828.184H828.28H828.376H828.473H828.569H828.665H828.762H828.858H828.955H829.051H829.148H829.245H829.342H829.438H829.535H829.632H829.729H829.826H829.923H830.02H830.118H830.215H830.312H830.409H830.507H830.604H830.701H830.799H830.896H830.994H831.091H831.189H831.287H831.384H831.482H831.58H831.677H831.775H831.873H831.971H832.069H832.167H832.265H832.363H832.461H832.559H832.657H832.755H832.853H832.951H833.049H833.147H833.246H833.344H833.442H833.54H833.638H833.737H833.835H833.933H834.032H834.13H834.228H834.327H834.425H834.523H834.622H834.72H834.819H834.917H835.015H835.114H835.212H835.311H835.409H835.508H835.606H835.704H835.803H835.901H836H836.098H836.197H836.295H836.393H836.492H836.59H836.689H836.787H836.885H836.984H837.082H837.181H837.279H837.377H837.476H837.574H837.672H837.77H837.869H837.967H838.065H838.163H838.262H838.36H838.458H838.556H838.654H838.752H838.85H838.948H839.046H839.144H839.242H839.34H839.438H839.536H839.634H839.731H839.829H839.927H840.025H840.122H840.22H840.318H840.415H840.513H840.61H840.708H840.805H840.902H841H841.097H841.194H841.291H841.389H841.486H841.583H841.68H841.777H841.874H841.97H842.067H842.164H842.261H842.357H842.454H842.551H842.647H842.744H842.84H842.936H843.033H843.129H843.225H843.321H843.417H843.513H843.609H843.705H843.801H843.896H843.992H844.088H844.183H844.279H844.374H844.469H844.565H844.66H844.755H844.85H844.945H845.04H845.134H845.229H845.324H845.418H845.513H845.607H845.702H845.796H845.89H845.984H846.078H846.172H846.266H846.36H846.454H846.547H846.641H846.734H846.827H846.921H847.014H847.107H847.2H847.293H847.385H847.478H847.571H847.663H847.756H847.848H847.94H848.032H848.124H848.216H848.308H848.4H848.491H848.583H848.674H848.765H848.857H848.948H849.039H849.129H849.22H849.311H849.401H849.492H849.582H849.672H849.762H849.852H849.942H850.032H850.122H850.211H850.3H850.39H850.479H850.568H850.657H850.745H850.834H850.923H851.011H851.099H851.187H851.276H851.363H851.451H851.539H851.626H851.714H851.801H851.888H851.975H852.062H852.149H852.235H852.322H852.408H852.494H852.58H852.666H852.752H852.837H852.923H853.008H853.093H853.178H853.263H853.348H853.433H853.517H853.601H853.685H853.769H853.853H853.937H854.021H854.104H854.187H854.27H854.353H854.436H854.519H854.601H854.683H854.765H854.847H854.929H855.011H855.092H855.174H855.255H855.336H855.417H855.497H855.578H855.658H855.738H855.819H855.898H855.978H856.057H856.137H856.216H856.295H856.374H856.452H856.531H856.609H856.687H856.765H856.843H856.92H856.998H857.075H857.152H857.229H857.305H857.382H857.458H857.534H857.61H857.686H857.761H857.837H857.912H857.987H858.062H858.136H858.211H858.285H858.359H858.433H858.506H858.58H858.653H858.726C861.056 65.0984 863.291 64.1729 864.939 62.5251C866.586 60.8773 867.512 58.6424 867.512 56.3122V40.5558V40.3058H867.262H804.147ZM866.605 64.1913L866.782 64.3681L866.605 64.1914C864.515 66.2812 861.681 67.4553 858.726 67.4553H812.683C809.728 67.4553 806.894 66.2812 804.804 64.1913C802.714 62.1019 801.54 59.2674 801.54 56.3122V39.1273C801.54 38.4767 802.068 37.9492 802.719 37.9492H868.69C869.341 37.9492 869.869 38.4767 869.869 39.1273V56.3122C869.869 59.2674 868.695 62.1018 866.605 64.1913Z" fill="black" stroke="white" stroke-width="0.5"/>
<path d="M802.82 46.6256L802.82 46.6256C802.172 46.6816 801.6 46.2008 801.545 45.553L801.545 45.5529C801.489 44.905 801.969 44.3335 802.617 44.2778L802.617 44.2778C803.556 44.1967 804.189 44.0835 804.777 43.9782C804.934 43.9501 805.088 43.9225 805.244 43.8963C805.979 43.7726 806.779 43.6733 808.203 43.6733C809.893 43.6733 811.595 44.1599 813.332 44.6806L813.332 44.6806C813.404 44.7021 813.475 44.7236 813.547 44.7452C814.93 45.161 816.353 45.5886 817.784 45.5886C819.215 45.5886 820.637 45.1612 822.019 44.7455C822.091 44.7238 822.163 44.7022 822.235 44.6806L822.164 44.4411L822.235 44.6806C823.972 44.1599 825.674 43.6733 827.364 43.6733C829.054 43.6733 830.756 44.1599 832.493 44.6806L832.565 44.4411L832.493 44.6806C832.565 44.7021 832.636 44.7236 832.708 44.7452C834.091 45.161 835.513 45.5886 836.945 45.5886C838.376 45.5886 839.798 45.161 841.181 44.7452C841.253 44.7236 841.325 44.7021 841.397 44.6806L841.325 44.4411L841.397 44.6806C843.133 44.1599 844.835 43.6733 846.525 43.6733C848.215 43.6733 849.917 44.1599 851.654 44.6806L851.654 44.6806C851.726 44.7022 851.798 44.724 851.871 44.7457C853.253 45.1614 854.675 45.5886 856.105 45.5886C857.534 45.5886 858.595 45.2737 859.617 44.9706C859.649 44.9611 859.681 44.9516 859.713 44.942L859.713 44.942C861.003 44.5597 862.269 44.1982 863.99 44.1982C865.923 44.1982 867.077 44.6196 868.135 45.0062C868.439 45.1172 868.735 45.2254 869.04 45.3199C869.661 45.5128 870.009 46.1735 869.816 46.7944L869.816 46.7945C869.623 47.4157 868.962 47.7636 868.341 47.5708L868.267 47.8095L868.341 47.5708C868.092 47.4933 867.839 47.3962 867.571 47.2928C866.698 46.9566 865.655 46.5551 863.99 46.5551C862.562 46.5551 861.5 46.87 860.479 47.1731C860.447 47.1826 860.415 47.1922 860.383 47.2017C859.093 47.5837 857.827 47.9452 856.105 47.9452C854.416 47.9452 852.714 47.4586 850.977 46.9379L850.905 47.1774L850.977 46.9379C850.905 46.9165 850.834 46.8949 850.762 46.8733C849.379 46.4575 847.956 46.0299 846.525 46.0299C845.094 46.0299 843.671 46.4575 842.288 46.8733C842.217 46.8949 842.145 46.9165 842.073 46.9379L842.145 47.1774L842.073 46.9379C840.337 47.4586 838.635 47.9452 836.945 47.9452C835.255 47.9452 833.552 47.4586 831.816 46.9379L831.816 46.9379C831.744 46.9165 831.673 46.8949 831.601 46.8733C830.218 46.4575 828.796 46.0299 827.364 46.0299C825.933 46.0299 824.511 46.4575 823.128 46.8733C823.056 46.8949 822.984 46.9165 822.912 46.9379L822.984 47.1774L822.912 46.9379C821.176 47.4586 819.474 47.9452 817.784 47.9452C816.094 47.9452 814.392 47.4586 812.655 46.9379L812.583 47.1774L812.655 46.9379C812.583 46.9164 812.511 46.8947 812.439 46.8731C811.056 46.4574 809.635 46.0299 808.203 46.0299C806.812 46.0299 806.02 46.1315 805.291 46.2583C805.141 46.2843 804.995 46.3112 804.848 46.3383C804.283 46.4423 803.701 46.5496 802.82 46.6256Z" fill="black" stroke="white" stroke-width="0.5"/>
<path d="M813.142 55.9321H810.156C809.505 55.9321 808.977 55.404 808.977 54.7537C808.977 54.1033 809.505 53.5752 810.156 53.5752H813.142C813.793 53.5752 814.321 54.1033 814.321 54.7537C814.321 55.404 813.793 55.9321 813.142 55.9321Z" fill="black" stroke="white" stroke-width="0.5"/>
<path d="M825.263 61.188H822.277C821.626 61.188 821.098 60.6599 821.098 60.0095C821.098 59.3591 821.626 58.8311 822.277 58.8311H825.263C825.914 58.8311 826.442 59.3591 826.442 60.0095C826.442 60.6599 825.914 61.188 825.263 61.188Z" fill="black" stroke="white" stroke-width="0.5"/>
<path d="M835.888 54.4233H832.901C832.251 54.4233 831.723 53.8953 831.723 53.2449C831.723 52.5945 832.251 52.0664 832.901 52.0664H835.888C836.539 52.0664 837.067 52.5945 837.067 53.2449C837.067 53.8953 836.539 54.4233 835.888 54.4233Z" fill="black" stroke="white" stroke-width="0.5"/>
<path d="M849.092 60.6671H846.105C845.455 60.6671 844.927 60.1391 844.927 59.4887C844.927 58.8386 845.455 58.3105 846.105 58.3105H849.092C849.742 58.3105 850.27 58.8387 850.27 59.4887C850.27 60.1391 849.742 60.6671 849.092 60.6671Z" fill="black" stroke="white" stroke-width="0.5"/>
<path d="M864.127 56.7829H861.14C860.49 56.7829 859.962 56.2548 859.962 55.6044C859.962 54.9544 860.49 54.4263 861.14 54.4263H864.127C864.777 54.4263 865.305 54.9544 865.305 55.6044C865.305 56.2548 864.777 56.7829 864.127 56.7829Z" fill="black" stroke="white" stroke-width="0.5"/>
<path d="M857.267 15.4415L857.266 15.4414C855.564 14.7181 854.012 13.6389 852.418 12.5297C851.96 12.2111 851.498 11.89 851.029 11.5742L851.168 11.3668L851.029 11.5742C847.529 9.22027 843.528 7.03839 837.315 7.23112L837.315 7.23112C836.761 7.24809 836.294 7.64929 836.193 8.19489L836.193 8.19492L835.657 11.0981L835.587 11.4767L835.27 11.2589L830.795 8.18732L830.795 8.18724C830.676 8.10537 830.542 8.04622 830.401 8.01251C824.007 6.48939 817.792 8.34828 813.156 10.6064C810.841 11.7342 808.928 12.9581 807.593 13.9C806.926 14.3708 806.404 14.7708 806.049 15.0526C805.872 15.1935 805.736 15.3048 805.646 15.3807C805.6 15.4186 805.566 15.4476 805.543 15.467L805.518 15.4888L805.512 15.4941L805.511 15.495C805.089 15.8661 804.987 16.4834 805.269 16.9698C806.834 19.6751 809.848 22.4877 812.494 24.6353C813.814 25.7061 815.034 26.606 815.925 27.2382C816.37 27.5542 816.733 27.8032 816.984 27.973C817.109 28.0579 817.207 28.123 817.273 28.1668L817.348 28.2162L817.367 28.2286L817.372 28.2317L817.372 28.232C817.614 28.3877 817.905 28.4498 818.188 28.4066L823.897 27.5366L824.333 27.4701L824.166 27.8784L823.381 29.796C823.249 30.118 823.267 30.4817 823.428 30.7898L857.267 15.4415ZM857.267 15.4415C857.586 15.5769 857.829 15.8459 857.932 16.177C858.034 16.5082 857.986 16.8675 857.799 17.1596L857.799 17.1597M857.267 15.4415L857.799 17.1597M857.799 17.1597C857.535 17.5747 857.242 18.1308 856.896 18.786C855.327 21.7647 852.68 26.7898 846.709 29.8943C841.866 32.4123 834.788 33.7077 824.22 31.3933L824.22 31.3933M857.799 17.1597L824.22 31.3933M824.22 31.3933C823.88 31.3189 823.59 31.0981 823.428 30.7899L824.22 31.3933ZM855.06 17.2731L855.172 17.0553L854.956 16.9394C853.645 16.2334 852.393 15.37 851.086 14.4679C850.636 14.1581 850.181 13.8438 849.714 13.5298L849.574 13.7373L849.714 13.5298C846.821 11.5848 843.503 9.69892 838.548 9.58208L838.335 9.57706L838.296 9.7866L837.575 13.6891C837.503 14.0814 837.236 14.4105 836.868 14.5631L836.868 14.5632C836.499 14.7162 836.078 14.6724 835.75 14.4465L835.749 14.4464L835.608 14.6525L835.749 14.4464L835.749 14.4462L835.748 14.4457L835.745 14.4434L835.732 14.4345L835.681 14.3997L835.489 14.2676L834.802 13.796L832.717 12.365L830.632 10.934L829.944 10.4623L829.751 10.3301L829.701 10.2952L829.687 10.2861L829.683 10.2836L829.682 10.2824L829.68 10.2812C829.678 10.2801 829.641 10.26 829.602 10.247L829.602 10.2469L829.596 10.2455C824.771 9.16969 820.094 10.1794 816.274 11.7267C812.454 13.2744 809.473 15.3672 808.028 16.4834L807.838 16.63L807.977 16.8257C810.854 20.889 816.571 24.8662 818.199 25.9549L818.28 26.0089L818.375 25.9942L826.033 24.827C826.452 24.7631 826.874 24.9297 827.137 25.2631C827.399 25.5964 827.462 26.0452 827.301 26.4381C827.301 26.4382 827.301 26.4382 827.301 26.4382L826.215 29.0925L826.099 29.3761L826.4 29.4328C835.233 31.0975 841.335 30.0317 845.622 27.8033L845.507 27.5815L845.622 27.8033C851.16 24.9236 853.575 20.1874 854.98 17.4307C855.007 17.3774 855.034 17.3249 855.06 17.2731Z" fill="black" stroke="white" stroke-width="0.5"/>
<path d="M861.555 12.9357L861.555 12.9357C862.119 12.612 862.84 12.8071 863.164 13.371C863.488 13.9352 863.292 14.6561 862.729 14.9795L862.728 14.9796C851.97 21.1557 836.1 23.3303 822.1 20.933L822.1 20.9329C821.459 20.8232 821.028 20.2137 821.138 19.5726C821.247 18.9319 821.857 18.5003 822.498 18.6103L822.498 18.6103C835.929 20.9099 851.183 18.8901 861.555 12.9357Z" fill="black" stroke="white" stroke-width="0.5"/>
<path d="M1372 100.356C1373.25 99.8937 1374.32 99.3078 1375.21 98.5981C1376.1 97.895 1376.78 97.1268 1377.24 96.2935C1377.71 95.4601 1377.94 94.6138 1377.94 93.7544C1377.94 92.3286 1377.18 91.6157 1375.66 91.6157H1370.8V85.6782H1372.6V89.9556H1375.84C1378.45 89.9556 1379.76 91.1177 1379.76 93.4419C1379.76 94.6398 1379.47 95.7889 1378.9 96.8892C1378.33 97.9894 1377.52 98.979 1376.48 99.8579C1375.24 100.913 1373.75 101.752 1372 102.377V100.356ZM1390.72 103.159V104.194H1387.52V103.159H1390.72ZM1391.43 93.6763C1391.43 94.9002 1391.18 96.0623 1390.69 97.1626C1390.19 98.2629 1389.49 99.2492 1388.59 100.122C1387.68 100.987 1386.61 101.681 1385.36 102.202V100.141C1386.72 99.5291 1387.77 98.6795 1388.5 97.5923C1389.23 96.4985 1389.6 95.2746 1389.6 93.9204C1389.6 93.048 1389.41 92.4458 1389.03 92.1138C1388.65 91.7817 1387.99 91.6157 1387.06 91.6157H1381.93V89.9556H1386.98C1388.59 89.9556 1389.73 90.2453 1390.41 90.8247C1391.09 91.3976 1391.43 92.3481 1391.43 93.6763ZM1384.22 94.1548V105.698H1382.42V94.1548H1384.22ZM1372 124.356C1373.25 123.894 1374.32 123.308 1375.21 122.598C1376.1 121.895 1376.78 121.127 1377.24 120.293C1377.71 119.46 1377.94 118.614 1377.94 117.754C1377.94 116.329 1377.18 115.616 1375.66 115.616H1370.8V109.678H1372.6V113.956H1375.84C1378.45 113.956 1379.76 115.118 1379.76 117.442C1379.76 118.64 1379.47 119.789 1378.9 120.889C1378.33 121.989 1377.52 122.979 1376.48 123.858C1375.24 124.913 1373.75 125.752 1372 126.377V124.356ZM1384.68 128.555C1384.68 128.334 1384.76 128.148 1384.91 127.999C1385.07 127.849 1385.25 127.774 1385.46 127.774C1385.67 127.774 1385.85 127.852 1386.01 128.008C1386.16 128.165 1386.24 128.347 1386.24 128.555C1386.24 128.764 1386.17 128.946 1386.02 129.102C1385.86 129.258 1385.68 129.336 1385.46 129.336C1385.24 129.336 1385.05 129.262 1384.9 129.112C1384.75 128.962 1384.68 128.777 1384.68 128.555ZM1386.95 128.555C1386.95 128.347 1387.02 128.165 1387.17 128.008C1387.32 127.852 1387.5 127.774 1387.71 127.774C1387.92 127.774 1388.1 127.849 1388.25 127.999C1388.41 128.155 1388.49 128.34 1388.49 128.555C1388.49 128.777 1388.41 128.962 1388.26 129.112C1388.11 129.262 1387.93 129.336 1387.71 129.336C1387.5 129.336 1387.32 129.262 1387.17 129.112C1387.02 128.962 1386.95 128.777 1386.95 128.555ZM1390 119.278C1390 118.047 1389.73 117.129 1389.19 116.524C1388.65 115.918 1387.8 115.616 1386.64 115.616H1383.95V118.995H1386.32V120.655H1382.12V113.956H1386.66C1388.41 113.956 1389.7 114.392 1390.55 115.264C1391.4 116.13 1391.83 117.481 1391.83 119.317V120.118C1391.83 123.998 1389.99 125.938 1386.32 125.938H1382.23V124.278H1386.37C1387.61 124.278 1388.52 123.936 1389.11 123.252C1389.71 122.562 1390 121.524 1390 120.137V119.278ZM1385.38 117.325C1385.38 117.097 1385.46 116.911 1385.62 116.768C1385.77 116.618 1385.96 116.543 1386.16 116.543C1386.37 116.543 1386.55 116.618 1386.71 116.768C1386.87 116.911 1386.95 117.097 1386.95 117.325C1386.95 117.533 1386.87 117.712 1386.71 117.862C1386.55 118.005 1386.37 118.077 1386.16 118.077C1385.96 118.077 1385.77 118.005 1385.62 117.862C1385.46 117.712 1385.38 117.533 1385.38 117.325ZM1401.17 127.159V128.194H1397.97V127.159H1401.17ZM1399.37 126.133C1397.71 126.133 1396.49 125.717 1395.7 124.883C1394.92 124.043 1394.53 122.754 1394.53 121.016V113.956H1396.33V120.958C1396.33 122.168 1396.57 123.054 1397.04 123.614C1397.52 124.174 1398.31 124.454 1399.4 124.454C1400.25 124.454 1400.94 124.281 1401.48 123.936C1402.01 123.591 1402.4 123.047 1402.65 122.305C1402.9 121.556 1403.03 120.573 1403.03 119.356C1403.03 118.002 1402.89 117.012 1402.6 116.387C1402.31 115.756 1401.82 115.44 1401.13 115.44C1400.47 115.44 1399.83 115.652 1399.21 116.075V114.356C1399.71 113.959 1400.41 113.76 1401.31 113.76C1402.64 113.76 1403.58 114.2 1404.11 115.079C1404.65 115.951 1404.91 117.377 1404.91 119.356C1404.91 121.693 1404.47 123.409 1403.58 124.502C1402.68 125.59 1401.28 126.133 1399.37 126.133ZM1409.32 126.895C1409.32 126.68 1409.4 126.495 1409.55 126.338C1409.7 126.189 1409.88 126.114 1410.1 126.114C1410.32 126.114 1410.51 126.192 1410.66 126.348C1410.81 126.504 1410.88 126.687 1410.88 126.895C1410.88 127.103 1410.8 127.282 1410.65 127.432C1410.49 127.582 1410.31 127.657 1410.1 127.657C1409.89 127.657 1409.71 127.582 1409.55 127.432C1409.4 127.282 1409.32 127.103 1409.32 126.895ZM1409.32 128.917C1409.32 128.695 1409.4 128.51 1409.55 128.36C1409.71 128.21 1409.89 128.135 1410.1 128.135C1410.31 128.135 1410.49 128.213 1410.65 128.37C1410.8 128.526 1410.88 128.708 1410.88 128.917C1410.88 129.125 1410.8 129.307 1410.65 129.463C1410.5 129.62 1410.31 129.698 1410.1 129.698C1409.88 129.698 1409.69 129.623 1409.54 129.473C1409.39 129.323 1409.32 129.138 1409.32 128.917ZM1407.88 124.356C1409.13 123.894 1410.2 123.308 1411.09 122.598C1411.98 121.895 1412.65 121.127 1413.12 120.293C1413.59 119.46 1413.82 118.614 1413.82 117.754C1413.82 116.329 1413.06 115.616 1411.53 115.616H1406.68V109.678H1408.48V113.956H1411.72C1414.33 113.956 1415.64 115.118 1415.64 117.442C1415.64 118.64 1415.35 119.789 1414.78 120.889C1414.2 121.989 1413.4 122.979 1412.36 123.858C1411.12 124.913 1409.63 125.752 1407.88 126.377V124.356Z" fill="black"/>
<path d="M1367.12 10.1769V63.5158C1367.12 64.3663 1367.46 65.1817 1368.06 65.7831C1368.66 66.3844 1369.48 66.7226 1370.33 66.7234H1417.91C1418.76 66.7226 1419.58 66.3844 1420.18 65.7831C1420.78 65.1817 1421.12 64.3663 1421.12 63.5158V10.1769C1421.12 9.32637 1420.78 8.51098 1420.18 7.90963C1419.58 7.30828 1418.76 6.97008 1417.91 6.96924H1370.33C1369.48 6.97008 1368.66 7.30828 1368.06 7.90963C1367.46 8.51098 1367.12 9.32637 1367.12 10.1769ZM1370.33 9.51197H1384.94V19.3651H1369.66V10.1769C1369.66 10.0005 1369.73 9.83151 1369.86 9.70687C1369.98 9.58223 1370.15 9.51214 1370.33 9.51197ZM1387.48 19.3651V9.51197H1389.87V19.3651H1387.48ZM1369.66 63.5158V59.2567H1373.46V64.1807H1370.33C1370.15 64.1805 1369.98 64.1105 1369.86 63.9858C1369.73 63.8612 1369.66 63.6921 1369.66 63.5158ZM1417.91 64.1807H1376.01V57.9828C1376.01 57.6456 1375.87 57.3222 1375.63 57.0838C1375.4 56.8454 1375.07 56.7114 1374.74 56.7114H1369.66V21.9078H1418.58V63.5158C1418.58 63.6921 1418.51 63.8612 1418.38 63.9858C1418.26 64.1105 1418.09 64.1805 1417.91 64.1807ZM1418.58 10.1769V19.3651H1392.41V9.51197H1417.91C1418.09 9.51214 1418.26 9.58223 1418.38 9.70687C1418.51 9.83151 1418.58 10.0005 1418.58 10.1769Z" fill="black" stroke="white" stroke-width="0.5"/>
<path d="M1394.12 26.7222C1390.9 26.7222 1387.76 27.6761 1385.08 29.4635C1382.41 31.2508 1380.32 33.7912 1379.09 36.7634C1377.86 39.7355 1377.54 43.0061 1378.17 46.1613C1378.79 49.3166 1380.34 52.2149 1382.62 54.4897C1384.89 56.7645 1387.79 58.3137 1390.95 58.9413C1394.1 59.569 1397.37 59.2468 1400.34 58.0157C1403.32 56.7846 1405.86 54.6998 1407.64 52.0249C1409.43 49.3499 1410.38 46.2051 1410.38 42.988C1410.38 38.6755 1408.66 34.5411 1405.62 31.4917C1402.57 28.4423 1398.43 26.727 1394.12 26.7222ZM1394.12 56.7112C1391.4 56.7112 1388.75 55.9063 1386.49 54.3984C1384.24 52.8905 1382.48 50.7472 1381.44 48.2396C1380.4 45.7321 1380.13 42.9728 1380.66 40.3108C1381.19 37.6488 1382.5 35.2035 1384.42 33.2843C1386.33 31.3651 1388.78 30.0581 1391.44 29.5286C1394.1 28.9991 1396.86 29.2708 1399.37 30.3095C1401.88 31.3482 1404.02 33.1071 1405.53 35.3639C1407.04 37.6206 1407.84 40.2738 1407.84 42.988C1407.84 46.6263 1406.39 50.1144 1403.82 52.6871C1401.25 55.2598 1397.76 56.7069 1394.12 56.7112Z" fill="black" stroke="white" stroke-width="0.5"/>
<path d="M1394.12 33.8115C1393.78 33.8115 1393.46 33.9455 1393.22 34.1839C1392.98 34.4223 1392.85 34.7457 1392.85 35.0829C1392.85 35.4201 1392.98 35.7435 1393.22 35.9819C1393.46 36.2203 1393.78 36.3543 1394.12 36.3543C1395.88 36.3563 1397.56 37.0559 1398.81 38.2995C1400.05 39.5432 1400.75 41.2294 1400.75 42.9882C1400.75 43.3254 1400.89 43.6488 1401.13 43.8872C1401.36 44.1257 1401.69 44.2596 1402.02 44.2596C1402.36 44.2596 1402.68 44.1257 1402.92 43.8872C1403.16 43.6488 1403.3 43.3254 1403.3 42.9882C1403.29 40.5553 1402.33 38.2227 1400.6 36.5023C1398.88 34.7819 1396.55 33.8142 1394.12 33.8115Z" fill="black" stroke="white" stroke-width="0.5"/>
<path d="M1374.31 14.7245C1374.34 14.8019 1374.39 14.8763 1374.43 14.947C1374.48 15.0175 1374.53 15.0817 1374.59 15.1377C1374.65 15.1974 1374.71 15.2506 1374.78 15.2966C1374.85 15.3422 1374.93 15.3806 1375 15.411C1375.08 15.4431 1375.16 15.4686 1375.24 15.4873C1375.4 15.5212 1375.57 15.5212 1375.73 15.4873C1375.82 15.4686 1375.89 15.4431 1375.97 15.411C1376.05 15.3806 1376.12 15.3422 1376.19 15.2966C1376.26 15.2506 1376.33 15.1974 1376.38 15.1377C1376.44 15.0817 1376.5 15.0175 1376.54 14.947C1376.59 14.8763 1376.63 14.8019 1376.66 14.7245C1376.69 14.6479 1376.72 14.5693 1376.73 14.4893C1376.75 14.4079 1376.76 14.3247 1376.76 14.2413C1376.76 14.0735 1376.73 13.9073 1376.66 13.7523C1376.6 13.5973 1376.5 13.4567 1376.38 13.3387C1376.32 13.2808 1376.26 13.2276 1376.19 13.1798C1376.12 13.1341 1376.05 13.0958 1375.97 13.0653C1375.89 13.0325 1375.82 13.009 1375.73 12.9954C1375.57 12.9573 1375.4 12.9573 1375.24 12.9954C1375.16 13.009 1375.08 13.0325 1375 13.0653C1374.93 13.0958 1374.85 13.1341 1374.78 13.1798C1374.71 13.2276 1374.65 13.2808 1374.59 13.3387C1374.47 13.4567 1374.38 13.5973 1374.31 13.7523C1374.25 13.9073 1374.22 14.0735 1374.22 14.2413C1374.22 14.4069 1374.25 14.5708 1374.31 14.7245Z" fill="black" stroke="white" stroke-width="0.5"/>
<path d="M1379.57 14.7245C1379.61 14.8006 1379.65 14.8749 1379.7 14.9469C1379.79 15.0837 1379.91 15.2022 1380.04 15.2966C1380.12 15.341 1380.19 15.3792 1380.27 15.411C1380.34 15.4431 1380.42 15.4686 1380.5 15.4873C1380.67 15.5212 1380.83 15.5212 1381 15.4873C1381.08 15.4686 1381.16 15.4431 1381.24 15.411C1381.32 15.3792 1381.39 15.3409 1381.46 15.2966C1381.53 15.2491 1381.59 15.1959 1381.65 15.1376C1381.71 15.0783 1381.76 15.0146 1381.81 14.9469C1381.86 14.8762 1381.89 14.8017 1381.93 14.7245C1381.99 14.5708 1382.02 14.4069 1382.02 14.2413C1382.02 13.9037 1381.89 13.5794 1381.65 13.3387C1381.59 13.2822 1381.52 13.2292 1381.46 13.1797C1381.39 13.1354 1381.32 13.0971 1381.24 13.0653C1381.16 13.0324 1381.08 13.009 1381 12.9954C1380.84 12.9573 1380.67 12.9573 1380.5 12.9954C1380.42 13.009 1380.34 13.0325 1380.27 13.0653C1380.19 13.0971 1380.12 13.1353 1380.04 13.1797C1379.98 13.2276 1379.91 13.2808 1379.85 13.3387C1379.62 13.5788 1379.48 13.9029 1379.48 14.2413C1379.48 14.3245 1379.49 14.4074 1379.5 14.4892C1379.52 14.5655 1379.55 14.6482 1379.57 14.7245Z" fill="black" stroke="white" stroke-width="0.5"/>
<path d="M1393.22 42.0905C1393.1 42.2073 1393.01 42.3468 1392.94 42.5007C1392.88 42.6546 1392.85 42.8199 1392.85 42.9868C1392.85 43.0701 1392.86 43.1533 1392.87 43.2347C1392.89 43.317 1392.91 43.3978 1392.94 43.4763C1392.98 43.5516 1393.02 43.624 1393.06 43.6924C1393.11 43.7638 1393.16 43.8299 1393.22 43.8895C1393.46 44.1259 1393.78 44.2584 1394.12 44.2582C1394.46 44.2574 1394.78 44.1252 1395.02 43.8895C1395.08 43.8282 1395.13 43.7622 1395.17 43.6924C1395.22 43.624 1395.26 43.5516 1395.29 43.4763C1395.33 43.3988 1395.35 43.3177 1395.36 43.2347C1395.38 43.1533 1395.39 43.0701 1395.39 42.9868C1395.39 42.6513 1395.26 42.3295 1395.02 42.0905C1394.78 41.8608 1394.46 41.7329 1394.12 41.7329C1393.79 41.7329 1393.47 41.8608 1393.22 42.0905Z" fill="black" stroke="white" stroke-width="0.5"/>
</svg>
