<svg width="71" height="72" viewBox="0 0 71 72" fill="none" xmlns="http://www.w3.org/2000/svg">
<mask id="path-1-inside-1_177_2747" fill="white">
<path d="M42.7321 50.7748C42.673 49.7958 42.2438 48.86 41.5236 48.1399L36.3267 42.9421C37.1662 42.6764 37.9238 42.2192 38.5409 41.6023L38.673 41.47C40.9633 39.1798 40.7795 35.2699 38.2635 32.7537C37.0664 31.5567 35.5178 30.8439 33.9031 30.7463C32.2251 30.6449 30.679 31.2126 29.5474 32.3444L29.4152 32.4765C28.7979 33.0937 28.3406 33.8516 28.0751 34.6914L22.8775 29.4937C21.346 27.9621 18.9464 27.8696 17.5281 29.2875L12.8175 33.9982C12.2411 34.5747 12.0014 35.4126 12.1763 36.2394C12.3664 37.1384 12.9935 37.8736 13.8537 38.2059C14.3967 38.4158 14.8891 38.7391 15.317 39.1669L15.4662 39.3162C16.19 40.04 16.6202 40.9599 16.6772 41.9067C16.7307 42.7912 16.446 43.5924 15.8758 44.1626C15.3055 44.7329 14.504 45.0183 13.6199 44.964C12.6731 44.9069 11.7529 44.4768 11.0293 43.753L10.88 43.6037C10.4522 43.1759 10.1289 42.6835 9.919 42.1406C9.58666 41.2802 8.85152 40.6532 7.95234 40.463C7.12553 40.2882 6.28765 40.5279 5.71108 41.1043L1.00583 45.8098C-0.412042 47.2278 -0.319688 49.6274 1.21202 51.1591L6.40955 56.3568C5.56975 56.6225 4.8119 57.0797 4.1947 57.6968L4.0624 57.8291C1.7723 60.1193 1.95605 64.0292 4.47204 66.5454C5.80782 67.881 7.53586 68.5595 9.2063 68.5592C10.6826 68.5592 12.1139 68.0292 13.1882 66.9547L13.3205 66.8226C13.9377 66.2054 14.3948 65.4477 14.6605 64.6076L19.858 69.8053C20.5783 70.5255 21.5141 70.9546 22.4931 71.0138C22.568 71.0183 22.6429 71.0206 22.7175 71.0206C23.6623 71.0206 24.5597 70.6593 25.2076 70.0115L29.688 65.531C30.0361 66.3774 30.5484 67.1419 31.2118 67.8056L31.3611 67.9549C33.8771 70.4708 37.7871 70.6545 40.0774 68.3644C42.3676 66.0742 42.1839 62.1641 39.6679 59.6481L39.5186 59.4988C38.855 58.8353 38.0905 58.3232 37.244 57.9751L41.7298 53.4893C42.4288 52.7901 42.7941 51.8009 42.7321 50.7748ZM39.795 51.5544L35.0844 56.265C34.5081 56.8414 34.2682 57.6791 34.4431 58.5059C34.6332 59.4051 35.2602 60.1403 36.1205 60.4727C36.6636 60.6826 37.156 61.0059 37.5838 61.4339L37.7331 61.5832C39.1822 63.0322 39.3659 65.2062 38.1426 66.4295C36.9194 67.6528 34.7451 67.4691 33.2963 66.02L33.147 65.8707C32.7192 65.4429 32.3957 64.9505 32.1858 64.4076C31.8535 63.5472 31.1182 62.9202 30.219 62.7301C29.3921 62.5553 28.5544 62.7951 27.9781 63.3714L23.2728 68.0768C23.0835 68.2662 22.8342 68.2938 22.6582 68.2826C22.3519 68.2641 22.0366 68.1139 21.7932 67.8706L19.7082 65.7856L24.2488 61.2451C24.783 60.7108 24.783 59.8445 24.2488 59.31C23.7145 58.7756 22.8481 58.7758 22.3137 59.31L17.7732 63.8506L16.3564 62.4338C15.8383 61.9156 15.1558 61.6353 14.468 61.6353C14.2302 61.6353 13.9916 61.669 13.759 61.7378C12.9178 61.9869 12.3064 62.649 12.1234 63.5089C12.0085 64.049 11.7602 64.5128 11.3853 64.8877L11.253 65.0198C10.0298 66.2431 7.85547 66.0594 6.40668 64.6103C4.95761 63.1613 4.77386 60.9873 5.99704 59.764L6.12934 59.6317C6.50423 59.2568 6.96805 59.0085 7.50808 58.8936C8.36814 58.7106 9.03021 58.099 9.27936 57.2577C9.54726 56.3529 9.28046 55.3578 8.58336 54.6607L3.14693 49.2239C2.90353 48.9806 2.75344 48.6653 2.73483 48.3589C2.72416 48.1831 2.75138 47.9338 2.94061 47.7443L7.42107 43.2639C7.76914 44.1102 8.28139 44.8748 8.94484 45.5385L9.09411 45.6878C11.6102 48.2038 15.5202 48.3874 17.8105 46.0973C20.1006 43.807 19.917 39.8971 17.4009 37.381L17.2516 37.2317C16.588 36.5681 15.8235 36.056 14.977 35.708L19.4628 31.2222C19.8081 30.8771 20.4856 30.9715 20.9423 31.4283L26.379 36.8649C27.0761 37.5621 28.0712 37.8288 28.9762 37.5609C29.8173 37.3119 30.4288 36.6497 30.6119 35.7896C30.7267 35.2497 30.975 34.7859 31.35 34.411L31.4823 34.2787C32.0526 33.7086 32.8535 33.424 33.7382 33.4774C34.685 33.5344 35.6051 33.9646 36.3288 34.6884C37.7778 36.1376 37.9616 38.3117 36.7383 39.5347L36.6061 39.667C36.2312 40.0419 35.7674 40.2902 35.2275 40.4051C34.3674 40.5881 33.7052 41.1995 33.4561 42.0408C33.1882 42.9456 33.4549 43.9409 34.1521 44.6381L39.5888 50.0748C39.8321 50.3181 39.9823 50.6333 40.0008 50.9396C40.0114 51.1156 39.9843 51.3649 39.795 51.5544Z"/>
</mask>
<path d="M42.7321 50.7748C42.673 49.7958 42.2438 48.86 41.5236 48.1399L36.3267 42.9421C37.1662 42.6764 37.9238 42.2192 38.5409 41.6023L38.673 41.47C40.9633 39.1798 40.7795 35.2699 38.2635 32.7537C37.0664 31.5567 35.5178 30.8439 33.9031 30.7463C32.2251 30.6449 30.679 31.2126 29.5474 32.3444L29.4152 32.4765C28.7979 33.0937 28.3406 33.8516 28.0751 34.6914L22.8775 29.4937C21.346 27.9621 18.9464 27.8696 17.5281 29.2875L12.8175 33.9982C12.2411 34.5747 12.0014 35.4126 12.1763 36.2394C12.3664 37.1384 12.9935 37.8736 13.8537 38.2059C14.3967 38.4158 14.8891 38.7391 15.317 39.1669L15.4662 39.3162C16.19 40.04 16.6202 40.9599 16.6772 41.9067C16.7307 42.7912 16.446 43.5924 15.8758 44.1626C15.3055 44.7329 14.504 45.0183 13.6199 44.964C12.6731 44.9069 11.7529 44.4768 11.0293 43.753L10.88 43.6037C10.4522 43.1759 10.1289 42.6835 9.919 42.1406C9.58666 41.2802 8.85152 40.6532 7.95234 40.463C7.12553 40.2882 6.28765 40.5279 5.71108 41.1043L1.00583 45.8098C-0.412042 47.2278 -0.319688 49.6274 1.21202 51.1591L6.40955 56.3568C5.56975 56.6225 4.8119 57.0797 4.1947 57.6968L4.0624 57.8291C1.7723 60.1193 1.95605 64.0292 4.47204 66.5454C5.80782 67.881 7.53586 68.5595 9.2063 68.5592C10.6826 68.5592 12.1139 68.0292 13.1882 66.9547L13.3205 66.8226C13.9377 66.2054 14.3948 65.4477 14.6605 64.6076L19.858 69.8053C20.5783 70.5255 21.5141 70.9546 22.4931 71.0138C22.568 71.0183 22.6429 71.0206 22.7175 71.0206C23.6623 71.0206 24.5597 70.6593 25.2076 70.0115L29.688 65.531C30.0361 66.3774 30.5484 67.1419 31.2118 67.8056L31.3611 67.9549C33.8771 70.4708 37.7871 70.6545 40.0774 68.3644C42.3676 66.0742 42.1839 62.1641 39.6679 59.6481L39.5186 59.4988C38.855 58.8353 38.0905 58.3232 37.244 57.9751L41.7298 53.4893C42.4288 52.7901 42.7941 51.8009 42.7321 50.7748ZM39.795 51.5544L35.0844 56.265C34.5081 56.8414 34.2682 57.6791 34.4431 58.5059C34.6332 59.4051 35.2602 60.1403 36.1205 60.4727C36.6636 60.6826 37.156 61.0059 37.5838 61.4339L37.7331 61.5832C39.1822 63.0322 39.3659 65.2062 38.1426 66.4295C36.9194 67.6528 34.7451 67.4691 33.2963 66.02L33.147 65.8707C32.7192 65.4429 32.3957 64.9505 32.1858 64.4076C31.8535 63.5472 31.1182 62.9202 30.219 62.7301C29.3921 62.5553 28.5544 62.7951 27.9781 63.3714L23.2728 68.0768C23.0835 68.2662 22.8342 68.2938 22.6582 68.2826C22.3519 68.2641 22.0366 68.1139 21.7932 67.8706L19.7082 65.7856L24.2488 61.2451C24.783 60.7108 24.783 59.8445 24.2488 59.31C23.7145 58.7756 22.8481 58.7758 22.3137 59.31L17.7732 63.8506L16.3564 62.4338C15.8383 61.9156 15.1558 61.6353 14.468 61.6353C14.2302 61.6353 13.9916 61.669 13.759 61.7378C12.9178 61.9869 12.3064 62.649 12.1234 63.5089C12.0085 64.049 11.7602 64.5128 11.3853 64.8877L11.253 65.0198C10.0298 66.2431 7.85547 66.0594 6.40668 64.6103C4.95761 63.1613 4.77386 60.9873 5.99704 59.764L6.12934 59.6317C6.50423 59.2568 6.96805 59.0085 7.50808 58.8936C8.36814 58.7106 9.03021 58.099 9.27936 57.2577C9.54726 56.3529 9.28046 55.3578 8.58336 54.6607L3.14693 49.2239C2.90353 48.9806 2.75344 48.6653 2.73483 48.3589C2.72416 48.1831 2.75138 47.9338 2.94061 47.7443L7.42107 43.2639C7.76914 44.1102 8.28139 44.8748 8.94484 45.5385L9.09411 45.6878C11.6102 48.2038 15.5202 48.3874 17.8105 46.0973C20.1006 43.807 19.917 39.8971 17.4009 37.381L17.2516 37.2317C16.588 36.5681 15.8235 36.056 14.977 35.708L19.4628 31.2222C19.8081 30.8771 20.4856 30.9715 20.9423 31.4283L26.379 36.8649C27.0761 37.5621 28.0712 37.8288 28.9762 37.5609C29.8173 37.3119 30.4288 36.6497 30.6119 35.7896C30.7267 35.2497 30.975 34.7859 31.35 34.411L31.4823 34.2787C32.0526 33.7086 32.8535 33.424 33.7382 33.4774C34.685 33.5344 35.6051 33.9646 36.3288 34.6884C37.7778 36.1376 37.9616 38.3117 36.7383 39.5347L36.6061 39.667C36.2312 40.0419 35.7674 40.2902 35.2275 40.4051C34.3674 40.5881 33.7052 41.1995 33.4561 42.0408C33.1882 42.9456 33.4549 43.9409 34.1521 44.6381L39.5888 50.0748C39.8321 50.3181 39.9823 50.6333 40.0008 50.9396C40.0114 51.1156 39.9843 51.3649 39.795 51.5544Z" fill="black" stroke="white" mask="url(#path-1-inside-1_177_2747)"/>
<path d="M26.7911 55.6499C27.0845 55.6499 27.3739 55.7699 27.5816 55.9776C27.7893 56.1852 27.9093 56.4747 27.9093 56.7681C27.9093 57.0615 27.7893 57.351 27.5816 57.5587C27.3739 57.7663 27.0845 57.8863 26.7911 57.8863C26.4964 57.8863 26.2083 57.7664 26.0005 57.5587C25.7928 57.351 25.6729 57.0616 25.6729 56.7681C25.6729 56.4747 25.7928 56.1852 26.0005 55.9776C26.2082 55.7699 26.4976 55.6499 26.7911 55.6499Z" fill="black" stroke="white" stroke-width="0.5"/>
<path d="M55.8457 18.1934C56.1392 18.1934 56.4286 18.3134 56.6363 18.521C56.844 18.7287 56.9639 19.0181 56.9639 19.3116C56.9639 19.605 56.844 19.8944 56.6363 20.1021C56.4286 20.3098 56.1392 20.4298 55.8457 20.4298C55.5523 20.4298 55.2629 20.3098 55.0552 20.1021C54.8475 19.8944 54.7275 19.605 54.7275 19.3116C54.7275 19.0181 54.8475 18.7287 55.0552 18.521C55.2629 18.3134 55.5523 18.1934 55.8457 18.1934Z" fill="black" stroke="white" stroke-width="0.5"/>
<mask id="path-4-inside-2_177_2747" fill="white">
<path d="M67.0593 32.4143C66.316 31.671 65.4167 31.1023 64.4499 30.763L69.0367 26.1763C69.7357 25.4774 70.101 24.4879 70.039 23.4617C69.9799 22.4828 69.5507 21.5469 68.8305 20.8267L63.7355 15.731C64.4539 15.4566 65.107 15.0358 65.6458 14.4969L65.7781 14.3645C68.0682 12.0743 67.8846 8.16439 65.3685 5.64826C62.8526 3.13241 58.9426 2.94866 56.6522 5.23876L56.5199 5.37106C55.981 5.91014 55.56 6.56345 55.2856 7.28204L50.1843 2.18082C48.6526 0.649115 46.253 0.556625 44.8349 1.97463L40.2481 6.5614C39.9088 5.59463 39.3402 4.69531 38.5968 3.95196L38.4476 3.80269C35.9316 1.2867 32.0215 1.10309 29.7313 3.39319C27.4412 5.68342 27.6248 9.59348 30.1406 12.1092L30.2902 12.2587C31.0334 13.002 31.9327 13.5706 32.8996 13.91L28.3127 18.4968C26.8947 19.9148 26.9872 22.3144 28.5193 23.8465L33.9608 29.2839C34.6582 29.9811 35.6537 30.2476 36.5581 29.9799C37.3992 29.7307 38.0107 29.0685 38.1938 28.2086C38.3086 27.6687 38.5569 27.2049 38.9319 26.83L39.0642 26.6977C39.6345 26.1274 40.4371 25.8424 41.3201 25.8962C42.2669 25.9534 43.1869 26.3835 43.9107 27.1073C44.6344 27.8311 45.0645 28.7511 45.1217 29.6979C45.1752 30.5824 44.8904 31.3836 44.3202 31.9539L44.188 32.0861C43.8131 32.461 43.3493 32.7093 42.8094 32.8242C41.9493 33.0072 41.2873 33.6186 41.0381 34.4598C40.7702 35.3644 41.0368 36.3594 41.7337 37.0566L47.1654 42.4925C47.97 43.2972 49.0141 43.7046 50.0297 43.7046C50.9473 43.7046 51.8417 43.3719 52.5149 42.6987L57.1017 38.1119C57.441 39.0786 58.0096 39.978 58.7528 40.7212L58.9022 40.8706C61.4184 43.3866 65.3283 43.5702 67.6185 41.2801C69.9086 38.9899 69.725 35.0798 67.209 32.5639L67.0593 32.4143ZM65.6831 39.3448C64.4599 40.5681 62.2857 40.3844 60.8367 38.9353L60.6875 38.786C60.2108 38.3095 59.8535 37.7333 59.6545 37.12C59.3651 36.229 58.6191 35.5396 57.7076 35.3207C56.8568 35.1164 55.9929 35.3501 55.3969 35.9461L50.5796 40.7634C50.3901 40.9527 50.1405 40.9801 49.965 40.9692C49.6586 40.9507 49.3434 40.8005 49.1004 40.5575L43.9075 35.3606C44.7475 35.0949 45.5053 34.6376 46.1225 34.0206L46.2547 33.8883C47.3865 32.7565 47.954 31.2095 47.8527 29.5326C47.7552 27.9177 47.0424 26.369 45.8453 25.1721C44.6483 23.9752 43.0997 23.2621 41.4848 23.1646C39.8072 23.0639 38.2608 23.6308 37.1292 24.7625L36.9969 24.8948C36.3797 25.5121 35.9224 26.27 35.6568 27.1098L30.4541 21.911C30.2107 21.6677 30.0606 21.3524 30.042 21.046C30.0313 20.8702 30.0586 20.6208 30.2478 20.4314L35.0652 15.6141C35.6612 15.0181 35.8949 14.1543 35.6906 13.3032C35.4716 12.3917 34.7821 11.6458 33.8913 11.3565C33.2781 11.1573 32.7019 10.8001 32.2255 10.3237L32.076 10.1741C30.6269 8.72508 30.4432 6.55114 31.6665 5.32783C32.8895 4.10452 35.0639 4.28813 36.5128 5.73733L36.6621 5.8866C37.1387 6.36315 37.496 6.9393 37.6952 7.55267C37.9846 8.44364 38.7305 9.13308 39.642 9.35186C40.4929 9.55613 41.3568 9.3223 41.9528 8.72645L46.7699 3.90914C47.1153 3.56421 47.7927 3.65848 48.2495 4.11533L53.5655 9.43149C54.2394 10.1053 55.2067 10.3802 56.0896 10.1482C56.909 9.93307 57.534 9.31833 57.7611 8.50384C57.8907 8.03975 58.1241 7.63667 58.455 7.30584L58.5873 7.17354C59.8103 5.95022 61.9847 6.13384 63.4336 7.58304C64.8826 9.03211 65.0664 11.206 63.8431 12.4294L63.7108 12.5617C63.38 12.8926 62.9769 13.126 62.5129 13.2555C61.6984 13.4827 61.0837 14.1076 60.8686 14.927C60.6368 15.8101 60.9114 16.7772 61.5853 17.4512L66.8954 22.7614C67.1388 23.0046 67.2889 23.32 67.3075 23.6263C67.3182 23.8021 67.291 24.0516 67.1016 24.2409L64.9059 26.4366L60.3717 21.9023C59.8373 21.368 58.971 21.368 58.4368 21.9023C57.9025 22.4365 57.9023 23.3029 58.4368 23.8372L62.971 28.3715L62.2842 29.0584C61.6883 29.6544 61.4545 30.5183 61.6587 31.3691C61.8777 32.2806 62.5671 33.0266 63.4579 33.316C64.0713 33.5152 64.6473 33.8724 65.124 34.3491L65.2733 34.4984C66.7228 35.9476 66.9064 38.1218 65.6831 39.3448Z"/>
</mask>
<path d="M67.0593 32.4143C66.316 31.671 65.4167 31.1023 64.4499 30.763L69.0367 26.1763C69.7357 25.4774 70.101 24.4879 70.039 23.4617C69.9799 22.4828 69.5507 21.5469 68.8305 20.8267L63.7355 15.731C64.4539 15.4566 65.107 15.0358 65.6458 14.4969L65.7781 14.3645C68.0682 12.0743 67.8846 8.16439 65.3685 5.64826C62.8526 3.13241 58.9426 2.94866 56.6522 5.23876L56.5199 5.37106C55.981 5.91014 55.56 6.56345 55.2856 7.28204L50.1843 2.18082C48.6526 0.649115 46.253 0.556625 44.8349 1.97463L40.2481 6.5614C39.9088 5.59463 39.3402 4.69531 38.5968 3.95196L38.4476 3.80269C35.9316 1.2867 32.0215 1.10309 29.7313 3.39319C27.4412 5.68342 27.6248 9.59348 30.1406 12.1092L30.2902 12.2587C31.0334 13.002 31.9327 13.5706 32.8996 13.91L28.3127 18.4968C26.8947 19.9148 26.9872 22.3144 28.5193 23.8465L33.9608 29.2839C34.6582 29.9811 35.6537 30.2476 36.5581 29.9799C37.3992 29.7307 38.0107 29.0685 38.1938 28.2086C38.3086 27.6687 38.5569 27.2049 38.9319 26.83L39.0642 26.6977C39.6345 26.1274 40.4371 25.8424 41.3201 25.8962C42.2669 25.9534 43.1869 26.3835 43.9107 27.1073C44.6344 27.8311 45.0645 28.7511 45.1217 29.6979C45.1752 30.5824 44.8904 31.3836 44.3202 31.9539L44.188 32.0861C43.8131 32.461 43.3493 32.7093 42.8094 32.8242C41.9493 33.0072 41.2873 33.6186 41.0381 34.4598C40.7702 35.3644 41.0368 36.3594 41.7337 37.0566L47.1654 42.4925C47.97 43.2972 49.0141 43.7046 50.0297 43.7046C50.9473 43.7046 51.8417 43.3719 52.5149 42.6987L57.1017 38.1119C57.441 39.0786 58.0096 39.978 58.7528 40.7212L58.9022 40.8706C61.4184 43.3866 65.3283 43.5702 67.6185 41.2801C69.9086 38.9899 69.725 35.0798 67.209 32.5639L67.0593 32.4143ZM65.6831 39.3448C64.4599 40.5681 62.2857 40.3844 60.8367 38.9353L60.6875 38.786C60.2108 38.3095 59.8535 37.7333 59.6545 37.12C59.3651 36.229 58.6191 35.5396 57.7076 35.3207C56.8568 35.1164 55.9929 35.3501 55.3969 35.9461L50.5796 40.7634C50.3901 40.9527 50.1405 40.9801 49.965 40.9692C49.6586 40.9507 49.3434 40.8005 49.1004 40.5575L43.9075 35.3606C44.7475 35.0949 45.5053 34.6376 46.1225 34.0206L46.2547 33.8883C47.3865 32.7565 47.954 31.2095 47.8527 29.5326C47.7552 27.9177 47.0424 26.369 45.8453 25.1721C44.6483 23.9752 43.0997 23.2621 41.4848 23.1646C39.8072 23.0639 38.2608 23.6308 37.1292 24.7625L36.9969 24.8948C36.3797 25.5121 35.9224 26.27 35.6568 27.1098L30.4541 21.911C30.2107 21.6677 30.0606 21.3524 30.042 21.046C30.0313 20.8702 30.0586 20.6208 30.2478 20.4314L35.0652 15.6141C35.6612 15.0181 35.8949 14.1543 35.6906 13.3032C35.4716 12.3917 34.7821 11.6458 33.8913 11.3565C33.2781 11.1573 32.7019 10.8001 32.2255 10.3237L32.076 10.1741C30.6269 8.72508 30.4432 6.55114 31.6665 5.32783C32.8895 4.10452 35.0639 4.28813 36.5128 5.73733L36.6621 5.8866C37.1387 6.36315 37.496 6.9393 37.6952 7.55267C37.9846 8.44364 38.7305 9.13308 39.642 9.35186C40.4929 9.55613 41.3568 9.3223 41.9528 8.72645L46.7699 3.90914C47.1153 3.56421 47.7927 3.65848 48.2495 4.11533L53.5655 9.43149C54.2394 10.1053 55.2067 10.3802 56.0896 10.1482C56.909 9.93307 57.534 9.31833 57.7611 8.50384C57.8907 8.03975 58.1241 7.63667 58.455 7.30584L58.5873 7.17354C59.8103 5.95022 61.9847 6.13384 63.4336 7.58304C64.8826 9.03211 65.0664 11.206 63.8431 12.4294L63.7108 12.5617C63.38 12.8926 62.9769 13.126 62.5129 13.2555C61.6984 13.4827 61.0837 14.1076 60.8686 14.927C60.6368 15.8101 60.9114 16.7772 61.5853 17.4512L66.8954 22.7614C67.1388 23.0046 67.2889 23.32 67.3075 23.6263C67.3182 23.8021 67.291 24.0516 67.1016 24.2409L64.9059 26.4366L60.3717 21.9023C59.8373 21.368 58.971 21.368 58.4368 21.9023C57.9025 22.4365 57.9023 23.3029 58.4368 23.8372L62.971 28.3715L62.2842 29.0584C61.6883 29.6544 61.4545 30.5183 61.6587 31.3691C61.8777 32.2806 62.5671 33.0266 63.4579 33.316C64.0713 33.5152 64.6473 33.8724 65.124 34.3491L65.2733 34.4984C66.7228 35.9476 66.9064 38.1218 65.6831 39.3448Z" fill="black" stroke="white" mask="url(#path-4-inside-2_177_2747)"/>
</svg>
