<svg width="70" height="62" viewBox="0 0 70 62" fill="none" xmlns="http://www.w3.org/2000/svg">
<path d="M3.14664 34.3058H2.89663L2.89664 34.5558L2.89698 50.3122C2.89698 52.6424 3.82249 54.8773 5.47029 56.5251C7.11808 58.1729 9.353 59.0984 11.6832 59.0984H11.7562H11.8294H11.9028H11.9764H12.0502H12.1242H12.1983H12.2727H12.3473H12.4221H12.497H12.5722H12.6475H12.723H12.7987H12.8746H12.9507H13.027H13.1035H13.1801H13.2569H13.3339H13.4111H13.4885H13.5661H13.6438H13.7217H13.7998H13.8781H13.9565H14.0352H14.114H14.1929H14.2721H14.3514H14.4309H14.5106H14.5904H14.6704H14.7506H14.8309H14.9114H14.9921H15.073H15.154H15.2351H15.3165H15.398H15.4796H15.5615H15.6435H15.7256H15.8079H15.8904H15.973H16.0558H16.1387H16.2218H16.305H16.3884H16.472H16.5557H16.6395H16.7235H16.8077H16.8919H16.9764H17.061H17.1457H17.2306H17.3156H17.4008H17.4861H17.5716H17.6572H17.7429H17.8288H17.9149H18.001H18.0873H18.1738H18.2603H18.347H18.4339H18.5209H18.608H18.6952H18.7826H18.8701H18.9577H19.0455H19.1334H19.2214H19.3096H19.3978H19.4862H19.5748H19.6634H19.7522H19.8411H19.9301H20.0192H20.1085H20.1979H20.2874H20.377H20.4667H20.5566H20.6465H20.7366H20.8268H20.9171H21.0075H21.098H21.1887H21.2794H21.3703H21.4612H21.5523H21.6435H21.7348H21.8262H21.9177H22.0093H22.101H22.1928H22.2847H22.3767H22.4688H22.561H22.6533H22.7457H22.8382H22.9308H23.0235H23.1162H23.2091H23.3021H23.3951H23.4883H23.5815H23.6749H23.7683H23.8618H23.9554H24.0491H24.1428H24.2367H24.3306H24.4246H24.5187H24.6129H24.7072H24.8015H24.896H24.9905H25.085H25.1797H25.2744H25.3692H25.4641H25.5591H25.6541H25.7492H25.8444H25.9397H26.035H26.1304H26.2258H26.3213H26.4169H26.5126H26.6083H26.7041H26.7999H26.8959H26.9918H27.0879H27.184H27.2801H27.3763H27.4726H27.569H27.6653H27.7618H27.8583H27.9548H28.0515H28.1481H28.2448H28.3416H28.4384H28.5353H28.6322H28.7292H28.8262H28.9232H29.0203H29.1175H29.2147H29.3119H29.4092H29.5065H29.6039H29.7013H29.7988H29.8962H29.9938H30.0913H30.1889H30.2865H30.3842H30.4819H30.5797H30.6774H30.7752H30.873H30.9709H31.0688H31.1667H31.2647H31.3626H31.4606H31.5587H31.6567H31.7548H31.8529H31.951H32.0492H32.1473H32.2455H32.3437H32.4419H32.5402H32.6384H32.7367H32.835H32.9333H33.0316H33.13H33.2283H33.3267H33.425H33.5234H33.6218H33.7202H33.8186H33.917H34.0154H34.1138H34.2123H34.3107H34.4091H34.5076H34.606H34.7045H34.8029H34.9013H34.9998H35.0982H35.1966H35.2951H35.3935H35.4919H35.5903H35.6887H35.7871H35.8855H35.9839H36.0822H36.1806H36.2789H36.3773H36.4756H36.5739H36.6722H36.7705H36.8687H36.967H37.0652H37.1634H37.2616H37.3597H37.4579H37.556H37.6541H37.7522H37.8502H37.9483H38.0463H38.1442H38.2422H38.3401H38.438H38.5359H38.6337H38.7315H38.8293H38.927H39.0247H39.1224H39.22H39.3176H39.4151H39.5127H39.6102H39.7076H39.805H39.9024H39.9997H40.097H40.1942H40.2914H40.3886H40.4857H40.5827H40.6797H40.7767H40.8736H40.9705H41.0673H41.1641H41.2608H41.3575H41.4541H41.5506H41.6471H41.7436H41.84H41.9363H42.0326H42.1288H42.2249H42.321H42.4171H42.5131H42.609H42.7048H42.8006H42.8963H42.992H43.0876H43.1831H43.2786H43.3739H43.4693H43.5645H43.6597H43.7548H43.8498H43.9448H44.0397H44.1345H44.2292H44.3239H44.4184H44.513H44.6074H44.7017H44.796H44.8902H44.9843H45.0783H45.1722H45.2661H45.3598H45.4535H45.5471H45.6406H45.734H45.8274H45.9206H46.0138H46.1068H46.1998H46.2927H46.3855H46.4781H46.5707H46.6632H46.7556H46.8479H46.9401H47.0322H47.1242H47.2161H47.3079H47.3996H47.4912H47.5827H47.6741H47.7654H47.8566H47.9477H48.0386H48.1295H48.2202H48.3109H48.4014H48.4918H48.5821H48.6723H48.7624H48.8523H48.9422H49.0319H49.1215H49.211H49.3004H49.3897H49.4788H49.5678H49.6567H49.7455H49.8341H49.9227H50.0111H50.0993H50.1875H50.2755H50.3634H50.4512H50.5388H50.6263H50.7137H50.8009H50.888H50.975H51.0619H51.1486H51.2352H51.3216H51.4079H51.4941H51.5801H51.666H51.7517H51.8373H51.9228H52.0081H52.0933H52.1783H52.2632H52.3479H52.4325H52.517H52.6013H52.6854H52.7694H52.8533H52.937H53.0205H53.1039H53.1871H53.2702H53.3532H53.4359H53.5185H53.601H53.6833H53.7655H53.8474H53.9293H54.0109H54.0924H54.1738H54.2549H54.3359H54.4168H54.4975H54.578H54.6583H54.7385H54.8185H54.8983H54.978H55.0575H55.1368H55.216H55.2949H55.3737H55.4524H55.5308H55.6091H55.6872H55.7651H55.8428H55.9204H55.9978H56.075H56.152H56.2288H56.3055H56.3819H56.4582H56.5343H56.6102H56.6859H56.7614H56.8368H56.9119H56.9869H57.0616H57.1362H57.2106H57.2847H57.3587H57.4325H57.5061H57.5795H57.6527H57.7257C60.0559 59.0984 62.2908 58.1729 63.9386 56.5251C65.5864 54.8773 66.5119 52.6424 66.5119 50.3122V34.5558V34.3058H66.2619H3.14664ZM65.6049 58.1913L65.7817 58.3681L65.6049 58.1914C63.5154 60.2812 60.6809 61.4553 57.7257 61.4553H11.6832C8.72767 61.4553 5.89352 60.2812 3.80369 58.1913C1.7142 56.1019 0.540039 53.2674 0.540039 50.3122V33.1273C0.540039 32.4767 1.06771 31.9492 1.71851 31.9492H67.6904C68.3412 31.9492 68.8689 32.4767 68.8689 33.1273V50.3122C68.8689 53.2674 67.6947 56.1018 65.6049 58.1913Z" fill="black" stroke="white" stroke-width="0.5"/>
<path d="M1.81989 40.6256L1.81985 40.6256C1.17206 40.6816 0.600441 40.2008 0.544743 39.553L0.544733 39.5529C0.488741 38.905 0.969342 38.3335 1.617 38.2778L1.61711 38.2778C2.55587 38.1967 3.18872 38.0835 3.77736 37.9782C3.93437 37.9501 4.08824 37.9225 4.24394 37.8963C4.9792 37.7726 5.77922 37.6733 7.20319 37.6733C8.89321 37.6733 10.5955 38.1599 12.3321 38.6806L12.3321 38.6806C12.4037 38.7021 12.4755 38.7236 12.5473 38.7452C13.9303 39.161 15.3526 39.5886 16.7839 39.5886C18.215 39.5886 19.6367 39.1612 21.0194 38.7455C21.0915 38.7238 21.1635 38.7022 21.2354 38.6806L21.1636 38.4411L21.2354 38.6806C22.972 38.1599 24.6743 37.6733 26.3643 37.6733C28.0543 37.6733 29.7562 38.1599 31.4929 38.6806L31.5647 38.4411L31.4929 38.6806C31.5645 38.7021 31.6362 38.7236 31.7081 38.7452C33.0911 39.161 34.5134 39.5886 35.9447 39.5886C37.376 39.5886 38.7983 39.161 40.1813 38.7452C40.2531 38.7236 40.3249 38.7021 40.3965 38.6806L40.3247 38.4411L40.3965 38.6806C42.1332 38.1599 43.8351 37.6733 45.5251 37.6733C47.2151 37.6733 48.9173 38.1599 50.6536 38.6806L50.6537 38.6806C50.7259 38.7022 50.7982 38.724 50.8706 38.7457C52.2533 39.1614 53.6747 39.5886 55.1055 39.5886C56.5343 39.5886 57.5954 39.2737 58.6168 38.9706C58.649 38.9611 58.6811 38.9516 58.7132 38.942L58.7133 38.942C60.003 38.5597 61.2686 38.1982 62.9903 38.1982C64.9232 38.1982 66.0769 38.6196 67.135 39.0062C67.4391 39.1172 67.7353 39.2254 68.0398 39.3199C68.6608 39.5128 69.0086 40.1735 68.8158 40.7944L68.8158 40.7945C68.6232 41.4157 67.9622 41.7636 67.3413 41.5708L67.2672 41.8095L67.3413 41.5708C67.0918 41.4933 66.8394 41.3962 66.5709 41.2928C65.6976 40.9566 64.6547 40.5551 62.9903 40.5551C61.5615 40.5551 60.5004 40.87 59.479 41.1731C59.4468 41.1826 59.4147 41.1922 59.3826 41.2017C58.0928 41.5837 56.8272 41.9452 55.1055 41.9452C53.4158 41.9452 51.7136 41.4586 49.9769 40.9379L49.9051 41.1774L49.9769 40.9379C49.9053 40.9165 49.8335 40.8949 49.7617 40.8733C48.3787 40.4575 46.9564 40.0299 45.5251 40.0299C44.0938 40.0299 42.6715 40.4575 41.2885 40.8733C41.2166 40.8949 41.1449 40.9165 41.0733 40.9379L41.1451 41.1774L41.0732 40.9379C39.337 41.4586 37.6347 41.9452 35.9447 41.9452C34.2547 41.9452 32.5524 41.4586 30.8161 40.9379L30.8161 40.9379C30.7445 40.9165 30.6728 40.8949 30.6009 40.8733C29.2179 40.4575 27.7956 40.0299 26.3643 40.0299C24.933 40.0299 23.5107 40.4575 22.1277 40.8733C22.0559 40.8949 21.9841 40.9165 21.9125 40.9379L21.9843 41.1774L21.9125 40.9379C20.1758 41.4586 18.4736 41.9452 16.7839 41.9452C15.0939 41.9452 13.3917 41.4586 11.655 40.9379L11.5832 41.1774L11.655 40.9379C11.5831 40.9164 11.5111 40.8947 11.439 40.8731C10.0563 40.4574 8.63458 40.0299 7.20319 40.0299C5.81209 40.0299 5.01966 40.1315 4.29111 40.2583C4.14131 40.2843 3.99525 40.3112 3.84797 40.3383C3.28341 40.4423 2.7008 40.5496 1.81989 40.6256Z" fill="black" stroke="white" stroke-width="0.5"/>
<path d="M12.1422 49.9321H9.15564C8.50526 49.9321 7.97717 49.404 7.97717 48.7537C7.97717 48.1033 8.50526 47.5752 9.15564 47.5752H12.1422C12.7925 47.5752 13.3206 48.1033 13.3206 48.7537C13.3206 49.404 12.7925 49.9321 12.1422 49.9321Z" fill="black" stroke="white" stroke-width="0.5"/>
<path d="M24.2631 55.188H21.2766C20.6262 55.188 20.0981 54.6599 20.0981 54.0095C20.0981 53.3591 20.6262 52.8311 21.2766 52.8311H24.2631C24.9135 52.8311 25.4416 53.3591 25.4416 54.0095C25.4416 54.6599 24.9135 55.188 24.2631 55.188Z" fill="black" stroke="white" stroke-width="0.5"/>
<path d="M34.8883 48.4233H31.9014C31.2514 48.4233 30.7233 47.8953 30.7233 47.2449C30.7233 46.5945 31.2514 46.0664 31.9014 46.0664H34.8883C35.5386 46.0664 36.0667 46.5945 36.0667 47.2449C36.0667 47.8953 35.5386 48.4233 34.8883 48.4233Z" fill="black" stroke="white" stroke-width="0.5"/>
<path d="M48.092 54.6671H45.1051C44.4551 54.6671 43.927 54.1391 43.927 53.4887C43.927 52.8386 44.4551 52.3105 45.1051 52.3105H48.092C48.7424 52.3105 49.2705 52.8387 49.2705 53.4887C49.2705 54.1391 48.7424 54.6671 48.092 54.6671Z" fill="black" stroke="white" stroke-width="0.5"/>
<path d="M63.127 50.7829H60.1401C59.4898 50.7829 58.9617 50.2548 58.9617 49.6044C58.9617 48.9544 59.4897 48.4263 60.1401 48.4263H63.127C63.7774 48.4263 64.3055 48.9544 64.3055 49.6044C64.3055 50.2548 63.7774 50.7829 63.127 50.7829Z" fill="black" stroke="white" stroke-width="0.5"/>
<path d="M56.2665 9.44146L56.2664 9.44142C54.5636 8.71807 53.0124 7.6389 51.4179 6.52968C50.96 6.2111 50.4985 5.89003 50.0288 5.57421L50.1683 5.36675L50.0288 5.5742C46.5289 3.22027 42.5277 1.03839 36.3154 1.23112L36.3153 1.23112C35.7611 1.24809 35.2939 1.64929 35.1932 2.19489L35.1932 2.19492L34.6571 5.09814L34.5872 5.47672L34.2698 5.25886L29.7948 2.18732L29.7947 2.18724C29.6755 2.10537 29.5421 2.04622 29.401 2.01251C23.0075 0.489386 16.7919 2.34828 12.1565 4.60637C9.84129 5.73419 7.92757 6.95813 6.5929 7.89999C5.92574 8.3708 5.40372 8.77081 5.04907 9.05262C4.87176 9.19352 4.73632 9.30484 4.64552 9.38065C4.60013 9.41856 4.5659 9.44759 4.54318 9.467L4.51778 9.4888L4.51164 9.49412L4.51058 9.49504C4.08865 9.86607 3.9874 10.4834 4.26879 10.9698C5.83381 13.6751 8.84847 16.4877 11.4945 18.6353C12.8137 19.7061 14.0343 20.606 14.925 21.2382C15.3703 21.5542 15.7329 21.8032 15.984 21.973C16.1095 22.0579 16.2071 22.123 16.2732 22.1668L16.3483 22.2162L16.3672 22.2286L16.3719 22.2317L16.3723 22.232C16.6144 22.3877 16.9047 22.4498 17.1884 22.4066L22.8968 21.5366L23.3329 21.4701L23.1658 21.8784L22.3812 23.796C22.2494 24.118 22.2669 24.4817 22.4284 24.7898L56.2665 9.44146ZM56.2665 9.44146C56.5859 9.57694 56.829 9.84586 56.9317 10.177C57.0343 10.5082 56.986 10.8675 56.7993 11.1596L56.7993 11.1597M56.2665 9.44146L56.7993 11.1597M56.7993 11.1597C56.5345 11.5747 56.2416 12.1308 55.8964 12.786C54.3273 15.7647 51.68 20.7898 45.709 23.8943C40.8659 26.4123 33.7878 27.7077 23.2197 25.3933L23.2196 25.3933M56.7993 11.1597L23.2196 25.3933M23.2196 25.3933C22.8798 25.3189 22.5902 25.0981 22.4284 24.7899L23.2196 25.3933ZM54.0604 11.2731L54.1715 11.0553L53.9562 10.9394C52.6454 10.2334 51.3934 9.36995 50.0855 8.46788C49.6364 8.15813 49.1807 7.84383 48.7138 7.5298L48.5743 7.73725L48.7138 7.5298C45.8214 5.58479 42.503 3.69892 37.5476 3.58208L37.3346 3.57706L37.2959 3.7866L36.575 7.6891C36.5026 8.08135 36.2365 8.41047 35.8678 8.56314L35.8676 8.56323C35.4991 8.71624 35.0784 8.67237 34.7496 8.44649L34.7495 8.44642L34.608 8.65254L34.7494 8.44638L34.7492 8.44623L34.7484 8.44567L34.7451 8.44341L34.7321 8.43448L34.6814 8.39967L34.4889 8.26756L33.8018 7.796L31.7169 6.36503L29.6316 4.934L28.9442 4.46234L28.7515 4.33013L28.7005 4.29522L28.6872 4.28613L28.6835 4.28356L28.6818 4.28241L28.6799 4.28115C28.6783 4.28009 28.6408 4.25998 28.6023 4.24697L28.6023 4.24689L28.5961 4.2455C23.7706 3.16969 19.0936 4.17936 15.274 5.72673C11.4536 7.27441 8.47276 9.36718 7.02799 10.4834L6.83823 10.63L6.97681 10.8257C9.85413 14.889 15.5707 18.8662 17.1989 19.9549L17.2795 20.0089L17.3755 19.9942L25.0331 18.827C25.4525 18.7631 25.8742 18.9297 26.1366 19.2631C26.399 19.5964 26.4618 20.0452 26.3012 20.4381C26.3012 20.4382 26.3012 20.4382 26.3011 20.4382L25.2152 23.0925L25.0991 23.3761L25.4002 23.4328C34.2327 25.0975 40.3355 24.0317 44.6218 21.8033L44.5065 21.5815L44.6219 21.8033C50.1602 18.9236 52.5747 14.1874 53.98 11.4307C54.0072 11.3774 54.034 11.3249 54.0604 11.2731Z" fill="black" stroke="white" stroke-width="0.5"/>
<path d="M60.5551 6.93574L60.5551 6.93573C61.1189 6.612 61.8399 6.80712 62.1637 7.37099C62.4875 7.93519 62.2922 8.65613 61.7285 8.97954L61.7285 8.97957C50.9696 15.1557 35.1004 17.3303 21.1003 14.933L21.1002 14.9329C20.4592 14.8232 20.0279 14.2137 20.1376 13.5726C20.2473 12.9319 20.8572 12.5003 21.4978 12.6103L21.4979 12.6103C34.9292 14.9099 50.1829 12.8901 60.5551 6.93574Z" fill="black" stroke="white" stroke-width="0.5"/>
</svg>
