<svg width="125" height="23" viewBox="0 0 125 23" fill="none" xmlns="http://www.w3.org/2000/svg">
<path d="M11 0.937988L13.4697 8.5388H21.4616L14.996 13.2364L17.4656 20.8372L11 16.1396L4.53436 20.8372L7.00402 13.2364L0.538379 8.5388H8.53035L11 0.937988Z" fill="#2F7875"/>
<path d="M37 0.937988L39.4697 8.5388H47.4616L40.996 13.2364L43.4656 20.8372L37 16.1396L30.5344 20.8372L33.004 13.2364L26.5384 8.5388H34.5303L37 0.937988Z" fill="#2F7875"/>
<path d="M62.5 0.937988L65.0819 8.5388H73.4371L66.6776 13.2364L69.2595 20.8372L62.5 16.1396L55.7405 20.8372L58.3224 13.2364L51.5628 8.5388H59.9181L62.5 0.937988Z" fill="#2F7875"/>
<path d="M88 0.937988L90.4697 8.5388H98.4616L91.996 13.2364L94.4656 20.8372L88 16.1396L81.5344 20.8372L84.004 13.2364L77.5384 8.5388H85.5303L88 0.937988Z" fill="#2F7875"/>
<path d="M114 0.937988L116.47 8.5388H124.462L117.996 13.2364L120.466 20.8372L114 16.1396L107.534 20.8372L110.004 13.2364L103.538 8.5388H111.53L114 0.937988Z" fill="#2F7875"/>
</svg>
