<svg width="52" height="52" viewBox="0 0 52 52" fill="none" xmlns="http://www.w3.org/2000/svg">
<path d="M51.104 48.4138C50.609 48.4138 50.2073 48.8155 50.2073 49.3105V50.2071H49.3107C48.8158 50.2071 48.4141 50.6088 48.4141 51.1037C48.4141 51.5987 48.8158 52.0004 49.3107 52.0004H51.1039C51.5988 52.0004 52.0005 51.5987 52.0005 51.1037V49.3106C52.0006 48.8154 51.5989 48.4138 51.104 48.4138Z" fill="black"/>
<path d="M35.9962 50.2087H32.6662C32.1712 50.2087 31.7695 50.6104 31.7695 51.1054C31.7695 51.6003 32.1712 52.0019 32.6662 52.0019H35.9962C36.4911 52.0019 36.8928 51.6002 36.8928 51.1053C36.8928 50.6103 36.4911 50.2087 35.9962 50.2087Z" fill="black"/>
<path d="M44.3204 50.2087H40.9904C40.4955 50.2087 40.0938 50.6104 40.0938 51.1054C40.0938 51.6003 40.4955 52.0019 40.9904 52.0019H44.3204C44.8153 52.0019 45.217 51.6002 45.217 51.1053C45.217 50.6103 44.8153 50.2087 44.3204 50.2087Z" fill="black"/>
<path d="M11.0119 50.2087H7.68192C7.18698 50.2087 6.78528 50.6104 6.78528 51.1054C6.78528 51.6003 7.18698 52.0019 7.68192 52.0019H11.0119C11.5069 52.0019 11.9086 51.6002 11.9086 51.1053C11.9086 50.6103 11.5069 50.2087 11.0119 50.2087Z" fill="black"/>
<path d="M19.3361 50.2087H16.0061C15.5112 50.2087 15.1095 50.6104 15.1095 51.1054C15.1095 51.6003 15.5112 52.0019 16.0061 52.0019H19.3361C19.8311 52.0019 20.2328 51.6002 20.2328 51.1053C20.2328 50.6103 19.8311 50.2087 19.3361 50.2087Z" fill="black"/>
<path d="M27.6643 50.2087H24.3343C23.8393 50.2087 23.4376 50.6104 23.4376 51.1054C23.4376 51.6003 23.8393 52.002 24.3343 52.002H27.6643C28.1601 52.002 28.5609 51.6003 28.5609 51.1054C28.5609 50.6104 28.1592 50.2087 27.6643 50.2087Z" fill="black"/>
<path d="M2.68993 50.2071H1.79328V49.3105C1.79328 48.8155 1.39158 48.4138 0.896642 48.4138C0.401701 48.4138 0 48.8155 0 49.3105V51.1036C0.000101568 51.5986 0.401803 52.0003 0.896744 52.0003H2.68993C3.18487 52.0003 3.58657 51.5986 3.58657 51.1036C3.58657 50.6087 3.18487 50.2071 2.68993 50.2071Z" fill="black"/>
<path d="M0.896642 40.0955C0.401701 40.0955 0 40.4972 0 40.9921V44.3221C0 44.817 0.401701 45.2187 0.896642 45.2187C1.39158 45.2187 1.79328 44.817 1.79328 44.3221V40.9921C1.79318 40.4971 1.39148 40.0955 0.896642 40.0955Z" fill="black"/>
<path d="M0.896642 31.7693C0.401701 31.7693 0 32.171 0 32.6659V35.9959C0 36.4909 0.401701 36.8926 0.896642 36.8926C1.39158 36.8926 1.79328 36.4909 1.79328 35.9959V32.6658C1.79318 32.1709 1.39148 31.7693 0.896642 31.7693Z" fill="black"/>
<path d="M0.896642 23.4434C0.401701 23.4434 0 23.8451 0 24.34V27.67C0 28.1649 0.401701 28.5666 0.896642 28.5666C1.39158 28.5666 1.79328 28.1649 1.79328 27.67V24.34C1.79318 23.845 1.39148 23.4434 0.896642 23.4434Z" fill="black"/>
<path d="M0.896642 6.79102C0.401701 6.79102 0 7.19262 0 7.68756V11.0184C0 11.5133 0.401701 11.915 0.896642 11.915C1.39158 11.915 1.79328 11.5133 1.79328 11.0176V7.68756C1.79318 7.19262 1.39148 6.79102 0.896642 6.79102Z" fill="black"/>
<path d="M0.896642 15.1172C0.401701 15.1172 0 15.5189 0 16.0138V19.3438C0 19.8388 0.401701 20.2405 0.896642 20.2405C1.39158 20.2405 1.79328 19.8397 1.79328 19.3438V16.0138C1.79318 15.5188 1.39148 15.1172 0.896642 15.1172Z" fill="black"/>
<path d="M2.68982 -0.000244141H0.896642C0.401701 -0.000244141 0 0.401457 0 0.896398V2.68958C0 3.18452 0.401701 3.58622 0.896642 3.58622C1.39158 3.58622 1.79328 3.18452 1.79328 2.68958V1.79294H2.68993C3.18487 1.79294 3.58657 1.39124 3.58657 0.896296C3.58636 0.401457 3.18477 -0.000244141 2.68982 -0.000244141Z" fill="black"/>
<path d="M11.0119 -0.000244141H7.68192C7.18698 -0.000244141 6.78528 0.401457 6.78528 0.896398C6.78528 1.39134 7.18698 1.79304 7.68192 1.79304H11.0127C11.5077 1.79304 11.9085 1.39134 11.9085 0.896398C11.9085 0.401457 11.5069 -0.000244141 11.0119 -0.000244141Z" fill="black"/>
<path d="M19.3361 -0.000244141H16.0061C15.5112 -0.000244141 15.1095 0.401457 15.1095 0.896398C15.1095 1.39134 15.5112 1.79304 16.0061 1.79304H19.3361C19.832 1.79304 20.2328 1.39134 20.2328 0.896398C20.2327 0.401457 19.8311 -0.000244141 19.3361 -0.000244141Z" fill="black"/>
<path d="M27.6681 -0.000244141H24.338C23.8431 -0.000244141 23.4414 0.401457 23.4414 0.896398C23.4414 1.39134 23.8431 1.79304 24.338 1.79304H27.6681C28.163 1.79304 28.5647 1.39134 28.5647 0.896398C28.5646 0.401457 28.163 -0.000244141 27.6681 -0.000244141Z" fill="black"/>
<path d="M44.3204 -0.000244141H40.9904C40.4955 -0.000244141 40.0938 0.401457 40.0938 0.896398C40.0938 1.39134 40.4955 1.79304 40.9904 1.79304H44.3204C44.8153 1.79304 45.217 1.39134 45.217 0.896398C45.217 0.401457 44.8153 -0.000244141 44.3204 -0.000244141Z" fill="black"/>
<path d="M35.9923 -0.000244141H32.6623C32.1673 -0.000244141 31.7656 0.401457 31.7656 0.896398C31.7656 1.39134 32.1673 1.79304 32.6623 1.79304H35.9923C36.4872 1.79304 36.8889 1.39134 36.8889 0.896398C36.8888 0.401457 36.4872 -0.000244141 35.9923 -0.000244141Z" fill="black"/>
<path d="M51.1039 -0.000244141H49.3107C48.8158 -0.000244141 48.4141 0.401457 48.4141 0.896398C48.4141 1.39134 48.8158 1.79304 49.3107 1.79304H50.2073V2.68968C50.2073 3.18462 50.609 3.58632 51.104 3.58632C51.5989 3.58632 52.0005 3.18452 52.0005 2.68958V0.896398C52.0005 0.401457 51.5988 -0.000244141 51.1039 -0.000244141Z" fill="black"/>
<path d="M51.0998 15.1169C50.6048 15.1169 50.2031 15.5186 50.2031 16.0136V19.3436C50.2031 19.8385 50.6048 20.2402 51.0998 20.2402C51.5947 20.2402 51.9964 19.8393 51.9964 19.3435V16.0135C51.9964 15.5185 51.5947 15.1169 51.0998 15.1169Z" fill="black"/>
<path d="M51.0998 6.79077C50.6048 6.79077 50.2031 7.19247 50.2031 7.68741V11.0182C50.2031 11.5132 50.6048 11.9149 51.0998 11.9149C51.5947 11.9149 51.9964 11.5132 51.9964 11.0174V7.68731C51.9964 7.19237 51.5947 6.79077 51.0998 6.79077Z" fill="black"/>
<path d="M51.0998 40.0935C50.6048 40.0935 50.2031 40.4952 50.2031 40.9901V44.3202C50.2031 44.8151 50.6048 45.2168 51.0998 45.2168C51.5947 45.2168 51.9964 44.8151 51.9964 44.3202V40.9901C51.9964 40.4951 51.5947 40.0935 51.0998 40.0935Z" fill="black"/>
<path d="M51.0998 23.4412C50.6048 23.4412 50.2031 23.8429 50.2031 24.3378V27.6678C50.2031 28.1628 50.6048 28.5645 51.0998 28.5645C51.5947 28.5645 51.9964 28.1637 51.9964 27.6678V24.3378C51.9964 23.8428 51.5947 23.4412 51.0998 23.4412Z" fill="black"/>
<path d="M51.0998 31.7673C50.6048 31.7673 50.2031 32.169 50.2031 32.664V35.994C50.2031 36.4889 50.6048 36.8906 51.0998 36.8906C51.5947 36.8906 51.9964 36.4889 51.9964 35.994V32.6639C51.9964 32.1689 51.5947 31.7673 51.0998 31.7673Z" fill="black"/>
<path d="M13.4513 4.48804C12.9564 4.48804 12.5547 4.88974 12.5547 5.38468V46.6283C12.5547 47.1232 12.9564 47.5249 13.4513 47.5249C13.9463 47.5249 14.348 47.1232 14.348 46.6283V5.38468C14.3479 4.88974 13.9463 4.48804 13.4513 4.48804Z" fill="black"/>
<path d="M26.0021 4.48804C25.5072 4.48804 25.1055 4.88974 25.1055 5.38468V46.6283C25.1055 47.1232 25.5072 47.5249 26.0021 47.5249C26.4971 47.5249 26.8988 47.1232 26.8988 46.6283V5.38468C26.8988 4.88974 26.4971 4.48804 26.0021 4.48804Z" fill="black"/>
<path d="M38.5568 4.48804C38.0619 4.48804 37.6602 4.88974 37.6602 5.38468V46.6283C37.6602 47.1232 38.0619 47.5249 38.5568 47.5249C39.0517 47.5249 39.4534 47.1232 39.4534 46.6283V5.38468C39.4534 4.88974 39.0517 4.48804 38.5568 4.48804Z" fill="black"/>
<path d="M46.6245 12.5544H5.38102C4.88608 12.5544 4.48438 12.9561 4.48438 13.4511C4.48438 13.946 4.88608 14.3477 5.38102 14.3477H46.6246C47.1196 14.3477 47.5213 13.946 47.5213 13.4511C47.5212 12.9561 47.1195 12.5544 46.6245 12.5544Z" fill="black"/>
<path d="M46.6245 25.1091H5.38102C4.88608 25.1091 4.48438 25.5108 4.48438 26.0058C4.48438 26.5007 4.88608 26.9024 5.38102 26.9024H46.6246C47.1196 26.9024 47.5213 26.5007 47.5213 26.0058C47.5213 25.5108 47.1195 25.1091 46.6245 25.1091Z" fill="black"/>
<path d="M46.6245 37.6619H5.38102C4.88608 37.6619 4.48438 38.0636 4.48438 38.5585C4.48438 39.0534 4.88608 39.4551 5.38102 39.4551H46.6246C47.1196 39.4551 47.5213 39.0534 47.5213 38.5585C47.5212 38.0635 47.1195 37.6619 46.6245 37.6619Z" fill="black"/>
</svg>
