<svg width="61" height="22" viewBox="0 0 61 22" fill="none" xmlns="http://www.w3.org/2000/svg">
<mask id="mask0_177_2666" style="mask-type:luminance" maskUnits="userSpaceOnUse" x="38" y="0" width="23" height="22">
<path d="M60.2687 0.167969H38.9974V21.4393H60.2687V0.167969Z" fill="white"/>
</mask>
<g mask="url(#mask0_177_2666)">
<path d="M42.4008 0.167969C40.5212 0.167969 38.9974 1.69175 38.9974 3.57137V18.0358C38.9974 19.9154 40.5212 21.4393 42.4008 21.4393H48.9956V13.8134H46.1011V10.5181H48.9956V8.00656C48.9956 5.14948 50.6975 3.57137 53.3014 3.57137C54.5487 3.57137 55.8532 3.79395 55.8532 3.79395V6.59941H54.4157C52.9996 6.59941 52.558 7.47821 52.558 8.37964V10.5181H55.7197L55.2142 13.8134H52.558V21.4393H56.8653C58.745 21.4393 60.2687 19.9154 60.2687 18.0358V3.57137C60.2687 1.69175 58.745 0.167969 56.8653 0.167969H42.4008Z" fill="white"/>
</g>
<mask id="mask1_177_2666" style="mask-type:luminance" maskUnits="userSpaceOnUse" x="0" y="0" width="22" height="22">
<path d="M21.2713 0.167969H0V21.4393H21.2713V0.167969Z" fill="white"/>
</mask>
<g mask="url(#mask1_177_2666)">
<path fill-rule="evenodd" clip-rule="evenodd" d="M8.15914 0.175759C8.71903 0.169916 9.47388 0.167969 10.6419 0.167969C13.5309 0.167969 13.8926 0.180519 15.0317 0.234398C16.1624 0.284383 16.9355 0.467009 17.6132 0.728832C18.3115 0.998878 18.906 1.36457 19.4963 1.95442C20.0907 2.54428 20.4523 3.13847 20.7142 3.84475C20.9761 4.51769 21.1591 5.29472 21.209 6.42468C21.2349 7.01216 21.2506 7.39233 21.2598 8.02352C21.2684 8.611 21.2713 9.41593 21.2713 10.8077C21.2713 13.6952 21.2589 14.0567 21.209 15.1908C21.1591 16.3209 20.9761 17.0936 20.7142 17.7707C20.4441 18.4687 20.0782 19.0629 19.488 19.6528C18.8977 20.2427 18.3031 20.6083 17.6048 20.8784C16.9314 21.1402 16.154 21.3229 15.0234 21.3728C13.8886 21.4226 13.5269 21.4352 10.6377 21.4352C7.74867 21.4352 7.38698 21.4226 6.25206 21.3728C5.12145 21.3229 4.34821 21.1402 3.67061 20.8784C2.97224 20.6083 2.37783 20.2427 1.78754 19.6528C1.19303 19.0629 0.83145 18.4687 0.557077 17.7666C0.295146 17.0936 0.112194 16.3166 0.0623182 15.1866C0.012442 14.0524 0 13.691 0 10.8036C0 7.9162 0.012442 7.55484 0.0623182 6.41645C0.112194 5.28628 0.295146 4.51359 0.557077 3.83652C0.83145 3.13847 1.19303 2.54428 1.78754 1.95442C2.37783 1.36023 2.97224 0.998878 3.67483 0.724722C4.34821 0.462899 5.12556 0.280055 6.25627 0.230287C6.93236 0.200643 7.33407 0.184197 8.15914 0.175759ZM18.6124 4.15633C18.6124 4.89052 18.0171 5.48579 17.2829 5.48579C16.5487 5.48579 15.9535 4.89052 15.9535 4.15633C15.9535 3.42215 16.5487 2.82688 17.2829 2.82688C18.0171 2.82688 18.6124 3.42215 18.6124 4.15633ZM15.9535 10.8036C15.9535 13.7406 13.5726 16.1214 10.6356 16.1214C7.69868 16.1214 5.31782 13.7406 5.31782 10.8036C5.31782 7.86665 7.69868 5.48579 10.6356 5.48579C13.5726 5.48579 15.9535 7.86665 15.9535 10.8036Z" fill="white"/>
</g>
</svg>
