<svg width="184" height="21" viewBox="0 0 184 21" fill="none" xmlns="http://www.w3.org/2000/svg">
<path d="M1.23047 7.73224H5.89134C6.80753 7.73224 7.4858 7.95597 7.92614 8.40341C8.37003 8.85085 8.59375 9.50781 8.5973 10.3743V13.2401H6.97798V10.3743C6.97443 9.94105 6.8821 9.62145 6.70099 9.41548C6.51989 9.20952 6.21982 9.10653 5.80078 9.10653H2.84979V15.9141H1.23047V7.73224ZM4.10156 15.9141V10.4062H5.72088V14.5398H8.67188C9.08381 14.5398 9.3821 14.4403 9.56676 14.2415C9.75497 14.0391 9.84908 13.7159 9.84908 13.272V7.8228H11.4684V13.272C11.4684 14.1385 11.2464 14.7955 10.8026 15.2429C10.3587 15.6903 9.6804 15.9141 8.76776 15.9141H4.10156ZM21.3201 16.0632C20.6525 16.0632 20.0524 15.9354 19.5197 15.6797C18.9906 15.4205 18.568 15.0653 18.252 14.6143C17.9359 14.1634 17.7672 13.6484 17.7459 13.0696H19.3439C19.383 13.5384 19.5907 13.9237 19.9672 14.2255C20.3436 14.5273 20.7946 14.6783 21.3201 14.6783C21.7392 14.6783 22.1103 14.5824 22.4334 14.3906C22.7601 14.1953 23.0158 13.9272 23.2005 13.5863C23.3887 13.2454 23.4828 12.8565 23.4828 12.4197C23.4828 11.9759 23.3869 11.5799 23.1951 11.2319C23.0034 10.8839 22.7388 10.6104 22.4015 10.4116C22.0676 10.2127 21.6841 10.1115 21.2509 10.108C20.9206 10.108 20.5886 10.1648 20.2548 10.2784C19.921 10.392 19.6511 10.5412 19.4451 10.7259L17.9377 10.5021L18.5502 5.00497H24.5481V6.41655H19.9192L19.573 9.46875H19.6369C19.85 9.26278 20.1323 9.09055 20.4838 8.95206C20.839 8.81357 21.2189 8.74432 21.6238 8.74432C22.2878 8.74432 22.8791 8.90234 23.3975 9.21839C23.9196 9.53445 24.3297 9.96591 24.628 10.5128C24.9299 11.0561 25.079 11.6811 25.0755 12.3878C25.079 13.0945 24.9192 13.7248 24.5961 14.2788C24.2765 14.8327 23.8326 15.2695 23.2644 15.5891C22.6998 15.9052 22.0517 16.0632 21.3201 16.0632ZM30.6485 4.85582C31.135 4.85937 31.6144 4.94815 32.0867 5.12216C32.559 5.29616 32.9852 5.58026 33.3651 5.97443C33.7487 6.36861 34.0541 6.90128 34.2813 7.57244C34.5122 8.24006 34.6294 9.07102 34.6329 10.0653C34.6329 11.0206 34.537 11.8711 34.3453 12.6168C34.1535 13.359 33.8783 13.9858 33.5196 14.4972C33.1645 15.0085 32.733 15.3974 32.2252 15.6637C31.7174 15.93 31.1457 16.0632 30.51 16.0632C29.8602 16.0632 29.2831 15.9354 28.7789 15.6797C28.2746 15.424 27.8644 15.0707 27.5484 14.6197C27.2323 14.1651 27.0352 13.6431 26.9571 13.0536H28.5818C28.6883 13.5224 28.9049 13.9023 29.2316 14.1935C29.5619 14.4812 29.988 14.625 30.51 14.625C31.309 14.625 31.9323 14.277 32.3797 13.581C32.8271 12.8814 33.0526 11.9048 33.0562 10.6513H32.971C32.7863 10.9567 32.5555 11.2195 32.2785 11.4396C32.0051 11.6598 31.6979 11.8303 31.357 11.951C31.0161 12.0717 30.6521 12.1321 30.265 12.1321C29.6365 12.1321 29.0647 11.9776 28.5498 11.6687C28.0349 11.3597 27.6247 10.9354 27.3193 10.3956C27.0139 9.85582 26.8612 9.2397 26.8612 8.54723C26.8612 7.85831 27.0175 7.23331 27.33 6.67223C27.646 6.11115 28.0864 5.66726 28.651 5.34055C29.2192 5.0103 29.885 4.84872 30.6485 4.85582ZM30.6539 6.24077C30.2384 6.24077 29.8637 6.34375 29.5299 6.54972C29.1997 6.75213 28.9387 7.02734 28.7469 7.37535C28.5551 7.71982 28.4593 8.10334 28.4593 8.52592C28.4593 8.94851 28.5516 9.33203 28.7362 9.67649C28.9244 10.0174 29.1801 10.2891 29.5033 10.4915C29.83 10.6903 30.2029 10.7898 30.6219 10.7898C30.9344 10.7898 31.2256 10.7294 31.4955 10.6087C31.7654 10.4879 32.0015 10.321 32.2039 10.108C32.4063 9.89134 32.5644 9.64631 32.678 9.37287C32.7916 9.09943 32.8485 8.81179 32.8485 8.50994C32.8485 8.10866 32.7526 7.7358 32.5608 7.39134C32.3726 7.04687 32.1134 6.76989 31.7831 6.56037C31.4529 6.3473 31.0764 6.24077 30.6539 6.24077ZM37.2323 16.0153C36.9411 16.0153 36.6908 15.9123 36.4813 15.7063C36.2718 15.4968 36.167 15.2447 36.167 14.9499C36.167 14.6587 36.2718 14.4102 36.4813 14.2042C36.6908 13.9947 36.9411 13.8899 37.2323 13.8899C37.5235 13.8899 37.7739 13.9947 37.9834 14.2042C38.1929 14.4102 38.2977 14.6587 38.2977 14.9499C38.2977 15.1452 38.248 15.3246 38.1485 15.4879C38.0526 15.6477 37.9248 15.7756 37.765 15.8714C37.6052 15.9673 37.4276 16.0153 37.2323 16.0153ZM43.8121 16.0952C42.9705 16.0916 42.2514 15.8697 41.6548 15.4293C41.0582 14.989 40.6019 14.348 40.2859 13.5064C39.9698 12.6648 39.8118 11.6509 39.8118 10.4648C39.8118 9.28232 39.9698 8.27202 40.2859 7.43395C40.6055 6.59588 41.0636 5.95668 41.6602 5.51634C42.2603 5.07599 42.9776 4.85582 43.8121 4.85582C44.6467 4.85582 45.3622 5.07777 45.9588 5.52166C46.5554 5.962 47.0117 6.60121 47.3278 7.43928C47.6474 8.27379 47.8072 9.28232 47.8072 10.4648C47.8072 11.6545 47.6491 12.6701 47.3331 13.5117C47.017 14.3498 46.5607 14.9908 45.9641 15.4347C45.3675 15.875 44.6502 16.0952 43.8121 16.0952ZM43.8121 14.6729C44.5508 14.6729 45.1278 14.3125 45.5433 13.5916C45.9624 12.8707 46.1719 11.8285 46.1719 10.4648C46.1719 9.5593 46.076 8.79403 45.8842 8.16903C45.696 7.54048 45.4244 7.06463 45.0692 6.74148C44.7177 6.41477 44.2987 6.25142 43.8121 6.25142C43.0771 6.25142 42.5 6.61364 42.081 7.33807C41.6619 8.0625 41.4506 9.10476 41.4471 10.4648C41.4471 11.3739 41.5412 12.1428 41.7294 12.7713C41.9212 13.3963 42.1928 13.8704 42.5444 14.1935C42.896 14.5131 43.3185 14.6729 43.8121 14.6729ZM53.4948 16.0952C52.6531 16.0916 51.934 15.8697 51.3374 15.4293C50.7409 14.989 50.2845 14.348 49.9685 13.5064C49.6524 12.6648 49.4944 11.6509 49.4944 10.4648C49.4944 9.28232 49.6524 8.27202 49.9685 7.43395C50.2881 6.59588 50.7462 5.95668 51.3428 5.51634C51.9429 5.07599 52.6602 4.85582 53.4948 4.85582C54.3293 4.85582 55.0448 5.07777 55.6414 5.52166C56.238 5.962 56.6943 6.60121 57.0104 7.43928C57.33 8.27379 57.4898 9.28232 57.4898 10.4648C57.4898 11.6545 57.3318 12.6701 57.0157 13.5117C56.6997 14.3498 56.2433 14.9908 55.6468 15.4347C55.0502 15.875 54.3328 16.0952 53.4948 16.0952ZM53.4948 14.6729C54.2334 14.6729 54.8105 14.3125 55.2259 13.5916C55.645 12.8707 55.8545 11.8285 55.8545 10.4648C55.8545 9.5593 55.7586 8.79403 55.5669 8.16903C55.3786 7.54048 55.107 7.06463 54.7519 6.74148C54.4003 6.41477 53.9813 6.25142 53.4948 6.25142C52.7597 6.25142 52.1826 6.61364 51.7636 7.33807C51.3445 8.0625 51.1333 9.10476 51.1297 10.4648C51.1297 11.3739 51.2238 12.1428 51.412 12.7713C51.6038 13.3963 51.8754 13.8704 52.227 14.1935C52.5786 14.5131 53.0012 14.6729 53.4948 14.6729Z" fill="#2F7875"/>
<path d="M71.0243 8.57809H74.7305C75.5138 8.57809 76.098 8.77073 76.4833 9.15599C76.8686 9.54126 77.0612 10.1255 77.0612 10.9088V13.5452H75.8767V10.9088C75.8767 10.4694 75.786 10.1462 75.6045 9.93926C75.423 9.7323 75.1317 9.62882 74.7305 9.62882H72.2088V15.9141H71.0243V8.57809ZM73.4505 15.9141V10.947H74.635V14.8633H77.1567C77.5579 14.8633 77.8492 14.7599 78.0307 14.5529C78.2122 14.3459 78.303 14.0228 78.303 13.5834V8.65451H79.4874V13.5834C79.4874 14.3666 79.2948 14.9509 78.9095 15.3362C78.5242 15.7214 77.94 15.9141 77.1567 15.9141H73.4505ZM88.7183 16.0478C88.3171 16.0414 87.9159 15.965 87.5147 15.8185C87.1135 15.6721 86.7474 15.4253 86.4162 15.0783C86.0851 14.728 85.8192 14.2552 85.6186 13.6598C85.418 13.0612 85.3177 12.3098 85.3177 11.4055C85.3177 10.5394 85.3989 9.7721 85.5613 9.10346C85.7237 8.43163 85.9593 7.86647 86.2682 7.40797C86.577 6.94629 86.9495 6.59605 87.3858 6.35724C87.8251 6.11844 88.3203 5.99904 88.8711 5.99904C89.4187 5.99904 89.9059 6.10889 90.3326 6.32859C90.7624 6.5451 91.1126 6.84758 91.3833 7.23603C91.6539 7.62448 91.829 8.07184 91.9086 8.57809H90.7433C90.635 8.1387 90.4249 7.77413 90.1129 7.48439C89.8008 7.19464 89.3869 7.04977 88.8711 7.04977C88.1133 7.04977 87.5163 7.37931 87.0801 8.0384C86.6471 8.69749 86.429 9.62245 86.4258 10.8133H86.5022C86.6805 10.5426 86.8922 10.3118 87.1374 10.1207C87.3858 9.92652 87.6596 9.77688 87.9589 9.6718C88.2582 9.56673 88.575 9.51419 88.9093 9.51419C89.4697 9.51419 89.9823 9.65429 90.4472 9.93448C90.912 10.2115 91.2846 10.5952 91.5648 11.0855C91.845 11.5727 91.9851 12.1315 91.9851 12.7619C91.9851 13.3669 91.8497 13.9209 91.5791 14.4239C91.3085 14.9238 90.928 15.3218 90.4376 15.6179C89.9505 15.9109 89.3774 16.0542 88.7183 16.0478ZM88.7183 14.9971C89.1194 14.9971 89.4792 14.8968 89.7976 14.6962C90.1192 14.4956 90.3724 14.2265 90.557 13.889C90.7449 13.5515 90.8388 13.1758 90.8388 12.7619C90.8388 12.3575 90.7481 11.9898 90.5666 11.6586C90.3883 11.3243 90.1415 11.0584 89.8263 10.861C89.5143 10.6636 89.1577 10.5649 88.7565 10.5649C88.454 10.5649 88.1722 10.6254 87.9111 10.7464C87.65 10.8642 87.4208 11.0266 87.2234 11.2336C87.0291 11.4405 86.8763 11.6777 86.7649 11.9452C86.6534 12.2095 86.5977 12.4881 86.5977 12.781C86.5977 13.1694 86.6885 13.5324 86.8699 13.8699C87.0546 14.2074 87.3062 14.4797 87.6246 14.6866C87.9461 14.8936 88.3107 14.9971 88.7183 14.9971ZM94.1689 15.9141L98.5437 7.25991V7.1835H93.5003V6.13277H99.7664V7.24081L95.4107 15.9141H94.1689ZM100.706 15.9905C100.47 15.9905 100.268 15.9061 100.1 15.7373C99.9308 15.5686 99.8464 15.3664 99.8464 15.1308C99.8464 14.8952 99.9308 14.693 100.1 14.5242C100.268 14.3555 100.47 14.2711 100.706 14.2711C100.942 14.2711 101.144 14.3555 101.313 14.5242C101.481 14.693 101.566 14.8952 101.566 15.1308C101.566 15.2868 101.526 15.4301 101.446 15.5606C101.37 15.6912 101.266 15.7963 101.136 15.8759C101.009 15.9523 100.865 15.9905 100.706 15.9905ZM106.418 16.0478C105.699 16.0478 105.086 15.852 104.579 15.4603C104.073 15.0655 103.686 14.494 103.419 13.7457C103.151 12.9943 103.018 12.0869 103.018 11.0234C103.018 9.96632 103.151 9.06366 103.419 8.31541C103.689 7.56399 104.078 6.99086 104.584 6.59605C105.094 6.19804 105.705 5.99904 106.418 5.99904C107.131 5.99904 107.741 6.19804 108.247 6.59605C108.757 6.99086 109.145 7.56399 109.413 8.31541C109.683 9.06366 109.819 9.96632 109.819 11.0234C109.819 12.0869 109.685 12.9943 109.418 13.7457C109.15 14.494 108.763 15.0655 108.257 15.4603C107.751 15.852 107.138 16.0478 106.418 16.0478ZM106.418 14.9971C107.131 14.9971 107.685 14.6532 108.08 13.9654C108.475 13.2777 108.672 12.297 108.672 11.0234C108.672 10.1765 108.582 9.45529 108.4 8.85988C108.222 8.26447 107.964 7.81075 107.627 7.49871C107.292 7.18668 106.889 7.03066 106.418 7.03066C105.711 7.03066 105.159 7.37931 104.761 8.07661C104.363 8.77073 104.164 9.753 104.164 11.0234C104.164 11.8704 104.253 12.59 104.431 13.1822C104.61 13.7744 104.866 14.2249 105.2 14.5338C105.538 14.8426 105.944 14.9971 106.418 14.9971ZM114.824 16.0478C114.104 16.0478 113.491 15.852 112.985 15.4603C112.479 15.0655 112.092 14.494 111.825 13.7457C111.557 12.9943 111.423 12.0869 111.423 11.0234C111.423 9.96632 111.557 9.06366 111.825 8.31541C112.095 7.56399 112.484 6.99086 112.99 6.59605C113.499 6.19804 114.111 5.99904 114.824 5.99904C115.537 5.99904 116.147 6.19804 116.653 6.59605C117.163 6.99086 117.551 7.56399 117.819 8.31541C118.089 9.06366 118.225 9.96632 118.225 11.0234C118.225 12.0869 118.091 12.9943 117.823 13.7457C117.556 14.494 117.169 15.0655 116.663 15.4603C116.157 15.852 115.544 16.0478 114.824 16.0478ZM114.824 14.9971C115.537 14.9971 116.091 14.6532 116.486 13.9654C116.881 13.2777 117.078 12.297 117.078 11.0234C117.078 10.1765 116.988 9.45529 116.806 8.85988C116.628 8.26447 116.37 7.81075 116.032 7.49871C115.698 7.18668 115.295 7.03066 114.824 7.03066C114.117 7.03066 113.565 7.37931 113.167 8.07661C112.769 8.77073 112.57 9.753 112.57 11.0234C112.57 11.8704 112.659 12.59 112.837 13.1822C113.015 13.7744 113.272 14.2249 113.606 14.5338C113.944 14.8426 114.35 14.9971 114.824 14.9971Z" fill="#BDBDBD"/>
<path d="M69 11.3203H119.435" stroke="#2F7875" stroke-width="1.26087" stroke-linecap="round"/>
<rect x="139.84" width="44.1594" height="20.7279" rx="10.3639" fill="black"/>
<path d="M151.059 9.62228V10.608H147.044V9.62228H151.059ZM156.127 5.52714V14.7031H155.016V6.69206H154.963L152.722 8.17957V7.0505L155.016 5.52714H156.127ZM161.867 14.8286C161.275 14.8286 160.748 14.727 160.285 14.5239C159.825 14.3208 159.459 14.0385 159.188 13.6771C158.919 13.3127 158.772 12.89 158.748 12.4091H159.878C159.901 12.7048 160.003 12.9602 160.182 13.1753C160.361 13.3874 160.596 13.5516 160.886 13.6681C161.175 13.7846 161.497 13.8429 161.849 13.8429C162.243 13.8429 162.593 13.7742 162.897 13.6368C163.202 13.4994 163.441 13.3082 163.614 13.0633C163.788 12.8183 163.874 12.5346 163.874 12.212C163.874 11.8745 163.791 11.5773 163.623 11.3204C163.456 11.0605 163.211 10.8574 162.888 10.711C162.566 10.5647 162.172 10.4915 161.706 10.4915H160.971V9.50579H161.706C162.07 9.50579 162.39 9.44008 162.664 9.30865C162.942 9.17722 163.159 8.99203 163.314 8.75307C163.472 8.51411 163.552 8.23334 163.552 7.91075C163.552 7.6001 163.483 7.32978 163.345 7.09978C163.208 6.86979 163.014 6.69057 162.763 6.56213C162.515 6.43369 162.222 6.36947 161.885 6.36947C161.568 6.36947 161.269 6.42771 160.989 6.54421C160.711 6.65771 160.484 6.82349 160.308 7.04154C160.131 7.2566 160.036 7.51647 160.021 7.82114H158.946C158.964 7.34023 159.108 6.91907 159.38 6.55765C159.652 6.19324 160.008 5.90947 160.447 5.70636C160.889 5.50325 161.374 5.40169 161.903 5.40169C162.47 5.40169 162.957 5.51669 163.363 5.74668C163.77 5.97369 164.082 6.27388 164.3 6.64726C164.518 7.02063 164.627 7.42387 164.627 7.85698C164.627 8.37373 164.491 8.81431 164.219 9.17872C163.95 9.54313 163.584 9.79553 163.121 9.93591V10.0076C163.701 10.1032 164.153 10.3496 164.479 10.7469C164.805 11.1412 164.967 11.6295 164.967 12.212C164.967 12.7108 164.831 13.1589 164.56 13.5561C164.291 13.9504 163.923 14.2611 163.457 14.4881C162.991 14.7151 162.461 14.8286 161.867 14.8286ZM171.477 12.9826V12.4987C171.477 12.1642 171.546 11.858 171.684 11.5802C171.824 11.2995 172.027 11.0754 172.293 10.9082C172.562 10.7379 172.887 10.6528 173.27 10.6528C173.658 10.6528 173.984 10.7379 174.246 10.9082C174.509 11.0754 174.708 11.2995 174.842 11.5802C174.977 11.858 175.044 12.1642 175.044 12.4987V12.9826C175.044 13.3172 174.975 13.6248 174.838 13.9056C174.703 14.1834 174.503 14.4074 174.237 14.5777C173.975 14.7449 173.652 14.8286 173.27 14.8286C172.881 14.8286 172.554 14.7449 172.288 14.5777C172.023 14.4074 171.821 14.1834 171.684 13.9056C171.546 13.6248 171.477 13.3172 171.477 12.9826ZM172.391 12.4987V12.9826C172.391 13.2604 172.457 13.5098 172.589 13.7309C172.72 13.9489 172.947 14.0579 173.27 14.0579C173.583 14.0579 173.804 13.9489 173.933 13.7309C174.064 13.5098 174.13 13.2604 174.13 12.9826V12.4987C174.13 12.2209 174.067 11.973 173.942 11.755C173.816 11.5339 173.592 11.4234 173.27 11.4234C172.956 11.4234 172.731 11.5339 172.593 11.755C172.459 11.973 172.391 12.2209 172.391 12.4987ZM166.907 7.73153V7.24764C166.907 6.9131 166.976 6.60693 167.114 6.32914C167.254 6.04837 167.457 5.82435 167.723 5.65707C167.992 5.48682 168.317 5.40169 168.7 5.40169C169.088 5.40169 169.413 5.48682 169.676 5.65707C169.939 5.82435 170.138 6.04837 170.272 6.32914C170.407 6.60693 170.474 6.9131 170.474 7.24764V7.73153C170.474 8.06607 170.405 8.37373 170.268 8.6545C170.133 8.93229 169.933 9.15631 169.667 9.32657C169.405 9.49384 169.082 9.57748 168.7 9.57748C168.311 9.57748 167.984 9.49384 167.718 9.32657C167.453 9.15631 167.251 8.93229 167.114 8.6545C166.976 8.37373 166.907 8.06607 166.907 7.73153ZM167.821 7.24764V7.73153C167.821 8.00932 167.887 8.25873 168.019 8.47976C168.15 8.69781 168.377 8.80684 168.7 8.80684C169.013 8.80684 169.234 8.69781 169.363 8.47976C169.494 8.25873 169.56 8.00932 169.56 7.73153V7.24764C169.56 6.96985 169.497 6.72193 169.372 6.50388C169.246 6.28285 169.022 6.17233 168.7 6.17233C168.386 6.17233 168.16 6.28285 168.023 6.50388C167.889 6.72193 167.821 6.96985 167.821 7.24764ZM167.248 14.7031L173.556 5.52714H174.578L168.269 14.7031H167.248Z" fill="white"/>
</svg>
