<svg width="40" height="15" viewBox="0 0 40 15" fill="none" xmlns="http://www.w3.org/2000/svg">
<path d="M1.60892 1.72958C1.13832 2.20101 0.878906 2.82709 0.878906 3.49391L0.878906 11.8084C0.878906 13.1836 1.99804 14.3027 3.37325 14.3027L3.37325 14.2745C3.70583 14.3027 4.16728 14.3027 4.80251 14.3027L36.6312 14.3027C38.0064 14.3027 39.1255 13.1828 39.1255 11.8084L39.1255 3.49391C39.1255 2.82792 38.8661 2.201 38.3947 1.7304C37.9241 1.25897 37.2972 0.999562 36.6312 0.999562L3.37325 0.999563C2.70726 0.999563 2.08035 1.25897 1.60892 1.72958ZM36.6312 2.66246C36.8532 2.66246 37.0619 2.74893 37.219 2.90524C37.3762 3.06238 37.4626 3.27108 37.4626 3.49391L37.4626 11.8084C37.4626 12.2665 37.0893 12.6398 36.6312 12.6398C36.6312 12.6398 35.6933 12.6398 34.1368 12.6398L34.1368 6.8197C34.1368 6.36074 33.7643 5.98825 33.3054 5.98825C32.8464 5.98825 32.4739 6.36074 32.4739 6.8197L32.4739 12.6398C31.0538 12.6398 29.3494 12.6398 27.4852 12.6398L27.4852 8.4826C27.4852 8.02364 27.1128 7.65115 26.6538 7.65115C26.1948 7.65115 25.8224 8.02364 25.8224 8.4826L25.8224 12.6398C24.2177 12.6398 22.5323 12.6398 20.8337 12.6398L20.8337 6.8197C20.8337 6.36074 20.4612 5.98825 20.0022 5.98825C19.5433 5.98825 19.1708 6.36074 19.1708 6.8197L19.1708 12.6398C17.4721 12.6398 15.7859 12.6398 14.1821 12.6398L14.1821 8.4826C14.1821 8.02364 13.8096 7.65115 13.3506 7.65115C12.8917 7.65115 12.5192 8.02364 12.5192 8.4826L12.5192 12.6398C10.6559 12.6398 8.95061 12.6398 7.53049 12.6398L7.53049 6.8197C7.53049 6.36074 7.158 5.98825 6.69904 5.98825C6.24008 5.98825 5.8676 6.36074 5.8676 6.8197L5.8676 12.6398C4.33856 12.6398 3.40568 12.6398 3.37325 12.6398C2.91512 12.6398 2.5418 12.2665 2.5418 11.8084L2.5418 3.49391C2.5418 3.27191 2.62827 3.06322 2.78542 2.90607C2.94173 2.74893 3.15042 2.66246 3.37325 2.66246L36.6312 2.66246Z" fill="#525252" stroke="white" stroke-width="0.5"/>
</svg>
