<svg width="923" height="560" viewBox="0 0 923 560" fill="none" xmlns="http://www.w3.org/2000/svg">
<path d="M135.827 314.822C143.75 314.759 151.673 314.695 159.596 314.644C167.608 314.581 174.247 316.705 179.232 321.016C184.205 325.327 187.486 331.686 188.567 340.067C188.999 343.475 189.355 346.871 189.622 350.279C190.271 358.66 188.325 365.032 184.357 369.369C180.364 373.705 174.336 375.855 166.514 375.855C164.034 375.855 161.542 375.855 159.062 375.855C158.324 389.844 155.959 403.846 151.965 417.835C146.586 417.797 141.206 417.759 135.827 417.708C146.128 383.422 146.128 349.135 135.827 314.848V314.822ZM166.692 361.102C169.274 361.102 171.194 360.352 172.428 358.876C173.662 357.401 174.196 354.883 173.929 351.348C173.611 347.265 173.166 343.183 172.581 339.1C172.072 335.565 170.978 333.047 169.401 331.584C167.824 330.122 165.713 329.384 163.106 329.397C160.588 329.41 158.083 329.422 155.564 329.435C157.714 339.991 158.935 350.546 159.24 361.102C161.72 361.102 164.212 361.102 166.692 361.102Z" fill="black"/>
<path d="M192.471 314.416C200.445 314.365 208.419 314.314 216.393 314.263C224.71 314.212 231.222 316.145 235.737 320.037C240.251 323.941 243.151 329.969 244.041 338.109C244.27 340.245 244.474 342.382 244.664 344.518C245.555 355.341 242.095 362.196 235.266 365.07C235.266 365.172 235.266 365.274 235.266 365.363C239.094 366.558 241.79 368.987 243.278 372.663C244.766 376.338 245.364 381.247 244.855 387.402C244.359 393.507 243.634 399.611 242.706 405.716C242.248 408.692 241.93 411.108 241.79 412.939C241.65 414.771 241.79 416.589 242.223 418.383C236.741 418.357 231.26 418.319 225.791 418.294C225.562 416.602 225.499 415.012 225.601 413.524C225.69 412.036 226.122 409.353 226.758 405.5C227.801 399.153 228.576 392.807 229.111 386.474C229.505 381.718 228.92 378.398 227.521 376.516C226.122 374.634 223.591 373.693 219.954 373.68C218.135 373.68 216.317 373.68 214.511 373.68C214.015 388.522 212.056 403.363 208.622 418.205C203.243 418.166 197.863 418.141 192.484 418.103C201.005 383.549 201.005 348.982 192.484 314.429L192.471 314.416ZM220.234 358.826C223.388 358.826 225.728 357.974 227.241 356.295C228.742 354.604 229.403 351.78 229.111 347.812C228.907 345.142 228.653 342.458 228.36 339.788C227.941 336.023 226.91 333.302 225.372 331.623C223.82 329.944 221.633 329.105 218.822 329.117C216.406 329.117 213.989 329.143 211.573 329.143C213.214 339.037 214.193 348.932 214.511 358.826C216.418 358.826 218.339 358.826 220.246 358.826H220.234Z" fill="black"/>
<path d="M257.7 413.092C254.266 408.501 253.223 402.027 254.075 393.685C255.919 375.397 255.919 357.109 254.075 338.821C253.223 330.478 254.279 324.005 257.7 319.414C261.108 314.822 266.742 312.508 274.691 312.47C282.627 312.432 289.1 314.695 293.92 319.274C298.74 323.852 301.589 330.325 302.237 338.719C303.662 357.083 303.662 375.448 302.237 393.812C301.589 402.193 298.74 408.679 293.92 413.244C289.1 417.823 282.614 420.086 274.691 420.048C266.742 420.01 261.108 417.696 257.7 413.092ZM286.289 394.816C287.968 375.778 287.968 356.74 286.289 337.702C285.679 330.821 282.448 327.388 276.942 327.413C271.41 327.426 269.159 330.872 269.845 337.74C271.689 356.753 271.689 375.765 269.845 394.778C269.159 401.646 271.41 405.092 276.942 405.105C282.448 405.118 285.679 401.697 286.289 394.816Z" fill="black"/>
<path d="M316.557 413.396C313.009 408.831 311.725 402.319 312.348 393.824C314.281 367.155 313.403 340.486 309.728 313.817C315.108 313.792 320.487 313.779 325.867 313.766C329.199 340.868 329.962 367.956 328.13 395.057C327.889 398.657 328.359 401.264 329.631 402.866C330.89 404.469 332.836 405.27 335.443 405.282C338.05 405.282 340.136 404.494 341.662 402.892C343.188 401.289 344.078 398.695 344.295 395.096C345.91 367.969 345.248 340.855 342.311 313.728C347.499 313.715 352.676 313.703 357.864 313.69C360.382 340.435 360.98 367.18 359.658 393.926C359.238 402.434 356.707 408.971 352.205 413.524C347.703 418.076 341.459 420.327 333.625 420.302C325.778 420.277 320.106 417.975 316.57 413.422L316.557 413.396Z" fill="black"/>
<path d="M369.31 313.639C377.526 313.627 385.741 313.601 393.97 313.588C401.994 313.576 408.137 315.776 412.296 320.189C416.454 324.602 418.642 331.075 418.82 339.609C419.176 357.375 419.176 375.142 418.82 392.908C418.655 401.442 416.467 407.915 412.308 412.328C408.15 416.741 401.994 418.941 393.982 418.929C385.767 418.916 377.551 418.903 369.323 418.878C372.261 383.803 372.261 348.727 369.323 313.652L369.31 313.639ZM394.466 403.871C397.073 403.871 399.12 403.07 400.583 401.467C402.045 399.865 402.834 397.258 402.936 393.646C403.457 375.383 403.457 357.121 402.936 338.871C402.834 335.259 402.045 332.652 400.583 331.05C399.12 329.447 397.085 328.646 394.466 328.646C391.757 328.646 389.048 328.646 386.339 328.646C387.585 353.713 387.585 378.779 386.339 403.858C389.048 403.858 391.757 403.858 394.466 403.858V403.871Z" fill="black"/>
<path d="M428.88 313.551C434.259 313.551 439.639 313.551 445.018 313.551C445.489 343.679 445.552 373.795 445.222 403.923C453.971 403.923 462.721 403.923 471.471 403.923C471.496 408.946 471.535 413.97 471.573 418.981C457.342 418.981 443.098 418.981 428.867 418.968C429.922 383.829 429.922 348.69 428.867 313.564L428.88 313.551Z" fill="black"/>
<path d="M480.844 374.086C474.434 353.903 468.279 333.721 461.754 313.538C467.477 313.538 473.2 313.538 478.923 313.538C482.408 326.446 485.816 339.342 489.326 352.25C489.428 352.25 489.517 352.25 489.619 352.25C493.294 339.354 497.122 326.446 501.23 313.55C506.47 313.55 511.697 313.55 516.936 313.563C509.446 333.721 502.871 353.903 496.613 374.074C496.69 389.03 496.957 403.986 497.427 418.941C492.048 418.941 486.668 418.941 481.289 418.941C481.034 403.986 480.894 389.017 480.856 374.061L480.844 374.086Z" fill="black"/>
<path d="M547.751 313.626C555.433 313.639 563.114 313.665 570.796 313.677C571.775 338.769 574.268 363.861 578.782 388.928H579.075C581.275 363.848 585.294 338.782 591.64 313.741C599.321 313.766 607.003 313.792 614.684 313.817C609.877 348.778 609.877 383.739 614.684 418.7C609.597 418.712 604.51 418.738 599.423 418.751C596.155 392.26 595.353 365.756 597.045 339.265C596.943 339.265 596.854 339.265 596.752 339.265C591.233 365.756 588.321 392.26 587.392 418.789C582.89 418.801 578.388 418.814 573.886 418.827C567.311 392.298 563.038 365.756 560.418 339.202C560.316 339.202 560.227 339.202 560.126 339.202C558.905 365.756 559.477 392.298 561.855 418.852C557.162 418.852 552.457 418.878 547.764 418.878C545.081 383.79 545.081 348.702 547.764 313.614L547.751 313.626Z" fill="black"/>
<path d="M639.179 313.919C646.466 313.945 653.753 313.983 661.04 314.021C660.354 348.88 665.403 383.676 677.764 418.42C672.385 418.446 667.005 418.471 661.625 418.497C659.4 411.591 657.441 404.673 655.737 397.754C655.737 397.856 655.763 397.958 655.775 398.047C649.747 398.059 643.732 398.085 637.704 398.098C637.411 404.927 637.322 411.756 637.424 418.598C632.438 418.624 627.44 418.637 622.455 418.662C622.989 383.701 628.038 348.779 639.192 313.907L639.179 313.919ZM652.71 383.879C649.34 366.66 647.509 349.427 647.051 332.195C646.949 332.195 646.86 332.195 646.759 332.195C642.549 349.414 639.84 366.66 638.492 383.905C643.236 383.905 647.979 383.892 652.71 383.879Z" fill="black"/>
<path d="M685.547 314.135C693.763 314.173 701.978 314.224 710.207 314.275C718.231 314.326 723.713 316.539 726.778 320.901C729.855 325.276 730.555 331.647 729.487 340.041C727.299 357.515 727.299 374.989 729.487 392.463C730.542 400.844 729.843 407.228 726.778 411.603C723.725 415.978 718.244 418.191 710.207 418.229C701.991 418.28 693.775 418.331 685.547 418.369C678.514 383.624 678.514 348.88 685.547 314.135ZM707.04 403.388C709.647 403.375 711.529 402.574 712.674 400.984C713.831 399.394 714.136 396.825 713.704 393.264C711.529 375.256 711.529 357.261 713.704 339.253C714.136 335.692 713.831 333.123 712.674 331.533C711.517 329.943 709.647 329.142 707.04 329.129C704.331 329.129 701.622 329.104 698.913 329.091C695.06 353.865 695.06 378.639 698.913 403.413C701.622 403.413 704.331 403.388 707.04 403.375V403.388Z" fill="black"/>
<path d="M745.129 314.504C759.805 314.606 774.482 314.708 789.158 314.822C787.682 319.719 786.423 324.615 785.368 329.511C776.186 329.46 766.991 329.41 757.809 329.359C756.028 338.465 754.909 347.558 754.439 356.651C761.662 356.651 768.873 356.676 776.097 356.676C775.83 361.573 775.766 366.482 775.906 371.378C768.695 371.378 761.484 371.378 754.26 371.391C754.553 381.959 755.723 392.54 757.796 403.108C766.978 403.057 776.173 403.007 785.355 402.956C786.411 407.852 787.67 412.748 789.145 417.645C774.469 417.759 759.793 417.874 745.116 417.963C736.201 383.46 736.201 348.957 745.116 314.454L745.129 314.504Z" fill="black"/>
<path d="M256.877 453.394C262.257 453.331 267.636 453.267 273.016 453.204C278.993 487.618 278.993 522.032 273.016 556.458C267.636 556.395 262.257 556.331 256.877 556.267C263.363 521.981 263.363 487.694 256.877 453.407V453.394Z" fill="black"/>
<path d="M285.046 453.064C291.799 452.987 298.553 452.924 305.293 452.86C313.496 473.552 319.626 494.294 324.204 515.1C324.306 515.1 324.395 515.1 324.497 515.1C325.018 494.307 323.95 473.514 321.292 452.72C326.086 452.682 330.881 452.644 335.675 452.606C339.669 487.427 339.669 522.248 335.675 557.069C330.143 557.031 324.624 556.98 319.092 556.929C315.938 531.519 310.812 506.185 302.749 480.954C302.648 480.954 302.559 480.954 302.457 480.954C304.186 506.211 303.169 531.481 299.417 556.738C294.623 556.687 289.828 556.636 285.034 556.585C290.629 522.082 290.629 487.567 285.034 453.064H285.046Z" fill="black"/>
<path d="M371.183 452.366C376.563 452.34 381.942 452.302 387.322 452.29C389.687 487.327 389.687 522.351 387.322 557.388C381.942 557.363 376.563 557.337 371.183 557.312C374.057 522.338 374.057 487.365 371.183 452.379V452.366Z" fill="#2F7875"/>
<path d="M402.863 552.097C399.086 547.518 397.432 540.982 397.7 532.473C397.763 530.464 397.814 528.467 397.865 526.471C402.85 526.471 407.836 526.483 412.834 526.496C412.783 528.9 412.732 531.303 412.681 533.72C412.503 540.536 415.135 543.957 420.655 543.97C423.364 543.97 425.449 543.156 426.887 541.503C428.324 539.85 429.087 537.166 429.138 533.453C429.214 529.04 428.298 525.148 426.416 521.791C424.534 518.433 421.036 514.389 415.898 509.671C409.425 503.643 404.872 498.212 402.227 493.354C399.582 488.496 398.183 483.015 397.992 476.91C397.725 468.593 399.442 462.158 403.308 457.579C407.174 453.014 413.05 450.699 420.884 450.686C428.629 450.661 434.555 452.937 438.587 457.503C442.618 462.069 444.653 468.618 444.729 477.152C444.729 478.601 444.755 480.064 444.768 481.527C439.782 481.527 434.784 481.527 429.799 481.527C429.773 479.721 429.748 477.915 429.723 476.109C429.659 472.497 428.934 469.864 427.548 468.211C426.162 466.558 424.152 465.731 421.532 465.744C416.204 465.744 413.66 469.127 413.838 475.842C413.927 479.657 414.983 483.205 416.992 486.512C419.002 489.818 422.613 493.837 427.79 498.543C434.403 504.558 438.917 510.04 441.397 514.949C443.865 519.87 445.086 525.644 445.022 532.27C444.946 540.905 442.822 547.531 438.587 552.135C434.365 556.751 428.235 559.041 420.299 559.028C412.452 559.002 406.64 556.713 402.876 552.135L402.863 552.097Z" fill="#2F7875"/>
<path d="M453.95 452.11C461.924 452.11 469.898 452.11 477.872 452.11C486.189 452.11 492.217 454.119 495.893 458.087C499.581 462.055 501.285 468.16 501.119 476.375C501.081 478.537 501.043 480.686 501.005 482.848C500.84 493.786 497.406 500.704 490.526 503.616C490.526 503.718 490.526 503.82 490.526 503.922C494.341 505.13 497.037 507.584 498.64 511.298C500.229 515.011 501.056 519.971 501.145 526.19C501.234 532.358 501.361 538.526 501.526 544.707C501.603 547.721 501.781 550.15 502.035 552.007C502.29 553.864 502.836 555.695 503.688 557.501C498.207 557.514 492.726 557.526 487.257 557.539C486.634 555.835 486.214 554.22 485.985 552.719C485.757 551.219 485.617 548.497 485.553 544.593C485.451 538.17 485.375 531.748 485.324 525.325C485.286 520.505 484.523 517.148 483.035 515.24C481.547 513.333 478.991 512.379 475.354 512.379H469.91C469.923 527.437 469.987 542.507 470.088 557.565C464.709 557.565 459.329 557.565 453.95 557.565C454.217 522.426 454.217 487.274 453.95 452.135V452.11ZM475.646 497.296C478.8 497.296 481.165 496.444 482.755 494.739C484.345 493.035 485.146 490.174 485.172 486.155C485.197 483.446 485.21 480.737 485.248 478.028C485.286 474.213 484.676 471.453 483.391 469.749C482.107 468.045 480.059 467.193 477.261 467.18C474.845 467.18 472.428 467.18 470.012 467.18C469.961 477.227 469.936 487.261 469.923 497.308C471.831 497.308 473.751 497.308 475.659 497.308L475.646 497.296Z" fill="#2F7875"/>
<path d="M525.563 452.237C532.85 452.262 540.137 452.3 547.424 452.339C550.324 487.363 555.373 522.337 564.161 557.234C558.781 557.272 553.402 557.297 548.022 557.323C546.509 550.379 545.122 543.435 543.838 536.479C543.838 536.58 543.838 536.682 543.851 536.784C537.822 536.796 531.807 536.822 525.779 536.835C525.054 543.702 524.405 550.57 523.808 557.437C518.822 557.45 513.824 557.475 508.839 557.488C512.947 522.375 517.996 487.287 525.563 452.237ZM541.472 522.54C538.7 505.231 536.589 487.923 534.974 470.601C534.872 470.601 534.783 470.601 534.681 470.601C531.616 487.91 529.2 505.231 527.241 522.565C531.985 522.565 536.729 522.553 541.46 522.54H541.472Z" fill="#2F7875"/>
<path d="M571.944 452.479C586.62 452.581 601.296 452.695 615.973 452.835C615.286 457.782 614.688 462.742 614.192 467.689C605.01 467.626 595.815 467.575 586.633 467.524C585.883 476.732 585.412 485.926 585.221 495.134C592.445 495.134 599.656 495.159 606.879 495.172C606.752 500.132 606.727 505.092 606.79 510.039C599.579 510.039 592.369 510.039 585.145 510.052C585.272 520.747 585.768 531.443 586.633 542.138C595.815 542.088 605.01 542.037 614.192 541.973C614.688 546.92 615.273 551.88 615.973 556.827C601.296 556.967 586.62 557.082 571.944 557.183C568.485 522.286 568.485 487.376 571.944 452.479Z" fill="#2F7875"/>
<path d="M625.206 452.911C630.585 452.962 635.965 453.025 641.344 453.076C636.499 482.645 635.812 512.213 639.271 541.782C648.021 541.718 656.771 541.642 665.521 541.565C666.182 546.462 666.983 551.358 667.899 556.254C653.668 556.432 639.424 556.598 625.193 556.738C620.055 522.133 620.055 487.528 625.193 452.911H625.206Z" fill="#2F7875"/>
<path d="M211.946 466.282H148" stroke="#2F7875" stroke-width="2" stroke-linecap="round" stroke-linejoin="round"/>
<path d="M148.924 127.564L130.434 105.221" stroke="#AEDDD7" stroke-width="2" stroke-linecap="round" stroke-linejoin="round"/>
<path d="M578.828 25.8665L588.073 1.98291" stroke="#AEDDD7" stroke-width="2" stroke-linecap="round" stroke-linejoin="round"/>
<path d="M446.313 132.88L439.379 21.1665" stroke="#4AB3AA" stroke-width="2" stroke-linecap="round" stroke-linejoin="round"/>
<path d="M542.618 173.791L558.026 140.663" stroke="#2F7875" stroke-width="2" stroke-linecap="round" stroke-linejoin="round"/>
<path d="M397.776 173.791L380.826 131.417" stroke="#2F7875" stroke-width="2" stroke-linecap="round" stroke-linejoin="round"/>
<path d="M258.326 248.525L225.968 223.1" stroke="#4AB3AA" stroke-width="2" stroke-linecap="round" stroke-linejoin="round"/>
<path d="M423.97 259.31L397.775 230.034" stroke="#AEDDD7" stroke-width="2" stroke-linecap="round" stroke-linejoin="round"/>
<path d="M764.504 513.553L873.136 540.519" stroke="#4AB3AA" stroke-width="2" stroke-linecap="round" stroke-linejoin="round"/>
<path d="M135.632 520.282L69.0001 533.782" stroke="#4AB3AA" stroke-width="2" stroke-linecap="round" stroke-linejoin="round"/>
<path d="M638.922 131.416L699.017 38.9634" stroke="#4AB3AA" stroke-width="2" stroke-linecap="round" stroke-linejoin="round"/>
<path d="M811.5 284.734L844.629 265.473" stroke="#AEDDD7" stroke-width="2" stroke-linecap="round" stroke-linejoin="round"/>
<path d="M683.608 248.525L723.671 223.1" stroke="#2F7875" stroke-width="2" stroke-linecap="round" stroke-linejoin="round"/>
<path d="M512.571 265.474L542.618 230.034" stroke="#AEDDD7" stroke-width="2" stroke-linecap="round" stroke-linejoin="round"/>
<path d="M279.128 173.791L207.478 82.8794" stroke="#4AB3AA" stroke-width="2" stroke-linecap="round" stroke-linejoin="round"/>
<path d="M73.421 195.364L53.3896 185.348" stroke="#AEDDD7" stroke-width="2" stroke-linecap="round" stroke-linejoin="round"/>
<path d="M92.6821 364.86L1 308.618" stroke="#4AB3AA" stroke-width="2" stroke-linecap="round" stroke-linejoin="round"/>
<path d="M896.249 367.17H921.673" stroke="#2F7875" stroke-width="2" stroke-linecap="round" stroke-linejoin="round"/>
<path d="M702.098 455L764.504 465.787" stroke="#AEDDD7" stroke-width="2" stroke-linecap="round" stroke-linejoin="round"/>
<path d="M30.2766 471.95L1 481.965" stroke="#AEDDD7" stroke-width="2" stroke-linecap="round" stroke-linejoin="round"/>
</svg>
