<svg width="56" height="61" viewBox="0 0 56 61" fill="none" xmlns="http://www.w3.org/2000/svg">
<path d="M1.1189 4.17689V57.5158C1.11991 58.3663 1.45827 59.1817 2.05974 59.7831C2.66121 60.3844 3.47666 60.7226 4.32719 60.7234H51.9106C52.7611 60.7226 53.5766 60.3844 54.1781 59.7831C54.7795 59.1817 55.1179 58.3663 55.1189 57.5158V4.17689C55.1179 3.32637 54.7795 2.51098 54.1781 1.90963C53.5766 1.30828 52.7611 0.970079 51.9106 0.969238H4.32719C3.47666 0.970079 2.66121 1.30828 2.05974 1.90963C1.45827 2.51098 1.11991 3.32637 1.1189 4.17689ZM4.32719 3.51197H18.9422V13.3651H3.66163V4.17689C3.66196 4.00054 3.73221 3.83151 3.85698 3.70687C3.98174 3.58223 4.15083 3.51214 4.32719 3.51197ZM21.4849 13.3651V3.51197H23.8713V13.3651H21.4849ZM3.66163 57.5158V53.2567H7.46365V58.1807H4.32719C4.15083 58.1805 3.98174 58.1105 3.85698 57.9858C3.73221 57.8612 3.66196 57.6921 3.66163 57.5158ZM51.9106 58.1807H10.0064V51.9828C10.0064 51.6456 9.87243 51.3222 9.63401 51.0838C9.39558 50.8454 9.0722 50.7114 8.73501 50.7114H3.66163V15.9078H52.5762V57.5158C52.5758 57.6921 52.5056 57.8612 52.3808 57.9858C52.2561 58.1105 52.087 58.1805 51.9106 58.1807ZM52.5762 4.17689V13.3651H26.414V3.51197H51.9106C52.087 3.51214 52.2561 3.58223 52.3808 3.70687C52.5056 3.83151 52.5758 4.00054 52.5762 4.17689Z" fill="black" stroke="white" stroke-width="0.5"/>
<path d="M28.1189 20.7222C24.9018 20.7222 21.757 21.6761 19.0821 23.4635C16.4072 25.2508 14.3223 27.7912 13.0912 30.7634C11.8601 33.7355 11.538 37.0061 12.1656 40.1613C12.7932 43.3166 14.3424 46.2149 16.6172 48.4897C18.892 50.7645 21.7903 52.3137 24.9456 52.9413C28.1009 53.569 31.3714 53.2468 34.3436 52.0157C37.3158 50.7846 39.8561 48.6998 41.6435 46.0249C43.4308 43.3499 44.3848 40.2051 44.3848 36.988C44.3799 32.6755 42.6646 28.5411 39.6152 25.4917C36.5658 22.4423 32.4314 20.727 28.1189 20.7222ZM28.1189 50.7112C25.4047 50.7112 22.7515 49.9063 20.4947 48.3984C18.238 46.8905 16.479 44.7472 15.4404 42.2396C14.4017 39.7321 14.1299 36.9728 14.6595 34.3108C15.189 31.6488 16.496 29.2035 18.4152 27.2843C20.3344 25.3651 22.7796 24.0581 25.4416 23.5286C28.1037 22.9991 30.8629 23.2708 33.3705 24.3095C35.8781 25.3482 38.0213 27.1071 39.5293 29.3639C41.0372 31.6206 41.842 34.2738 41.842 36.988C41.8378 40.6263 40.3906 44.1144 37.818 46.6871C35.2453 49.2598 31.7572 50.7069 28.1189 50.7112Z" fill="black" stroke="white" stroke-width="0.5"/>
<path d="M28.1189 27.8115C27.7817 27.8115 27.4583 27.9455 27.2199 28.1839C26.9815 28.4223 26.8475 28.7457 26.8475 29.0829C26.8475 29.4201 26.9815 29.7435 27.2199 29.9819C27.4583 30.2203 27.7817 30.3543 28.1189 30.3543C29.8777 30.3563 31.5639 31.0559 32.8076 32.2995C34.0513 33.5432 34.7509 35.2294 34.7529 36.9882C34.7529 37.3254 34.8868 37.6488 35.1253 37.8872C35.3637 38.1257 35.6871 38.2596 36.0243 38.2596C36.3614 38.2596 36.6848 38.1257 36.9232 37.8872C37.1617 37.6488 37.2956 37.3254 37.2956 36.9882C37.2929 34.5553 36.3252 32.2227 34.6048 30.5023C32.8845 28.7819 30.5519 27.8142 28.1189 27.8115Z" fill="black" stroke="white" stroke-width="0.5"/>
<path d="M8.311 8.72447C8.34494 8.80189 8.38534 8.87632 8.43178 8.94696C8.47575 9.01752 8.52922 9.08169 8.5907 9.13766C8.64835 9.19736 8.71229 9.25064 8.7814 9.29658C8.85145 9.34224 8.92601 9.38058 9.00389 9.41101C9.07998 9.44307 9.15867 9.46859 9.23909 9.48729C9.40263 9.5212 9.57139 9.5212 9.73493 9.48729C9.81535 9.46859 9.89404 9.44307 9.97013 9.41101C10.048 9.38058 10.1226 9.34224 10.1926 9.29658C10.2617 9.25064 10.3257 9.19736 10.3833 9.13766C10.4448 9.08169 10.4983 9.01752 10.5422 8.94696C10.5887 8.87632 10.6291 8.80189 10.663 8.72447C10.6921 8.64791 10.7155 8.5693 10.7329 8.48927C10.7508 8.40787 10.7594 8.32469 10.7584 8.24135C10.7589 8.07353 10.726 7.90728 10.6616 7.75231C10.5972 7.59733 10.5026 7.45672 10.3833 7.33868C10.324 7.28078 10.2603 7.22765 10.1926 7.17976C10.1226 7.13411 10.048 7.09576 9.97013 7.06534C9.89489 7.03248 9.81589 7.009 9.73493 6.99541C9.57185 6.95726 9.40217 6.95726 9.23909 6.99541C9.15812 7.009 9.07913 7.03248 9.00389 7.06534C8.92601 7.09576 8.85145 7.13411 8.7814 7.17976C8.71376 7.22765 8.65 7.28078 8.5907 7.33868C8.4714 7.45672 8.3768 7.59733 8.31241 7.75231C8.24802 7.90728 8.21512 8.07353 8.21564 8.24135C8.21698 8.40693 8.24933 8.5708 8.311 8.72447Z" fill="black" stroke="white" stroke-width="0.5"/>
<path d="M13.5744 8.72445C13.6109 8.80062 13.6512 8.87488 13.6952 8.94694C13.7896 9.08371 13.9081 9.20217 14.0448 9.29657C14.1156 9.34096 14.19 9.37924 14.2673 9.41099C14.3434 9.44306 14.4221 9.46858 14.5025 9.48727C14.6661 9.52118 14.8348 9.52118 14.9983 9.48727C15.0808 9.46858 15.1616 9.44307 15.2399 9.41099C15.3151 9.3792 15.3875 9.34092 15.456 9.29657C15.526 9.24909 15.5919 9.19594 15.6531 9.13765C15.711 9.07835 15.7641 9.01458 15.812 8.94694C15.8564 8.87616 15.8947 8.80173 15.9264 8.72445C15.9881 8.57078 16.0205 8.40691 16.0218 8.24133C16.0223 7.90368 15.8898 7.57941 15.6531 7.33866C15.5903 7.28225 15.5245 7.2292 15.456 7.17974C15.3875 7.13539 15.3151 7.09711 15.2399 7.06532C15.1625 7.03245 15.0814 7.00897 14.9983 6.99539C14.8353 6.95726 14.6656 6.95726 14.5025 6.99539C14.4215 7.00898 14.3426 7.03247 14.2673 7.06532C14.19 7.09707 14.1156 7.13535 14.0448 7.17974C13.9772 7.22763 13.9134 7.28077 13.8541 7.33866C13.6156 7.57877 13.4809 7.90292 13.4791 8.24133C13.4812 8.3245 13.4897 8.40738 13.5045 8.48925C13.5236 8.56553 13.549 8.64817 13.5744 8.72445Z" fill="black" stroke="white" stroke-width="0.5"/>
<path d="M27.2225 36.0905C27.1034 36.2073 27.0088 36.3468 26.9443 36.5007C26.8799 36.6546 26.847 36.8199 26.8475 36.9868C26.8465 37.0701 26.855 37.1533 26.8729 37.2347C26.8895 37.317 26.9129 37.3978 26.9428 37.4763C26.9768 37.5516 27.0172 37.624 27.0636 37.6924C27.1091 37.7638 27.1624 37.8299 27.2225 37.8895C27.4609 38.1259 27.7831 38.2584 28.1189 38.2582C28.4563 38.2574 28.7801 38.1252 29.0215 37.8895C29.0778 37.8282 29.1288 37.7622 29.1741 37.6924C29.2205 37.624 29.2609 37.5516 29.2949 37.4763C29.3277 37.3988 29.3512 37.3177 29.3648 37.2347C29.3827 37.1533 29.3912 37.0701 29.3902 36.9868C29.3894 36.6513 29.257 36.3295 29.0215 36.0905C28.7783 35.8608 28.4565 35.7329 28.122 35.7329C27.7876 35.7329 27.4657 35.8608 27.2225 36.0905Z" fill="black" stroke="white" stroke-width="0.5"/>
</svg>
