<svg width="54" height="54" viewBox="0 0 54 54" fill="none" xmlns="http://www.w3.org/2000/svg">
<path d="M53.8335 34.0452C53.3049 30.2744 51.5957 26.8538 48.8908 24.1533C45.1308 20.4018 40.0694 18.7237 35.1446 19.1167C32.7667 15.3208 29.6522 10.935 26.8876 7.04289C25.1795 4.6382 23.5663 2.36693 22.2887 0.466277C22.0928 0.174762 21.7644 -0.000105421 21.4131 4.76819e-08C21.0618 0.000105516 20.7336 0.175078 20.5377 0.466699C19.2518 2.38138 17.624 4.673 15.9008 7.09921C15.028 8.32792 14.1328 9.58827 13.2403 10.858C12.7263 10.1211 12.2039 9.38524 11.7 8.67565C10.9336 7.59639 10.2098 6.57692 9.64037 5.72875C9.44452 5.43702 9.1164 5.26194 8.76498 5.26184C8.76488 5.26184 8.76477 5.26184 8.76466 5.26184C8.41345 5.26184 8.08534 5.4366 7.88938 5.72801C7.3228 6.57091 6.60382 7.58289 5.84265 8.65413C4.0192 11.2209 1.95233 14.1302 0.918949 16.1945C0.317777 17.3943 0 18.7439 0 20.0975C0 23.0468 1.47161 25.658 3.71883 27.2433C3.32627 28.7405 3.12694 30.2914 3.12694 31.8649C3.12694 41.9286 11.3302 50.1159 21.4133 50.1159C22.6939 50.1159 23.9708 49.9827 25.2172 49.7195C27.744 51.8797 30.795 53.2547 34.1184 53.7183C34.9152 53.8296 35.7183 53.8844 36.521 53.8844C39.4005 53.8844 42.2726 53.1772 44.8021 51.8223C45.3155 51.5471 45.5089 50.908 45.2339 50.3944C44.9588 49.8809 44.3196 49.6876 43.806 49.9627C37.8934 53.1299 30.4469 52.0327 25.6978 47.2942C22.7985 44.4014 21.2022 40.5563 21.2026 36.4674C21.203 32.3797 22.7994 28.5369 25.698 25.6461C31.68 19.6746 41.4157 19.6746 47.4004 25.6461C52.1471 30.385 53.2468 37.8123 50.0748 43.708C49.7989 44.2211 49.9909 44.8606 50.5039 45.1367C51.017 45.4125 51.6566 45.2205 51.9326 44.7076C53.6697 41.4793 54.3448 37.6926 53.8335 34.0452ZM2.10948 20.0975C2.10948 19.0557 2.34341 18.0606 2.80515 17.1393C3.76608 15.2197 5.78296 12.3808 7.56243 9.87599C7.98124 9.28652 8.3873 8.71499 8.76435 8.17678C9.14541 8.72121 9.55642 9.30002 9.98009 9.89687C11.7533 12.3944 13.7633 15.225 14.7218 17.1396C15.1832 18.0604 15.4171 19.0555 15.4171 20.0974C15.4171 23.7577 12.4329 26.7355 8.76487 26.7355C5.09498 26.7355 2.10948 23.7578 2.10948 20.0975ZM24.2082 24.1531C20.9104 27.442 19.094 31.8154 19.0934 36.4674C19.093 40.7094 20.6029 44.7199 23.3685 47.8892C22.7211 47.9672 22.0679 48.0065 21.4134 48.0065C12.4934 48.0065 5.23652 40.7654 5.23652 31.865C5.23652 30.6434 5.37173 29.4381 5.63889 28.2679C6.61057 28.6395 7.66378 28.8451 8.76477 28.8451C13.596 28.8451 17.5265 24.9209 17.5265 20.0975C17.5265 18.7438 17.2087 17.3942 16.6077 16.1949C16.1051 15.1908 15.3574 13.9862 14.5127 12.7188C15.5516 11.2348 16.6011 9.75607 17.6207 8.32075C18.9832 6.40259 20.2863 4.56796 21.4138 2.92908C22.5313 4.55224 23.8203 6.36694 25.168 8.26432C27.7257 11.8651 30.5849 15.8913 32.8598 19.4503C29.6867 20.1302 26.6683 21.6973 24.2082 24.1531Z" fill="black"/>
<path d="M47.9159 38.9751C47.7654 38.4124 47.1882 38.078 46.6246 38.2285L43.2729 39.1241L38.6633 36.4689L43.2729 33.8136L46.6246 34.7092C46.7158 34.7336 46.8073 34.7453 46.8975 34.7453C47.3635 34.7453 47.7899 34.4342 47.9159 33.9626C48.0663 33.3998 47.732 32.8217 47.1693 32.6713L44.4167 31.9357L45.1534 29.1912C45.3044 28.6286 44.9707 28.05 44.4081 27.899C43.8455 27.7478 43.2671 28.0818 43.1159 28.6442L42.2188 31.9864L37.605 34.6442V29.3318L40.0571 26.8878C40.4696 26.4764 40.4708 25.8087 40.0596 25.3961C39.6481 24.9836 38.9805 24.9824 38.5679 25.3937L36.5502 27.4047L34.5325 25.3937C34.1198 24.9824 33.452 24.9835 33.0408 25.3961C32.6296 25.8087 32.6308 26.4765 33.0432 26.8878L35.4954 29.3318V34.6442L30.8811 31.9862L29.9813 28.6435C29.8298 28.081 29.2512 27.7479 28.6887 27.8992C28.1262 28.0507 27.7929 28.6294 27.9444 29.1918L28.6831 31.9358L25.9312 32.6711C25.3684 32.8215 25.0341 33.3997 25.1845 33.9625C25.3105 34.4341 25.7368 34.7452 26.2028 34.7452C26.2929 34.7452 26.3845 34.7335 26.4757 34.7091L29.8275 33.8135L34.4371 36.4688L29.8275 39.124L26.4757 38.2284C25.913 38.0777 25.3349 38.4123 25.1845 38.975C25.0341 39.5378 25.3684 40.116 25.9312 40.2664L28.6831 41.0018L27.9444 43.7458C27.7929 44.3083 28.1262 44.8871 28.6887 45.0384C28.7805 45.0631 28.8727 45.075 28.9635 45.075C29.4287 45.075 29.8547 44.7647 29.9814 44.2941L30.8812 40.9514L35.4955 38.2935V43.6061L33.0429 46.0533C32.6307 46.4649 32.6299 47.1326 33.0412 47.545C33.2472 47.7514 33.5176 47.8547 33.7879 47.8547C34.0574 47.8547 34.327 47.752 34.5329 47.5467L36.5502 45.5338L38.5675 47.5467C38.7734 47.752 39.0429 47.8547 39.3125 47.8547C39.5828 47.8547 39.8532 47.7514 40.0591 47.545C40.4706 47.1326 40.4698 46.4648 40.0574 46.0533L37.6049 43.6061V38.2935L42.2187 40.9512L43.1158 44.2934C43.2423 44.7644 43.6684 45.075 44.1339 45.075C44.2243 45.075 44.3165 45.0632 44.408 45.0386C44.9706 44.8876 45.3042 44.3091 45.1533 43.7464L44.4166 41.0019L47.1692 40.2664C47.732 40.1161 48.0663 39.5379 47.9159 38.9751Z" fill="black"/>
<path d="M47.6729 47.0979L47.6669 47.1009C47.1458 47.3614 46.9377 47.9935 47.1981 48.5145C47.3827 48.8837 47.7561 49.0966 48.1434 49.0966C48.3027 49.0966 48.4643 49.0606 48.6161 48.9846C49.1372 48.7241 49.3484 48.0906 49.0879 47.5696C48.8275 47.0486 48.1935 46.8374 47.6729 47.0979Z" fill="black"/>
</svg>
