<svg width="1181" height="828" viewBox="0 0 1181 828" fill="none" xmlns="http://www.w3.org/2000/svg">
<g opacity="0.1">
<mask id="mask0_177_2423" style="mask-type:alpha" maskUnits="userSpaceOnUse" x="0" y="0" width="1329" height="828">
<path d="M661.681 440.476C723.249 440.476 774.893 393.116 789.251 329.143C804.361 329.143 819.546 329.519 834.656 330.421C920.355 335.608 999.588 372.97 1059.05 464.832C1067.02 363.799 1038.53 293.285 979.216 235.552C873.747 132.864 737.607 106.328 599.287 98.4346C398.572 86.933 197.407 84.2268 0 0.783691C7.89326 129.933 74.4974 193.079 174.855 257.052C281.978 325.385 410.75 326.588 535.088 332.902C550.574 394.996 601.392 440.476 661.756 440.476" fill="black"/>
<path d="M719.34 493.852C544.56 551.886 410.224 675.322 333.848 827.849C429.619 735.761 545.162 661.264 677.543 611.649C895.247 530.086 1123.1 529.108 1329 593.307C1160.16 467.015 934.638 422.286 719.264 493.776" fill="black"/>
</mask>
<g mask="url(#mask0_177_2423)">
<path d="M18.2334 -179.523V925.614" stroke="black" stroke-width="3"/>
<path d="M43.5573 -179.523V925.614" stroke="black" stroke-width="3"/>
<path d="M68.8812 -179.523V925.614" stroke="black" stroke-width="3"/>
<path d="M94.2052 -179.523V925.614" stroke="black" stroke-width="3"/>
<path d="M119.529 -179.523V925.614" stroke="black" stroke-width="3"/>
<path d="M144.853 -179.523V925.614" stroke="black" stroke-width="3"/>
<path d="M170.177 -179.523V925.614" stroke="black" stroke-width="3"/>
<path d="M195.501 -179.523V925.614" stroke="black" stroke-width="3"/>
<path d="M220.825 -179.523V925.614" stroke="black" stroke-width="3"/>
<path d="M246.149 -179.523V925.614" stroke="black" stroke-width="3"/>
<path d="M271.473 -179.523V925.614" stroke="black" stroke-width="3"/>
<path d="M296.797 -179.523V925.614" stroke="black" stroke-width="3"/>
<path d="M322.121 -179.523V925.614" stroke="black" stroke-width="3"/>
<path d="M347.445 -179.523V925.614" stroke="black" stroke-width="3"/>
<path d="M372.769 -179.523V925.614" stroke="black" stroke-width="3"/>
<path d="M398.093 -179.523V925.614" stroke="black" stroke-width="3"/>
<path d="M423.416 -179.523V925.614" stroke="black" stroke-width="3"/>
<path d="M448.74 -179.523V925.614" stroke="black" stroke-width="3"/>
<path d="M474.064 -179.523V925.614" stroke="black" stroke-width="3"/>
<path d="M499.388 -179.523V925.614" stroke="black" stroke-width="3"/>
<path d="M524.712 -179.523V925.614" stroke="black" stroke-width="3"/>
<path d="M550.036 -179.523V925.614" stroke="black" stroke-width="3"/>
<path d="M575.36 -179.523V925.614" stroke="black" stroke-width="3"/>
<path d="M600.684 -179.523V925.614" stroke="black" stroke-width="3"/>
<path d="M626.008 -179.523V925.614" stroke="black" stroke-width="3"/>
<path d="M651.332 -179.523V925.614" stroke="black" stroke-width="3"/>
<path d="M676.656 -179.523V925.614" stroke="black" stroke-width="3"/>
<path d="M701.98 -179.523V925.614" stroke="black" stroke-width="3"/>
<path d="M727.304 -179.523V925.614" stroke="black" stroke-width="3"/>
<path d="M752.628 -179.523V925.614" stroke="black" stroke-width="3"/>
<path d="M777.951 -179.523V925.614" stroke="black" stroke-width="3"/>
<path d="M803.276 -179.523V925.614" stroke="black" stroke-width="3"/>
<path d="M828.6 -179.523V925.614" stroke="black" stroke-width="3"/>
<path d="M853.923 -179.523V925.614" stroke="black" stroke-width="3"/>
<path d="M879.247 -179.523V925.614" stroke="black" stroke-width="3"/>
<path d="M904.571 -179.523V925.614" stroke="black" stroke-width="3"/>
<path d="M929.895 -179.523V925.614" stroke="black" stroke-width="3"/>
<path d="M955.219 -179.523V925.614" stroke="black" stroke-width="3"/>
<path d="M980.543 -179.523V925.614" stroke="black" stroke-width="3"/>
<path d="M1005.87 -179.523V925.614" stroke="black" stroke-width="3"/>
<path d="M1031.19 -179.523V925.614" stroke="black" stroke-width="3"/>
<path d="M1056.51 -179.523V925.614" stroke="black" stroke-width="3"/>
<path d="M1081.84 -179.523V925.614" stroke="black" stroke-width="3"/>
<path d="M1107.16 -179.523V925.614" stroke="black" stroke-width="3"/>
<path d="M1132.49 -179.523V925.614" stroke="black" stroke-width="3"/>
<path d="M1157.81 -179.523V925.614" stroke="black" stroke-width="3"/>
</g>
</g>
</svg>
