<svg width="72" height="63" viewBox="0 0 72 63" fill="none" xmlns="http://www.w3.org/2000/svg">
<path d="M71.1189 6.16302V40.6154C71.1189 41.2193 70.6292 41.7088 70.0251 41.7088C69.4211 41.7088 68.9314 41.2193 68.9314 40.6154V6.16302C68.9314 4.50497 67.5821 3.15609 65.9236 3.15609H6.31421C4.65567 3.15609 3.3064 4.50497 3.3064 6.16302V43.3396C3.3064 44.9976 4.65567 46.3465 6.31421 46.3465H12.0122C12.6034 46.3465 13.0877 46.8161 13.1054 47.4068L13.4285 58.0846L15.456 55.7934C15.8562 55.341 16.5475 55.2985 16.9999 55.6991C17.4523 56.0992 17.4947 56.7902 17.0943 57.2425L13.2378 61.6003C13.0263 61.8394 12.7259 61.9692 12.4184 61.9692C12.2939 61.9692 12.1682 61.9481 12.0467 61.904C11.6249 61.7515 11.339 61.3569 11.3255 60.9089L10.9512 48.5333H6.31421C3.44954 48.5333 1.1189 46.2034 1.1189 43.3396V6.16302C1.1189 3.2992 3.44954 0.969238 6.31421 0.969238H65.9236C68.7883 0.969238 71.1189 3.2992 71.1189 6.16302ZM15.6408 24.7513C15.6408 21.6382 18.1742 19.1055 21.2882 19.1055C24.4022 19.1055 26.9356 21.6382 26.9356 24.7513C26.9356 27.8643 24.4022 30.3971 21.2882 30.3971C18.1742 30.3971 15.6408 27.8644 15.6408 24.7513ZM17.8283 24.7513C17.8283 26.6585 19.3804 28.2102 21.2882 28.2102C23.196 28.2102 24.7481 26.6585 24.7481 24.7513C24.7481 22.8439 23.196 21.2924 21.2882 21.2924C19.3804 21.2924 17.8283 22.8441 17.8283 24.7513ZM30.4715 24.7513C30.4715 21.6382 33.0049 19.1055 36.1189 19.1055C39.2329 19.1055 41.7663 21.6382 41.7663 24.7513C41.7663 27.8643 39.2329 30.3971 36.1189 30.3971C33.005 30.3971 30.4715 27.8644 30.4715 24.7513ZM32.659 24.7513C32.659 26.6585 34.2111 28.2102 36.1189 28.2102C38.0268 28.2102 39.5788 26.6585 39.5788 24.7513C39.5788 22.8439 38.0267 21.2924 36.1189 21.2924C34.2111 21.2924 32.659 22.8441 32.659 24.7513ZM45.3022 24.7513C45.3022 21.6382 47.8356 19.1055 50.9496 19.1055C54.0636 19.1055 56.597 21.6382 56.597 24.7513C56.597 27.8643 54.0636 30.3971 50.9496 30.3971C47.8356 30.3971 45.3022 27.8644 45.3022 24.7513ZM47.4897 24.7513C47.4897 26.6585 49.0418 28.2102 50.9496 28.2102C52.8574 28.2102 54.4095 26.6585 54.4095 24.7513C54.4095 22.8439 52.8574 21.2924 50.9496 21.2924C49.0418 21.2924 47.4897 22.8441 47.4897 24.7513ZM32.804 43.5723C32.9388 43.9871 32.8141 44.4424 32.4868 44.7308L28.9382 47.8564L29.9713 52.4701C30.0666 52.8957 29.8998 53.3373 29.547 53.5936C29.3561 53.7323 29.1304 53.8024 28.904 53.8024C28.7119 53.8024 28.5194 53.752 28.347 53.65L24.277 51.2419L20.207 53.65C19.8315 53.8721 19.3598 53.85 19.007 53.5936C18.654 53.3373 18.4872 52.8958 18.5827 52.4701L19.6159 47.8564L16.0672 44.7308C15.7399 44.4426 15.6152 43.9873 15.75 43.5723C15.8848 43.1576 16.2533 42.8627 16.6876 42.8217L21.3962 42.3784L23.2731 38.0386C23.4463 37.6383 23.8407 37.3791 24.277 37.3791C24.7133 37.3791 25.1078 37.6383 25.2809 38.0386L27.1577 42.3784L31.8663 42.8217C32.3008 42.8625 32.6692 43.1576 32.804 43.5723ZM29.1425 44.7617L26.3082 44.4949C25.9108 44.4574 25.5653 44.2065 25.4068 43.8402L24.2771 41.2279L23.1473 43.8402C22.9888 44.2065 22.6434 44.4574 22.2459 44.4949L19.4116 44.7617L21.5478 46.6432C21.8474 46.9071 21.9793 47.3131 21.8921 47.7026L21.2701 50.4799L23.7201 49.0303C24.0637 48.8272 24.4908 48.8272 24.8343 49.0303L27.2843 50.4799L26.6623 47.7026C26.5751 47.3131 26.707 46.9071 27.0066 46.6432L29.1425 44.7617ZM51.9347 43.5723C52.0695 43.9871 51.9448 44.4424 51.6175 44.7308L48.0688 47.8564L49.102 52.4701C49.1973 52.8957 49.0305 53.3373 48.6776 53.5936C48.3246 53.85 47.8531 53.8721 47.4776 53.65L43.4076 51.2419L39.3377 53.65C39.1653 53.752 38.9728 53.8024 38.7807 53.8024C38.5543 53.8024 38.3287 53.7323 38.1377 53.5936C37.7847 53.3373 37.6179 52.8958 37.7133 52.4701L38.7465 47.8564L35.1978 44.7308C34.8705 44.4426 34.7458 43.9873 34.8806 43.5723C35.0154 43.1576 35.3839 42.8627 35.8183 42.8217L40.5268 42.3784L42.4037 38.0386C42.5768 37.6383 42.9714 37.3791 43.4076 37.3791C43.8439 37.3791 44.2385 37.6383 44.4116 38.0386L46.2884 42.3784L50.9969 42.8217C51.4314 42.8625 51.7999 43.1576 51.9347 43.5723ZM48.2732 44.7617L45.4389 44.4949C45.0414 44.4574 44.6959 44.2065 44.5375 43.8402L43.4078 41.2279L42.2779 43.8402C42.1195 44.2065 41.774 44.4574 41.3766 44.4949L38.5422 44.7617L40.6785 46.6432C40.978 46.9071 41.11 47.3131 41.0227 47.7026L40.4008 50.4799L42.8508 49.0303C43.1944 48.8272 43.6213 48.8272 43.9649 49.0303L46.4148 50.4799L45.7928 47.7026C45.7056 47.3131 45.8375 46.9071 46.1371 46.6432L48.2732 44.7617ZM71.0653 43.5723C71.2001 43.9871 71.0754 44.4424 70.7481 44.7308L67.1994 47.8564L68.2326 52.4701C68.3279 52.8957 68.1611 53.3373 67.8083 53.5936C67.6174 53.7323 67.3917 53.8024 67.1653 53.8024C66.9732 53.8024 66.7807 53.752 66.6083 53.65L62.5383 51.2419L58.4683 53.65C58.0929 53.8723 57.6212 53.8503 57.2683 53.5936C56.9153 53.3373 56.7485 52.8958 56.844 52.4701L57.8771 47.8564L54.3285 44.7308C54.0012 44.4426 53.8765 43.9873 54.0113 43.5723C54.1461 43.1576 54.5145 42.8627 54.9489 42.8217L59.6574 42.3784L61.5342 38.0386C61.7075 37.6383 62.1019 37.3791 62.5382 37.3791C62.9744 37.3791 63.369 37.6383 63.5421 38.0386L65.419 42.3784L70.1275 42.8217C70.562 42.8625 70.9306 43.1576 71.0653 43.5723ZM67.404 44.7617L64.5697 44.4949C64.1722 44.4574 63.8267 44.2065 63.6683 43.8402L62.5384 41.2279L61.4087 43.8402C61.2503 44.2065 60.9048 44.4574 60.5073 44.4949L57.673 44.7617L59.8092 46.6432C60.1088 46.9071 60.2407 47.3131 60.1535 47.7026L59.5316 50.4799L61.9814 49.0303C62.1532 48.9287 62.3459 48.8779 62.5386 48.8779C62.7312 48.8779 62.9238 48.9287 63.0957 49.0303L65.5457 50.4799L64.9238 47.7026C64.8365 47.3131 64.9685 46.9071 65.268 46.6432L67.404 44.7617Z" fill="black" stroke="white" stroke-width="0.5"/>
</svg>
