<svg width="72" height="72" viewBox="0 0 72 72" fill="none" xmlns="http://www.w3.org/2000/svg">
<path d="M36.2812 71.0094C34.5906 71.0094 33.0056 70.3453 31.8132 69.1528L26.4092 63.7488C25.6695 63.0091 24.6884 62.6016 23.6468 62.6016H15.9937C12.5068 62.6016 9.66898 59.7638 9.66898 56.2768V48.6237C9.66898 47.5822 9.26142 46.601 8.52177 45.8614L3.11781 40.4574C0.657345 37.997 0.657345 33.9817 3.11781 31.5213L8.52177 26.1173C9.26142 25.3776 9.66898 24.3965 9.66898 23.3549V15.7018C9.66898 12.2149 12.5068 9.37708 15.9937 9.37708H23.6468C24.6884 9.37708 25.6695 8.96952 26.4092 8.22987L31.8132 2.82591C33.0056 1.63341 34.5906 0.969238 36.2812 0.969238C37.9719 0.969238 39.5568 1.63341 40.7493 2.82591L46.1533 8.22987C46.8929 8.96952 47.8741 9.37708 48.9156 9.37708H56.5687C60.0557 9.37708 62.8935 12.2149 62.8935 15.7018V23.3549C62.8935 24.3965 63.301 25.3776 64.0407 26.1173L69.4447 31.5213C71.9051 33.9817 71.9051 37.997 69.4447 40.4574L64.0407 45.8614C63.301 46.601 62.8935 47.5822 62.8935 48.6237V56.2768C62.8935 59.7638 60.0557 62.6016 56.5687 62.6016H48.9156C47.8741 62.6016 46.8929 63.0091 46.1533 63.7488L40.7493 69.1528C39.5568 70.3453 37.9719 71.0094 36.2812 71.0094ZM15.9937 11.7923C13.8352 11.7923 12.0842 13.5433 12.0842 15.7018V23.3549C12.0842 25.0456 11.42 26.6305 10.2275 27.823L4.82353 33.227C3.29895 34.7516 3.29895 37.2271 4.82353 38.7517L10.2275 44.1557C11.42 45.3482 12.0842 46.9331 12.0842 48.6237V56.2768C12.0842 58.4354 13.8352 60.1864 15.9937 60.1864H23.6468C25.3375 60.1864 26.9224 60.8506 28.1149 62.0431L33.5189 67.447C34.2585 68.1867 35.2397 68.5943 36.2812 68.5943C37.3228 68.5943 38.3039 68.1867 39.0436 67.447L44.4476 62.0431C45.6401 60.8506 47.225 60.1864 48.9156 60.1864H56.5687C58.7273 60.1864 60.4783 58.4354 60.4783 56.2768V48.6237C60.4783 46.9331 61.1425 45.3482 62.335 44.1557L67.7389 38.7517C69.2635 37.2271 69.2635 34.7516 67.7389 33.227L62.335 27.823C61.1425 26.6305 60.4783 25.0456 60.4783 23.3549V15.7018C60.4783 13.5433 58.7273 11.7923 56.5687 11.7923H48.9156C47.225 11.7923 45.6401 11.1281 44.4476 9.93559L39.0436 4.53163C38.3039 3.79198 37.3228 3.38442 36.2812 3.38442C35.2397 3.38442 34.2585 3.79198 33.5189 4.53163L28.1149 9.93559C26.9224 11.1281 25.3375 11.7923 23.6468 11.7923H15.9937Z" fill="black" stroke="white"/>
<path d="M36.2811 58.0428C24.1147 58.0428 14.2275 48.1405 14.2275 35.9892C14.2275 23.8378 24.1147 13.9355 36.2811 13.9355C48.4476 13.9355 58.3347 23.8227 58.3347 35.9892C58.3347 48.1556 48.4476 58.0428 36.2811 58.0428ZM36.2811 16.3507C25.443 16.3507 16.6427 25.1661 16.6427 35.9892C16.6427 46.8122 25.443 55.6276 36.2811 55.6276C47.1193 55.6276 55.9196 46.8122 55.9196 35.9892C55.9196 25.1661 47.1193 16.3507 36.2811 16.3507Z" fill="black" stroke="white"/>
<path d="M44.7343 48.065H27.828C27.2846 48.065 26.8167 47.7028 26.6657 47.1895L21.8354 30.1776C21.6995 29.6946 21.8807 29.1663 22.2882 28.8644C22.6958 28.5625 23.2543 28.5474 23.6619 28.8342L29.8658 32.9702L35.2396 24.3661C35.466 24.0189 35.8434 23.7925 36.2661 23.7925C36.6887 23.7925 37.0661 24.0038 37.2925 24.3661L42.6663 32.9702L48.8703 28.8342C49.2929 28.5474 49.8364 28.5625 50.2439 28.8644C50.6515 29.1663 50.8326 29.6795 50.6968 30.1776L45.8664 47.1895C45.7456 47.7028 45.2777 48.065 44.7343 48.065ZM28.7337 45.6499H43.8286L47.5117 32.6683L42.9984 35.6872C42.7267 35.8684 42.3946 35.9288 42.0776 35.8684C41.7606 35.7929 41.4738 35.6118 41.3078 35.325L36.2812 27.2945L31.2697 35.3099C31.1036 35.5816 30.8168 35.7778 30.4998 35.8533C30.1828 35.9288 29.8507 35.8533 29.579 35.6721L25.0657 32.6532L28.7337 45.6499Z" fill="black" stroke="white"/>
</svg>
